<?xml version="1.0" encoding="utf-8"?>
<!-- Generator: Adobe Illustrator 20.0.0, SVG Export Plug-In . SVG Version: 6.00 Build 0)  -->
<svg version="1.1" id="Layer_1" xmlns="http://www.w3.org/2000/svg" xmlns:xlink="http://www.w3.org/1999/xlink" x="0px" y="0px"
	 viewBox="0 0 176.3 35.3" style="enable-background:new 0 0 176.3 35.3;" xml:space="preserve">
<path style="fill:#0D0D0D;" d="M83.3,33.3V11.6C83.3,5.7,78.5,1,72.6,1c-2.9,0-5.5,1.2-7.4,3c0,0-0.8,0.7-1.6,2
	c-1.9-3-5.2-5.1-9-5.1c-2.9,0-5.5,1.8-7.4,3.7l0-3h-7.4v31.6h7.4l0-20.4c0-2.9,2.4-5.3,5.3-5.3c2.9,0,5.3,2.4,5.3,5.3v20.4h7.4
	l0-20.4c0-2.9,2.4-5.3,5.3-5.3c2.9,0,5.3,2.4,5.3,5.3v20.4H83.3z"/>
<path style="fill:#0D0D0D;" d="M151.6,1.7v2.6c-2.7-2.1-6.1-3.3-9.8-3.3c-9.1,0-16.6,7.4-16.6,16.6c0,9.1,7.4,16.6,16.6,16.6
	c3.7,0,7.1-1.2,9.8-3.3v2.5h7.6V1.7H151.6z M143,27.6L143,27.6L143,27.6c-5.6,0-9.9-4.5-9.9-10c0-5.5,4.3-10,9.8-10h0h0
	c5.5,0,9.6,4.5,9.6,10C152.6,23.1,148.6,27.6,143,27.6"/>
<path style="fill:#0D0D0D;" d="M169.4,11.6c2.9,0,5.3-2.4,5.3-5.3c0-2.9-2.4-5.3-5.3-5.3c-2.9,0-5.3,2.4-5.3,5.3
	C164.1,9.2,166.5,11.6,169.4,11.6"/>
<polygon style="fill:#0D0D0D;" points="127.6,1.7 117.8,1.7 107.5,11.9 107.5,1.7 100.1,1.7 100.1,33.3 107.5,33.3 107.5,21.1 
	108.6,20 119.1,33.3 128.6,33.3 113.8,15 "/>
<path style="fill:#0D0D0D;" d="M169.4,23.5c-2.9,0-5.3,2.4-5.3,5.3s2.4,5.3,5.3,5.3c2.9,0,5.3-2.4,5.3-5.3S172.3,23.5,169.4,23.5"/>
<path style="fill:#0D0D0D;" d="M27.5,1.7v2.6C24.8,2.2,21.4,1,17.6,1C8.5,1,1.1,8.4,1.1,17.5c0,9.1,7.4,16.6,16.6,16.6
	c3.7,0,7.1-1.2,9.8-3.3v2.5H35V1.7H27.5z M18.9,27.6c-5.6,0-9.8-4.5-9.8-10c0-5.5,4.3-10,9.8-10c5.5,0,9.6,4.5,9.6,10
	C28.5,23.1,24.4,27.6,18.9,27.6"/>
<rect x="88" y="1.7" style="fill:#0D0D0D;" width="7.4" height="31.6"/>
</svg>
