<?xml version="1.0" encoding="utf-8"?>
<!-- Generator: Adobe Illustrator 20.0.0, SVG Export Plug-In . SVG Version: 6.00 Build 0)  -->
<svg version="1.1" id="Layer_1" xmlns="http://www.w3.org/2000/svg" xmlns:xlink="http://www.w3.org/1999/xlink" x="0px" y="0px"
	 viewBox="0 0 454.9 10.9" style="enable-background:new 0 0 454.9 10.9;" xml:space="preserve">
<line style="fill:none;stroke:#231F20;stroke-width:0.5;stroke-miterlimit:10;" x1="0" y1="5.4" x2="454.9" y2="5.4"/>
<path style="fill:#231F20;" d="M224.2,5.4c0,1.6-1.3,3-3,3c-1.6,0-3-1.3-3-3c0-1.6,1.3-3,3-3C222.9,2.5,224.2,3.8,224.2,5.4"/>
<path style="fill:#231F20;" d="M241.8,5.4c0,2.3-1.8,4.1-4.1,4.1c-2.3,0-4.1-1.8-4.1-4.1c0-2.3,1.8-4.1,4.1-4.1
	C240,1.3,241.8,3.2,241.8,5.4"/>
<path style="fill:#231F20;" d="M258,5.4c0,2.6-2.1,4.7-4.7,4.7s-4.7-2.1-4.7-4.7c0-2.6,2.1-4.7,4.7-4.7S258,2.9,258,5.4"/>
<path style="fill:#231F20;" d="M280,5.4c0,2.8-2.3,5.1-5.1,5.1c-2.8,0-5.1-2.3-5.1-5.1c0-2.8,2.3-5.1,5.1-5.1
	C277.7,0.4,280,2.7,280,5.4"/>
<path style="fill:#231F20;" d="M288.9,5.4c0,1.6-1.3,3-3,3c-1.6,0-3-1.3-3-3c0-1.6,1.3-3,3-3C287.5,2.5,288.9,3.8,288.9,5.4"/>
<path style="fill:#231F20;" d="M304.7,5.4c0,1.6-1.3,3-3,3c-1.6,0-3-1.3-3-3c0-1.6,1.3-3,3-3C303.3,2.5,304.7,3.8,304.7,5.4"/>
<path style="fill:#231F20;" d="M318.7,5.4c0,1.6-1.3,3-3,3c-1.6,0-3-1.3-3-3c0-1.6,1.3-3,3-3C317.4,2.5,318.7,3.8,318.7,5.4"/>
<path style="fill:#231F20;" d="M333.4,5.4c0,1.6-1.3,3-3,3c-1.6,0-3-1.3-3-3c0-1.6,1.3-3,3-3C332.1,2.5,333.4,3.8,333.4,5.4"/>
<path style="fill:#231F20;" d="M351,5.4c0,3-2.4,5.4-5.4,5.4c-3,0-5.4-2.4-5.4-5.4c0-3,2.4-5.4,5.4-5.4C348.6,0,351,2.4,351,5.4"/>
<path style="fill:#231F20;" d="M364.2,5.4c0,1.6-1.3,3-3,3c-1.6,0-3-1.3-3-3c0-1.6,1.3-3,3-3C362.8,2.5,364.2,3.8,364.2,5.4"/>
<path style="fill:#231F20;" d="M376.8,5.4c0,1.6-1.3,3-3,3c-1.6,0-3-1.3-3-3c0-1.6,1.3-3,3-3C375.5,2.5,376.8,3.8,376.8,5.4"/>
<path style="fill:#231F20;" d="M389.9,5.4c0,1.6-1.3,3-3,3c-1.6,0-3-1.3-3-3c0-1.6,1.3-3,3-3C388.6,2.5,389.9,3.8,389.9,5.4"/>
<path style="fill:#231F20;" d="M401.8,5.4c0,1.6-1.3,3-3,3c-1.6,0-3-1.3-3-3c0-1.6,1.3-3,3-3C400.4,2.5,401.8,3.8,401.8,5.4"/>
<path style="fill:#231F20;" d="M443.7,5.4c0,1-0.8,1.7-1.7,1.7c-1,0-1.7-0.8-1.7-1.7s0.8-1.7,1.7-1.7C442.9,3.7,443.7,4.5,443.7,5.4
	"/>
<path style="fill:#231F20;" d="M168.3,5.4c0,1.8-1.5,3.3-3.3,3.3c-1.8,0-3.3-1.5-3.3-3.3c0-1.8,1.5-3.3,3.3-3.3
	C166.8,2.2,168.3,3.6,168.3,5.4"/>
<path style="fill:#231F20;" d="M145.4,5.4c0,1-0.8,1.7-1.7,1.7c-1,0-1.7-0.8-1.7-1.7s0.8-1.7,1.7-1.7C144.6,3.7,145.4,4.5,145.4,5.4
	"/>
<path style="fill:#231F20;" d="M65.6,5.4c0,1-0.8,1.7-1.7,1.7c-1,0-1.7-0.8-1.7-1.7s0.8-1.7,1.7-1.7C64.8,3.7,65.6,4.5,65.6,5.4"/>
<path style="fill:#231F20;" d="M60.9,5.4c0,1-0.8,1.7-1.7,1.7c-1,0-1.7-0.8-1.7-1.7s0.8-1.7,1.7-1.7C60.1,3.7,60.9,4.5,60.9,5.4"/>
<path style="fill:#231F20;" d="M78.2,5.4c0,1-0.8,1.7-1.7,1.7s-1.7-0.8-1.7-1.7s0.8-1.7,1.7-1.7S78.2,4.5,78.2,5.4"/>
<path style="fill:#231F20;" d="M102.8,5.4c0,1-0.8,1.7-1.7,1.7c-1,0-1.7-0.8-1.7-1.7s0.8-1.7,1.7-1.7C102,3.7,102.8,4.5,102.8,5.4"
	/>
<path style="fill:#231F20;" d="M188.1,5.4c0,1.8-1.4,3.2-3.2,3.2s-3.2-1.4-3.2-3.2c0-1.8,1.4-3.2,3.2-3.2S188.1,3.7,188.1,5.4"/>
<path style="fill:#231F20;" d="M205,5.4c0,1.9-1.6,3.5-3.5,3.5c-1.9,0-3.5-1.6-3.5-3.5c0-1.9,1.6-3.5,3.5-3.5
	C203.5,2,205,3.5,205,5.4"/>
<path style="fill:#231F20;" d="M46.7,5.4c0,1-0.8,1.7-1.7,1.7c-1,0-1.7-0.8-1.7-1.7S44,3.7,45,3.7C45.9,3.7,46.7,4.5,46.7,5.4"/>
<path style="fill:#231F20;" d="M415.1,5.4c0,1.5-1.2,2.7-2.7,2.7s-2.7-1.2-2.7-2.7c0-1.5,1.2-2.7,2.7-2.7S415.1,3.9,415.1,5.4"/>
</svg>
