<?xml version="1.0" encoding="utf-8"?>
<!-- Generator: Adobe Illustrator 20.0.0, SVG Export Plug-In . SVG Version: 6.00 Build 0)  -->
<svg version="1.1" id="Layer_1" xmlns="http://www.w3.org/2000/svg" xmlns:xlink="http://www.w3.org/1999/xlink" x="0px" y="0px"
	 viewBox="0 0 136 10.6" style="enable-background:new 0 0 136 10.6;" xml:space="preserve">
<g>
	<path d="M8.3,0.7h0.3l0.1,2.8H8.3c-0.2-0.7-0.5-1.3-1-1.7C6.8,1.4,6.2,1.2,5.5,1.2C5,1.2,4.6,1.3,4.2,1.5C3.8,1.7,3.5,2,3.2,2.3
		C3,2.7,2.8,3.1,2.6,3.6C2.5,4.2,2.4,4.7,2.4,5.4c0,1.3,0.3,2.3,0.8,3s1.3,1,2.3,1c1.5,0,2.5-0.8,3-2.5H9v3H8.6L8.3,9
		c-0.8,0.7-1.9,1.1-3,1.1C4.6,10.1,4,10,3.4,9.7C2.9,9.5,2.4,9.2,2,8.8S1.3,7.9,1.1,7.4S0.8,6.2,0.8,5.5c0-0.7,0.1-1.4,0.3-2
		c0.2-0.6,0.5-1.1,0.9-1.5c0.4-0.4,0.9-0.8,1.5-1s1.2-0.4,1.9-0.4c0.5,0,0.9,0.1,1.4,0.2c0.4,0.1,0.9,0.4,1.4,0.7L8.3,0.7z"/>
	<path d="M15.4,0.6c0.7,0,1.4,0.1,2,0.4s1.1,0.6,1.6,1c0.4,0.4,0.8,0.9,1.1,1.5c0.3,0.6,0.4,1.2,0.4,1.9c0,0.6-0.1,1.3-0.4,1.8
		c-0.3,0.6-0.6,1.1-1.1,1.5c-0.4,0.4-1,0.8-1.6,1c-0.6,0.2-1.3,0.4-2,0.4c-0.7,0-1.3-0.1-2-0.4c-0.6-0.2-1.1-0.6-1.6-1
		c-0.4-0.4-0.8-0.9-1.1-1.5c-0.3-0.6-0.4-1.2-0.4-1.8c0-0.7,0.1-1.3,0.4-1.9s0.6-1.1,1.1-1.5c0.4-0.4,1-0.8,1.6-1S14.7,0.6,15.4,0.6
		z M15.4,9.4c0.5,0,1-0.1,1.4-0.3s0.8-0.4,1.1-0.8c0.3-0.3,0.5-0.8,0.7-1.3c0.2-0.5,0.2-1,0.2-1.7c0-0.6-0.1-1.2-0.2-1.7
		c-0.2-0.5-0.4-1-0.7-1.3c-0.3-0.4-0.7-0.6-1.1-0.8c-0.4-0.2-0.9-0.3-1.4-0.3c-0.5,0-1,0.1-1.4,0.3c-0.4,0.2-0.8,0.5-1.1,0.8
		s-0.5,0.8-0.7,1.3s-0.2,1.1-0.2,1.7c0,0.6,0.1,1.2,0.2,1.7c0.2,0.5,0.4,0.9,0.7,1.3s0.7,0.6,1.1,0.8C14.4,9.3,14.9,9.4,15.4,9.4z"
		/>
	<path d="M21.4,9.9V9.5c0.3,0,0.5,0,0.7-0.1s0.3-0.1,0.4-0.2s0.2-0.2,0.2-0.4c0-0.2,0.1-0.4,0.1-0.7V2.5c0-0.3,0-0.5,0-0.7
		c0-0.2-0.1-0.3-0.2-0.4s-0.2-0.2-0.4-0.2s-0.4-0.1-0.6-0.1V0.7h4.2c0.7,0,1.4,0.1,2,0.4c0.6,0.2,1.1,0.6,1.6,1
		c0.4,0.4,0.8,0.9,1,1.5s0.4,1.2,0.4,1.9c0,0.7-0.1,1.3-0.3,1.8c-0.2,0.5-0.6,1-1,1.4c-0.4,0.4-0.9,0.7-1.5,0.9
		c-0.6,0.2-1.2,0.3-1.9,0.3H21.4z M24.3,1.3c-0.1,0-0.2,0.1-0.2,0.2V8c0,0.9,0.6,1.4,1.8,1.4c1.1,0,1.9-0.3,2.5-1s0.9-1.6,0.9-2.9
		c0-0.7-0.1-1.3-0.2-1.8c-0.2-0.5-0.4-1-0.7-1.3C28,2,27.6,1.8,27.2,1.6c-0.4-0.2-0.9-0.3-1.4-0.3H24.3z"/>
	<path d="M34.5,4.9c0.4,0,0.8,0,1.1-0.1c0.3-0.1,0.5-0.1,0.7-0.2s0.3-0.3,0.4-0.4c0.1-0.2,0.1-0.4,0.1-0.6h0.4v3.3h-0.4
		c0-0.2,0-0.4-0.1-0.6c-0.1-0.2-0.2-0.3-0.4-0.4c-0.2-0.1-0.4-0.2-0.7-0.3s-0.7-0.1-1.1-0.1v2.7c0,0.3,0,0.5,0.1,0.7
		s0.2,0.3,0.3,0.4c0.2,0.1,0.4,0.2,0.6,0.2c0.3,0,0.6,0.1,0.9,0.1c0.4,0,0.8,0,1.1-0.1s0.5-0.2,0.7-0.3c0.2-0.1,0.4-0.3,0.5-0.6
		s0.2-0.5,0.3-0.9h0.5l-0.2,2.4h-7.5V9.5c0.3,0,0.5,0,0.7-0.1c0.2,0,0.3-0.1,0.4-0.2c0.1-0.1,0.2-0.2,0.2-0.4c0-0.2,0-0.4,0-0.7V2.5
		c0-0.3,0-0.5,0-0.7c0-0.2-0.1-0.3-0.2-0.4s-0.2-0.2-0.4-0.2c-0.2,0-0.4-0.1-0.6-0.1V0.7h6.9l0.1,2.1h-0.4c0-0.3-0.1-0.6-0.2-0.8
		c-0.1-0.2-0.3-0.4-0.4-0.5s-0.4-0.2-0.7-0.3c-0.3,0-0.6-0.1-1-0.1h-1.5c-0.1,0-0.2,0.1-0.2,0.2V4.9z"/>
	<path d="M48.9,6.6h-3.2c-0.1,0.3-0.3,0.6-0.3,0.9c-0.1,0.3-0.2,0.5-0.2,0.7C45,8.3,45,8.5,45,8.6s0,0.2,0,0.3
		c0,0.2,0.1,0.4,0.2,0.5s0.4,0.1,0.7,0.1v0.5H43V9.5c0.2,0,0.3-0.1,0.5-0.1c0.1,0,0.2-0.1,0.3-0.2C43.9,9.1,44,9.1,44,8.9
		c0.1-0.1,0.1-0.3,0.2-0.4l3.1-7.8h0.5l2.7,6.8c0.2,0.4,0.3,0.8,0.5,1.1c0.1,0.3,0.3,0.5,0.4,0.6c0.1,0.1,0.3,0.2,0.4,0.3
		c0.1,0,0.3,0.1,0.5,0.1v0.5h-3.9V9.5c0.4,0,0.7,0,0.9-0.1s0.2-0.2,0.2-0.4c0-0.1,0-0.2,0-0.2c0-0.1,0-0.1,0-0.2
		c0-0.1,0-0.2-0.1-0.3c0-0.1-0.1-0.2-0.1-0.4L48.9,6.6z M45.9,6h2.7l-1.3-3.5L45.9,6z"/>
	<path d="M60.6,10.1l-5.7-7.5h0v5.1c0,0.4,0,0.7,0,0.9c0,0.2,0.1,0.4,0.2,0.5s0.2,0.2,0.4,0.3c0.2,0,0.4,0.1,0.6,0.1v0.5h-3.2V9.5
		c0.3,0,0.5,0,0.7-0.1c0.2,0,0.3-0.1,0.4-0.2C54,9,54.1,8.9,54.1,8.7c0-0.2,0-0.5,0-0.9V2.9c0-0.3,0-0.6,0-0.8
		c0-0.2-0.1-0.4-0.2-0.5s-0.2-0.2-0.4-0.3c-0.2-0.1-0.4-0.1-0.6-0.1V0.7h2.4l5.2,7h0V3c0-0.4,0-0.7,0-0.9c0-0.2-0.1-0.4-0.2-0.5
		s-0.2-0.2-0.4-0.3c-0.2,0-0.4-0.1-0.6-0.1V0.7h3.2v0.5c-0.3,0-0.5,0-0.7,0.1s-0.3,0.1-0.4,0.2c-0.1,0.1-0.2,0.3-0.2,0.5
		c0,0.2,0,0.5,0,0.9v7.2H60.6z"/>
	<path d="M63.6,9.9V9.5c0.3,0,0.5,0,0.7-0.1s0.3-0.1,0.4-0.2S64.9,9,65,8.8C65,8.6,65,8.4,65,8.1V2.5c0-0.3,0-0.5,0-0.7
		c0-0.2-0.1-0.3-0.2-0.4s-0.2-0.2-0.4-0.2s-0.4-0.1-0.6-0.1V0.7H68c0.7,0,1.4,0.1,2,0.4c0.6,0.2,1.1,0.6,1.6,1
		c0.4,0.4,0.8,0.9,1,1.5S73,4.8,73,5.5c0,0.7-0.1,1.3-0.3,1.8c-0.2,0.5-0.6,1-1,1.4c-0.4,0.4-0.9,0.7-1.5,0.9
		c-0.6,0.2-1.2,0.3-1.9,0.3H63.6z M66.5,1.3c-0.1,0-0.2,0.1-0.2,0.2V8c0,0.9,0.6,1.4,1.8,1.4c1.1,0,1.9-0.3,2.5-1s0.9-1.6,0.9-2.9
		c0-0.7-0.1-1.3-0.2-1.8c-0.2-0.5-0.4-1-0.7-1.3c-0.3-0.4-0.7-0.6-1.1-0.8C69,1.4,68.5,1.3,68,1.3H66.5z"/>
	<path d="M86.2,3h-0.5c0-0.3-0.1-0.6-0.2-0.9s-0.2-0.4-0.4-0.5c-0.2-0.1-0.4-0.2-0.6-0.3c-0.2-0.1-0.5-0.1-0.9-0.1
		c-0.3,0-0.5,0-0.7,0c-0.2,0-0.3,0-0.4,0.1c-0.1,0-0.2,0.1-0.2,0.1c0,0,0,0.1,0,0.2V8c0,0.3,0,0.5,0.1,0.7s0.1,0.3,0.2,0.5
		c0.1,0.1,0.3,0.2,0.5,0.3s0.5,0.1,0.8,0.1v0.5h-4.5V9.5c0.3,0,0.6,0,0.8-0.1s0.4-0.1,0.5-0.3c0.1-0.1,0.2-0.3,0.2-0.5
		c0-0.2,0.1-0.4,0.1-0.7V1.6c0-0.1,0-0.1,0-0.2c0,0-0.1-0.1-0.2-0.1c-0.1,0-0.2-0.1-0.4-0.1c-0.2,0-0.4,0-0.6,0c-0.3,0-0.6,0-0.9,0
		s-0.5,0.1-0.7,0.2C78,1.6,77.8,1.8,77.7,2c-0.1,0.2-0.2,0.6-0.2,1H77V0.7h9.1L86.2,3z"/>
	<path d="M95.7,8c0,0.3,0,0.6,0,0.7c0,0.2,0.1,0.3,0.2,0.4c0.1,0.1,0.2,0.2,0.4,0.2c0.2,0,0.4,0.1,0.7,0.1v0.5h-3.9V9.5
		c0.3,0,0.5,0,0.7-0.1s0.3-0.1,0.4-0.2c0.1-0.1,0.2-0.2,0.2-0.4c0-0.2,0-0.4,0-0.7V5.5h-4.9V8c0,0.3,0,0.6,0,0.7
		c0,0.2,0.1,0.3,0.2,0.4c0.1,0.1,0.2,0.2,0.4,0.2c0.2,0,0.4,0.1,0.7,0.1v0.5H87V9.5c0.3,0,0.5,0,0.7-0.1c0.2,0,0.3-0.1,0.4-0.2
		c0.1-0.1,0.2-0.2,0.2-0.4c0-0.2,0-0.4,0-0.7V2.5c0-0.3,0-0.5,0-0.7c0-0.2-0.1-0.3-0.2-0.4s-0.2-0.2-0.4-0.2c-0.2,0-0.4-0.1-0.6-0.1
		V0.7h3.6v0.5c-0.3,0-0.5,0-0.6,0.1c-0.2,0-0.3,0.1-0.4,0.2s-0.1,0.2-0.2,0.4c0,0.2,0,0.4,0,0.7v2.3h4.9V2.5c0-0.3,0-0.5,0-0.7
		c0-0.2-0.1-0.3-0.2-0.4S94,1.3,93.8,1.2s-0.4-0.1-0.6-0.1V0.7h3.6v0.5c-0.3,0-0.5,0-0.6,0.1c-0.2,0-0.3,0.1-0.4,0.2
		s-0.1,0.2-0.2,0.4c0,0.2,0,0.4,0,0.7V8z"/>
	<path d="M100.7,4.9c0.4,0,0.8,0,1.1-0.1c0.3-0.1,0.5-0.1,0.7-0.2s0.3-0.3,0.4-0.4c0.1-0.2,0.1-0.4,0.1-0.6h0.4v3.3h-0.4
		c0-0.2,0-0.4-0.1-0.6c-0.1-0.2-0.2-0.3-0.4-0.4c-0.2-0.1-0.4-0.2-0.7-0.3s-0.7-0.1-1.1-0.1v2.7c0,0.3,0,0.5,0.1,0.7
		s0.2,0.3,0.3,0.4c0.2,0.1,0.4,0.2,0.6,0.2c0.3,0,0.6,0.1,0.9,0.1c0.4,0,0.8,0,1.1-0.1s0.5-0.2,0.7-0.3c0.2-0.1,0.4-0.3,0.5-0.6
		s0.2-0.5,0.3-0.9h0.5l-0.2,2.4h-7.5V9.5c0.3,0,0.5,0,0.7-0.1c0.2,0,0.3-0.1,0.4-0.2c0.1-0.1,0.2-0.2,0.2-0.4c0-0.2,0-0.4,0-0.7V2.5
		c0-0.3,0-0.5,0-0.7c0-0.2-0.1-0.3-0.2-0.4S99,1.3,98.8,1.2c-0.2,0-0.4-0.1-0.6-0.1V0.7h6.9l0.1,2.1h-0.4c0-0.3-0.1-0.6-0.2-0.8
		c-0.1-0.2-0.3-0.4-0.4-0.5s-0.4-0.2-0.7-0.3c-0.3,0-0.6-0.1-1-0.1h-1.5c-0.1,0-0.2,0.1-0.2,0.2V4.9z"/>
	<path d="M111.9,0.6c0.7,0,1.4,0.1,2,0.4s1.1,0.6,1.6,1c0.4,0.4,0.8,0.9,1.1,1.5c0.3,0.6,0.4,1.2,0.4,1.9c0,0.6-0.1,1.3-0.4,1.8
		c-0.3,0.6-0.6,1.1-1.1,1.5c-0.4,0.4-1,0.8-1.6,1c-0.6,0.2-1.3,0.4-2,0.4c-0.7,0-1.3-0.1-2-0.4c-0.6-0.2-1.1-0.6-1.6-1
		c-0.4-0.4-0.8-0.9-1.1-1.5c-0.3-0.6-0.4-1.2-0.4-1.8c0-0.7,0.1-1.3,0.4-1.9s0.6-1.1,1.1-1.5c0.4-0.4,1-0.8,1.6-1
		S111.2,0.6,111.9,0.6z M111.9,9.4c0.5,0,1-0.1,1.4-0.3s0.8-0.4,1.1-0.8c0.3-0.3,0.5-0.8,0.7-1.3c0.2-0.5,0.2-1,0.2-1.7
		c0-0.6-0.1-1.2-0.2-1.7c-0.2-0.5-0.4-1-0.7-1.3c-0.3-0.4-0.7-0.6-1.1-0.8c-0.4-0.2-0.9-0.3-1.4-0.3c-0.5,0-1,0.1-1.4,0.3
		c-0.4,0.2-0.8,0.5-1.1,0.8s-0.5,0.8-0.7,1.3s-0.2,1.1-0.2,1.7c0,0.6,0.1,1.2,0.2,1.7c0.2,0.5,0.4,0.9,0.7,1.3s0.7,0.6,1.1,0.8
		C110.9,9.3,111.4,9.4,111.9,9.4z"/>
	<path d="M125.3,3c0,0.6-0.2,1.2-0.6,1.6c-0.4,0.4-1,0.7-1.8,0.9l2.7,3.2c0.2,0.3,0.5,0.5,0.7,0.6c0.3,0.1,0.6,0.2,0.9,0.3v0.5h-2.3
		L122,6.2c-0.1-0.1-0.2-0.2-0.3-0.3c-0.1-0.1-0.2-0.1-0.3-0.2s-0.2-0.1-0.3-0.1c-0.1,0-0.3,0-0.5,0v2.5c0,0.3,0,0.5,0.1,0.7
		c0,0.2,0.1,0.3,0.2,0.4c0.1,0.1,0.3,0.2,0.5,0.2c0.2,0,0.5,0.1,0.9,0.1v0.5H118V9.5c0.3,0,0.5,0,0.7-0.1c0.2,0,0.3-0.1,0.4-0.2
		c0.1-0.1,0.2-0.2,0.2-0.4c0-0.2,0-0.4,0-0.7V2.5c0-0.3,0-0.5,0-0.7c0-0.2-0.1-0.3-0.2-0.4s-0.2-0.2-0.4-0.2c-0.2,0-0.4-0.1-0.6-0.1
		V0.7h3.8c1.1,0,2,0.2,2.6,0.6C125,1.7,125.3,2.3,125.3,3z M120.6,5h0.9c0.8,0,1.4-0.1,1.8-0.4s0.6-0.8,0.6-1.4
		c0-0.6-0.2-1.1-0.5-1.4c-0.3-0.3-0.8-0.4-1.4-0.4h-1.1c-0.1,0-0.2,0.1-0.2,0.2V5z"/>
	<path d="M127.8,2.2c-0.1-0.2-0.2-0.4-0.3-0.5c-0.1-0.1-0.2-0.2-0.3-0.3c-0.1-0.1-0.2-0.1-0.3-0.2c-0.1,0-0.3,0-0.4,0V0.7h3.8v0.5
		c-0.4,0-0.7,0-0.8,0.1s-0.2,0.2-0.2,0.3c0,0.2,0.1,0.4,0.3,0.7l1.9,3.2h0l1.4-2.3c0.3-0.4,0.4-0.8,0.5-1s0.2-0.4,0.2-0.6
		s-0.1-0.3-0.2-0.3c-0.1-0.1-0.3-0.1-0.6-0.1V0.7h2.7v0.5c-0.2,0-0.3,0-0.5,0.1s-0.3,0.1-0.4,0.3s-0.3,0.3-0.5,0.6
		c-0.2,0.3-0.4,0.6-0.6,1l-1.8,3.1v1.4c0,0.4,0,0.7,0,0.9c0,0.2,0.1,0.4,0.2,0.5c0.1,0.1,0.2,0.2,0.4,0.3c0.2,0,0.4,0.1,0.7,0.1v0.5
		h-3.9V9.5c0.3,0,0.5,0,0.7-0.1c0.2,0,0.3-0.1,0.4-0.3c0.1-0.1,0.2-0.3,0.2-0.5c0-0.2,0-0.5,0-0.9V6.3L127.8,2.2z"/>
</g>
</svg>
