<?xml version="1.0" encoding="utf-8"?>
<!-- Generator: Adobe Illustrator 20.0.0, SVG Export Plug-In . SVG Version: 6.00 Build 0)  -->
<svg version="1.1" id="Layer_1" xmlns="http://www.w3.org/2000/svg" xmlns:xlink="http://www.w3.org/1999/xlink" x="0px" y="0px"
	 viewBox="0 0 454.9 11.1" style="enable-background:new 0 0 454.9 11.1;" xml:space="preserve">
<line style="fill:none;stroke:#231F20;stroke-width:0.5;stroke-miterlimit:10;" x1="0" y1="5.6" x2="454.9" y2="5.6"/>
<path style="fill:#231F20;" d="M62.1,5.6c0,1.6-1.3,3-3,3c-1.6,0-3-1.3-3-3c0-1.6,1.3-3,3-3C60.8,2.6,62.1,3.9,62.1,5.6"/>
<path style="fill:#231F20;" d="M91.4,5.6c0,1.6-1.3,3-3,3s-3-1.3-3-3c0-1.6,1.3-3,3-3S91.4,3.9,91.4,5.6"/>
<path style="fill:#231F20;" d="M118.5,5.6c0,1.6-1.3,3-3,3c-1.6,0-3-1.3-3-3c0-1.6,1.3-3,3-3C117.2,2.6,118.5,3.9,118.5,5.6"/>
<path style="fill:#231F20;" d="M76.4,5.6c0,1.6-1.3,3-3,3s-3-1.3-3-3c0-1.6,1.3-3,3-3S76.4,3.9,76.4,5.6"/>
<path style="fill:#231F20;" d="M136.4,5.6c0,1.6-1.3,3-3,3c-1.6,0-3-1.3-3-3c0-1.6,1.3-3,3-3C135.1,2.6,136.4,3.9,136.4,5.6"/>
<path style="fill:#231F20;" d="M224.2,5.6c0,1.6-1.3,3-3,3s-3-1.3-3-3c0-1.6,1.3-3,3-3S224.2,3.9,224.2,5.6"/>
<path style="fill:#231F20;" d="M234.7,5.6c0,1.6-1.3,3-3,3c-1.6,0-3-1.3-3-3c0-1.6,1.3-3,3-3C233.4,2.6,234.7,3.9,234.7,5.6"/>
<path style="fill:#231F20;" d="M256.3,5.6c0,1.6-1.3,3-3,3c-1.6,0-3-1.3-3-3c0-1.6,1.3-3,3-3C255,2.6,256.3,3.9,256.3,5.6"/>
<path style="fill:#231F20;" d="M277.9,5.6c0,1.6-1.3,3-3,3c-1.6,0-3-1.3-3-3c0-1.6,1.3-3,3-3C276.5,2.6,277.9,3.9,277.9,5.6"/>
<path style="fill:#231F20;" d="M333.4,5.6c0,1.6-1.3,3-3,3s-3-1.3-3-3c0-1.6,1.3-3,3-3S333.4,3.9,333.4,5.6"/>
<path style="fill:#231F20;" d="M348.5,5.6c0,1.6-1.3,3-3,3c-1.6,0-3-1.3-3-3c0-1.6,1.3-3,3-3C347.2,2.6,348.5,3.9,348.5,5.6"/>
<path style="fill:#231F20;" d="M364.1,5.6c0,2.6-2.1,4.7-4.7,4.7c-2.6,0-4.7-2.1-4.7-4.7c0-2.6,2.1-4.7,4.7-4.7
	C362,0.8,364.1,2.9,364.1,5.6"/>
<path style="fill:#231F20;" d="M379.5,5.6c0,2.1-1.7,3.8-3.8,3.8c-2.1,0-3.8-1.7-3.8-3.8s1.7-3.8,3.8-3.8
	C377.8,1.7,379.5,3.4,379.5,5.6"/>
<path style="fill:#231F20;" d="M399.3,5.6c0,3.1-2.5,5.6-5.6,5.6c-3.1,0-5.6-2.5-5.6-5.6c0-3.1,2.5-5.6,5.6-5.6
	C396.8,0,399.3,2.5,399.3,5.6"/>
<path style="fill:#231F20;" d="M301.7,5.6c0,1-0.8,1.7-1.7,1.7c-1,0-1.7-0.8-1.7-1.7s0.8-1.7,1.7-1.7C300.9,3.8,301.7,4.6,301.7,5.6
	"/>
<path style="fill:#231F20;" d="M307.1,5.6c0,1-0.8,1.7-1.7,1.7c-1,0-1.7-0.8-1.7-1.7s0.8-1.7,1.7-1.7C306.3,3.8,307.1,4.6,307.1,5.6
	"/>
<path style="fill:#231F20;" d="M315.8,5.6c0,1-0.8,1.7-1.7,1.7c-1,0-1.7-0.8-1.7-1.7s0.8-1.7,1.7-1.7C315,3.8,315.8,4.6,315.8,5.6"
	/>
<path style="fill:#231F20;" d="M170,5.6c0,1-0.8,1.7-1.7,1.7c-1,0-1.7-0.8-1.7-1.7s0.8-1.7,1.7-1.7C169.2,3.8,170,4.6,170,5.6"/>
<path style="fill:#231F20;" d="M29.2,5.6c0,1-0.8,1.7-1.7,1.7c-1,0-1.7-0.8-1.7-1.7s0.8-1.7,1.7-1.7C28.4,3.8,29.2,4.6,29.2,5.6"/>
<path style="fill:#231F20;" d="M41.9,5.6c0,1-0.8,1.7-1.7,1.7c-1,0-1.7-0.8-1.7-1.7s0.8-1.7,1.7-1.7C41.1,3.8,41.9,4.6,41.9,5.6"/>
<path style="fill:#231F20;" d="M36.3,5.6c0,1-0.8,1.7-1.7,1.7c-1,0-1.7-0.8-1.7-1.7s0.8-1.7,1.7-1.7C35.5,3.8,36.3,4.6,36.3,5.6"/>
<path style="fill:#231F20;" d="M416.6,5.6c0,2.4-1.9,4.3-4.3,4.3c-2.4,0-4.3-1.9-4.3-4.3s1.9-4.3,4.3-4.3
	C414.7,1.3,416.6,3.2,416.6,5.6"/>
</svg>
