<?xml version="1.0" encoding="utf-8"?>
<!-- Generator: Adobe Illustrator 20.0.0, SVG Export Plug-In . SVG Version: 6.00 Build 0)  -->
<svg version="1.1" id="Layer_1" xmlns="http://www.w3.org/2000/svg" xmlns:xlink="http://www.w3.org/1999/xlink" x="0px" y="0px"
	 viewBox="0 0 424.1 4.8" style="enable-background:new 0 0 424.1 4.8;" xml:space="preserve">
<path style="fill-rule:evenodd;clip-rule:evenodd;" d="M421.7,1.2L421.7,1.2c-0.1,0-0.1,0-0.2,0h-0.2c0,0-0.1,0-0.2,0
	c0,0-0.1,0-0.2,0c0,0-0.1,0-0.2,0c0,0,0-0.5,0-0.5c-0.1,0-0.1,0-0.2,0c0,0-0.1,0-0.2,0c0,0,0,0.5,0,0.5c0,0-0.1,0-0.2,0
	c-0.1,0-0.1,0-0.2,0c0,0-0.1,0-0.2,0c-0.1,0-0.1,0-0.2,0h-0.3h-0.2h-0.2c-0.1,0-0.1,0-0.2,0H419c-0.1,0-0.1,0-0.2,0h-0.2h-0.3h-0.2
	c-0.1,0-0.2,0-0.3,0h-0.2c0,0-0.1,0-0.2,0c-0.1,0-0.1,0-0.2,0h-0.2h-0.3h-0.2c-0.1,0-0.1,0-0.2,0c-0.1,0-0.1,0-0.2,0
	c0,0,0-0.5,0-0.5c0,0-0.1,0-0.2,0c0,0,0,0.5,0,0.5c0,0-0.1,0-0.2,0h-0.2c-0.1,0-0.1,0-0.2,0c-0.1,0-0.1,0-0.2,0c0,0-0.1,0-0.2,0
	c0,0,0-0.5,0-0.5c0,0-0.1,0-0.2,0c0,0-0.1,0-0.2,0c0,0,0,0.5,0,0.5c0,0-0.1,0-0.2,0c0,0-0.1,0-0.2,0c0,0-0.1,0-0.2,0h-0.2
	c-0.1,0-0.1,0-0.2,0c0,0-0.1,0.1-0.2,0c0-0.1,0-0.4,0-0.5c0,0-0.1,0-0.2,0c0,0-0.1,0-0.2,0c0,0.1,0,0.4,0,0.5c0,0-0.1,0-0.2,0
	c0,0-0.1,0-0.2,0c-0.1,0-0.2,0-0.3,0h-0.2h-0.2c-0.1,0-0.1,0-0.2,0c-0.1,0-0.1,0-0.2,0c0,0-0.1,0-0.2,0c0,0,0,0.5,0,0.5
	c0,0-0.2,0-0.2,0c0,0,0-0.5,0-0.5c0,0-0.1,0-0.2,0c0,0-0.1-0.1-0.2,0c0,0,0,0.5,0,0.5c0,0-0.1,0-0.2,0c0,0-0.1,0-0.2,0
	c0,0,0-0.5,0-0.5c-0.1,0-0.1,0-0.2,0h-0.2c0,0-0.1,0-0.2,0c0,0,0,0.5,0,0.5c0,0-0.1,0-0.2,0c-0.1,0-0.1,0-0.2,0c0,0,0-0.5,0-0.5
	c0,0-0.1,0-0.2,0c0,0-0.1,0-0.2,0c0,0-0.1,0-0.2,0c-0.1,0-0.1,0-0.2,0s-0.1,0-0.2,0c-0.1,0-0.1,0-0.2,0h-0.2H410h-0.3h-0.2
	c-0.1,0-0.2,0-0.3,0h-0.2h-0.2c-0.1,0-0.1,0-0.2,0h-0.2c-0.1,0-0.1,0-0.2,0c0,0-0.1,0-0.2,0c0,0-0.1-0.1-0.2,0c0,0.1,0,0.4,0,0.5
	c0,0-0.1,0-0.2,0c0,0,0-0.5,0-0.5c0,0-0.1,0-0.2,0c0,0-0.1,0-0.2,0c0,0-0.1,0-0.2,0h-0.2h-0.2c0,0-0.1,0-0.2,0h-0.2h-0.2h-0.3
	c-0.1,0-0.1,0-0.2,0H406c-0.1,0-0.1,0-0.2,0h-0.2h-0.2c0,0-0.1,0.1-0.2,0c0-0.1,0-0.4,0-0.5c0,0-0.1,0-0.2,0c0,0,0,0.5,0,0.5
	c0,0-0.1,0-0.2,0c-0.1,0-0.1,0-0.2,0c-0.1,0-0.1,0-0.2,0c-0.1,0-0.2,0-0.3,0h-0.2h-0.2H404c-0.1,0-0.1,0-0.2,0c0,0-0.1,0-0.2,0
	c0,0,0-0.5,0-0.5c0,0-0.1,0-0.2,0c0,0,0,0.5,0,0.5c0,0-0.1,0-0.2,0c-0.1,0-0.2,0-0.3,0h-0.2c0,0-0.1,0-0.2,0c-0.1,0-0.1,0-0.2,0
	c0,0-0.1,0.1-0.2,0c0-0.1,0-0.4,0-0.5c0,0-0.1,0-0.2,0c0,0,0,0.5,0,0.5c0,0-0.1,0-0.2,0c-0.1,0-0.1,0-0.2,0c0,0-0.1,0-0.2,0
	c-0.1,0-0.2,0-0.3,0h-0.2h-0.2c-0.1,0-0.1,0-0.2,0c0,0,0-0.5,0-0.5c0-0.1-0.1,0-0.2,0c0,0-0.1,0-0.2,0c0,0.1,0,0.4,0,0.5
	c0,0-0.1,0-0.2,0c-0.1,0-0.1,0-0.2,0h-0.2c0,0-0.1,0-0.2,0c0,0,0-0.5,0-0.5c0,0-0.1,0-0.2,0c-0.1,0-0.1,0-0.2,0c0,0,0,0.5,0,0.5
	c0,0-0.1,0-0.2,0c0,0,0-0.5,0-0.5c0,0-0.1,0-0.2,0c0,0,0,0.5,0,0.5c0,0-0.1,0-0.2,0c0-0.1,0-0.4,0-0.5c0,0-0.1,0-0.2,0
	c0,0,0,0.5,0,0.5c0,0-0.1,0-0.2,0c-0.1,0-0.1,0-0.2,0c-0.1,0-0.1,0-0.2,0h-0.2h-0.2c0,0-0.1,0-0.2,0c-0.1,0-0.1,0-0.2,0
	c0,0-0.1,0.1-0.2,0c0-0.1,0-0.4,0-0.5c0,0-0.1,0-0.2,0c0,0-0.1-0.1-0.2,0c0,0.1,0,0.4,0,0.5c0,0-0.1,0-0.2,0c-0.1,0-0.1,0-0.2,0
	h-0.3h-0.2h-0.2c-0.1,0-0.1,0-0.2,0c0,0,0-0.5,0-0.5c0,0-0.1,0-0.2,0c0,0-0.1,0-0.2,0c0,0,0,0.5,0,0.5c0,0-0.1,0-0.2,0
	c-0.1,0-0.1,0-0.2,0c-0.1,0-0.1,0-0.2,0h-0.2h-0.2h-0.2c-0.1,0-0.1,0-0.2,0c0,0,0-0.5,0-0.5c0,0-0.1,0-0.2,0c0,0,0,0.5,0,0.5
	c0,0-0.1,0-0.2,0c-0.1,0-0.1,0-0.2,0h-0.2c0,0-0.1,0-0.2,0h-0.3c-0.1,0-0.1,0-0.2,0h-0.3h-0.2c-0.1,0-0.2,0-0.3,0h-0.2
	c0,0-0.1,0-0.2,0c-0.1,0-0.1,0-0.2,0c0,0,0-0.5,0-0.5c0-0.1-0.1,0-0.2,0c0,0-0.1,0-0.2,0c0,0.1,0,0.4,0,0.5c0,0-0.1,0-0.2,0
	c-0.1,0-0.1,0-0.2,0c-0.1,0-0.2,0-0.3,0h-0.2c-0.1,0-0.1,0-0.2,0c-0.1,0-0.1,0-0.2,0c0,0-0.1,0-0.2,0c0-0.1,0-0.4,0-0.5
	c0-0.1-0.1,0-0.2,0c0,0-0.1,0-0.2,0c0,0-0.1,0-0.2,0c0,0,0,0.5,0,0.5c0,0-0.1,0-0.2,0c-0.1,0-0.2,0-0.3,0h-0.2H390
	c-0.1,0-0.1,0-0.2,0h-0.2h-0.2h-0.2h-0.2c-0.1,0-0.1,0-0.2,0c-0.1,0-0.1,0-0.2,0c0,0-0.1,0-0.2,0c0,0,0-0.5,0-0.5c0,0-0.1,0-0.2,0
	c0,0.1,0,0.4,0,0.5c0,0-0.1,0-0.2,0c-0.1,0-0.1,0-0.2,0h-0.2c0,0-0.1,0-0.2,0c0,0,0-0.5,0-0.5c0,0-0.1,0-0.2,0c0,0-0.1,0-0.2,0
	c0,0-0.1,0-0.2,0c0,0.1,0,0.4,0,0.5c0,0-0.1,0-0.2,0c0,0-0.1,0-0.2,0c0-0.1,0-0.4,0-0.5c0,0-0.1,0-0.2,0c0,0-0.1,0-0.2,0
	c0,0.1,0,0.5,0,0.5c0,0-0.1,0-0.2,0c0,0-0.1,0-0.2,0c-0.1,0-0.1,0-0.2,0c0,0-0.1,0-0.2,0H386h-0.2h-0.2c-0.1,0-0.1,0-0.2,0h-0.2
	h-0.2c0,0-0.1,0-0.2,0c0,0-0.1,0-0.2,0c0,0-0.1,0-0.2,0c0,0,0-0.5,0-0.5c0,0-0.1,0-0.2,0c0,0.1,0,0.4,0,0.5c0,0-0.1,0-0.2,0
	c0,0-0.1,0-0.2,0c0-0.1,0-0.4,0-0.5c0,0-0.1,0-0.2,0c0,0-0.1,0-0.2,0c0,0.1,0,0.5,0,0.5c0,0-0.1,0-0.2,0c-0.1,0-0.1,0-0.2,0
	c-0.1,0-0.1,0-0.2,0c0,0-0.1,0-0.2,0c0-0.1,0-0.4,0-0.5c0,0-0.1,0-0.2,0c0,0-0.1,0-0.2,0c0,0.1,0,0.4,0,0.5c0,0-0.1,0-0.2,0
	c0,0-0.1,0-0.2,0c0,0-0.1,0-0.2,0c0,0,0-0.5,0-0.5c0,0-0.1,0-0.2,0c0,0.1,0,0.4,0,0.5c0,0-0.1,0-0.2,0h-0.2H382c0,0-0.1,0-0.2,0
	c0,0-0.1,0-0.2,0c0,0-0.1,0-0.2,0c0,0,0-0.5,0-0.5c-0.1,0-0.1,0-0.2,0c0,0-0.1,0-0.2,0c0,0,0,0.5,0,0.5c0,0-0.1,0-0.2,0
	c-0.1,0-0.1,0-0.2,0c-0.1,0-0.1,0-0.2,0h-0.3h-0.2h-0.2c-0.1,0-0.1,0-0.2,0c-0.1,0-0.1,0-0.2,0h-0.3c-0.1,0-0.1,0-0.2,0
	c-0.1,0-0.2,0-0.3,0c0,0,0-0.5,0-0.5c0,0-0.1,0-0.2,0c0,0-0.1,0-0.2,0c0,0,0,0.5,0,0.5c0,0.1-0.1-0.1-0.2,0c0,0.1,0,0.4,0,0.5h-0.2
	c0,0-0.1,0-0.2,0c0,0,0-0.5,0-0.5c0,0-0.1,0-0.2,0c0,0-0.1,0-0.2,0c0,0-0.1,0-0.2,0h-0.3h-0.2h-0.2c-0.1,0-0.1,0-0.2,0
	c-0.1,0-0.1,0-0.2,0c-0.1,0-0.2,0-0.3,0h-0.2h-0.2c-0.1,0-0.1,0-0.2,0c0,0-0.1,0-0.2,0c-0.1,0-0.1,0-0.2,0c-0.1,0-0.1,0-0.2,0
	c-0.1,0-0.1,0-0.2,0c0,0-0.1,0-0.2,0c0,0,0-0.5,0-0.5c0,0-0.1,0-0.2,0c0,0.1,0,0.5,0,0.5c0,0-0.1,0-0.2,0H375c0,0-0.1,0-0.2,0
	c0,0-0.1-0.1-0.2,0c0,0.1,0,0.4,0,0.5c0,0-0.1,0-0.2,0c0,0-0.1,0-0.2,0c0,0-0.1,0-0.2,0c0,0,0-0.5,0-0.5c-0.1,0-0.1,0-0.2,0h-0.2
	c0,0-0.1,0-0.2,0c0,0-0.1-0.1-0.2,0c0,0.1,0,0.4,0,0.5c0,0-0.1,0-0.2,0c0,0-0.1,0-0.2,0c0-0.1,0-0.4,0-0.5c0-0.1-0.1,0-0.2,0
	c0,0-0.1,0-0.2,0c-0.1,0-0.2,0-0.3,0c0-0.1,0-0.4,0-0.5c0,0-0.2,0-0.2,0c0,0.1,0,0.5,0,0.5c0,0-0.1-0.1-0.2,0c0,0.1,0,0.5,0,0.5
	c0,0-0.1,0-0.2,0c0,0-0.1,0-0.2,0c0,0,0-0.5,0-0.5c0-0.1-0.1,0-0.2,0c0,0-0.1,0-0.2,0c0,0-0.1,0-0.2,0c0,0-0.1,0-0.2,0
	c-0.1,0-0.1,0-0.2,0h-0.2H371c0,0,0,0.5,0,0.5c0,0-0.1,0-0.2,0c0,0,0-0.5,0-0.5c0,0-0.1,0-0.2,0c0,0-0.1,0-0.2,0h-0.2
	c-0.1,0-0.1,0-0.2,0c0,0-0.1,0-0.2,0h-0.2c-0.1,0-0.2,0-0.3,0c-0.2,0-0.4,0-0.6,0c0-0.1,0-0.4,0-0.5c0,0-0.1,0-0.2,0
	c0,0,0,0.4,0,0.5v0.5h-0.2c-0.1,0-0.2,0-0.3,0c0-0.1,0-0.4,0-0.5c0-0.1-0.1,0.1-0.2,0c0-0.1-0.1,0.1-0.2,0c0-0.1,0-0.4,0-0.5
	c0,0-0.1,0-0.2,0c0,0,0,0.5,0,0.5c0,0-0.1,0-0.2,0c0,0-0.1,0-0.2,0c0,0-0.1,0-0.2,0c-0.1,0-0.1,0-0.2,0c-0.1,0-0.1,0-0.2,0H367
	c0,0-0.1,0-0.2,0c0,0-0.1,0.1-0.2,0c0-0.1,0-0.4,0-0.5c0,0-0.1,0-0.2,0c0,0-0.1-0.1-0.2,0c0,0.1,0,0.4,0,0.5c0,0.1-0.1-0.1-0.2,0
	c0,0,0,0.4,0,0.5c0,0-0.1,0-0.2,0c0-0.1,0-0.4,0-0.5h-0.3h-0.2c-0.2,0-0.4,0-0.6,0c-0.1,0-0.1,0-0.2,0c-0.2,0-0.4,0-0.6,0h-0.2
	c-0.1,0-0.2,0-0.3,0h-0.2h-0.3h-0.2c-0.1,0-0.1,0-0.2,0s-0.1,0-0.2,0c-0.1,0-0.1,0-0.2,0c0,0-0.1,0-0.2,0c0,0-0.1,0.1-0.2,0
	c0-0.1,0-0.4,0-0.5c0,0-0.1,0-0.2,0c-0.1,0-0.1,0-0.2,0c0,0-0.1,0-0.2,0c0,0,0,0.5,0,0.5c0,0-0.1,0-0.2,0c-0.1,0-0.1,0-0.2,0
	c-0.1,0-0.1,0-0.2,0h-0.2h-0.2c-0.1,0-0.2,0-0.3,0h-0.2h-0.3h-0.2c-0.1,0-0.1,0-0.2,0c-0.1,0-0.1,0-0.2,0c-0.1,0-0.1,0-0.2,0h-0.2
	c-0.1,0-0.1,0-0.2,0h-0.6c-0.1,0-0.1,0-0.2,0h-0.2c-0.1,0-0.1,0-0.2,0c-0.1,0-0.1,0-0.2,0h-0.2h-0.2h-0.2c-0.1,0-0.1,0-0.2,0
	c0,0-0.1,0-0.2,0c-0.1,0-0.1,0-0.2,0c0,0-0.1,0-0.2,0c0,0,0-0.5,0-0.5c0,0-0.1,0-0.2,0c0,0-0.1,0-0.2,0c0,0,0,0.5,0,0.5
	c0,0.1-0.1,0-0.2,0c0,0-0.1,0-0.2,0h-0.2c-0.1,0-0.1,0-0.2,0c0,0-0.1,0-0.2,0h-0.3h-0.2c-0.1,0-0.1,0-0.2,0c-0.1,0-0.1,0-0.2,0
	c0,0,0-0.5,0-0.5c0,0-0.1,0-0.2,0c0,0,0,0.5,0,0.5c0,0-0.1,0-0.2,0c0,0-0.1,0-0.2,0c-0.1,0-0.1,0-0.2,0h-0.3h-0.2
	c-0.1,0-0.1,0-0.2,0h-0.2h-0.2c-0.1,0-0.1,0-0.2,0c0,0-0.1,0-0.2,0c0,0-0.1,0-0.2,0c0,0,0,0.5,0,0.5c0,0-0.1,0-0.2,0
	c0-0.1,0-0.5,0-0.5c0,0-0.1,0-0.2,0h-0.2c-0.1,0-0.1,0-0.2,0c0,0-0.1,0-0.2,0c0,0-0.1,0-0.2,0c-0.1,0-0.1,0-0.2,0c0,0-0.1,0-0.2,0
	c0,0,0-0.5,0-0.5c0,0-0.1,0-0.2,0c0,0.1,0,0.4,0,0.5c0,0.1-0.1,0-0.2,0c0,0,0-0.5,0-0.5c0,0-0.1,0-0.2,0c0,0,0,0.5,0,0.5
	c-0.1,0-0.1,0-0.2,0h-0.2c-0.1,0-0.1,0-0.2,0c-0.2,0-0.4,0-0.6,0h-0.2h-0.2c-0.1,0-0.1,0-0.2,0c-0.1,0-0.1,0-0.2,0
	c-0.1,0-0.1,0-0.2,0h-0.2h-0.2c-0.1,0-0.1,0-0.2,0c0,0-0.1-0.1-0.2,0c0,0.1,0,0.4,0,0.5c0,0-0.1,0-0.2,0c0,0-0.1,0.1-0.2,0
	c0-0.1,0-0.4,0-0.5c0,0-0.1,0-0.2,0c0,0,0-0.5,0-0.5c0,0-0.1,0-0.2,0c0,0,0,0.5,0,0.5c0,0-0.1,0-0.2,0c0,0-0.1,0-0.2,0
	c-0.1,0-0.1,0-0.2,0c-0.1,0-0.1,0-0.2,0h-0.2c-0.1,0-0.1,0-0.2,0c-0.1,0-0.1,0-0.2,0c-0.1,0-0.1,0-0.2,0c-0.1,0-0.1,0-0.2,0H347
	h-0.3h-0.2h-0.3h-0.2H346c0,0-0.1,0-0.2,0h-0.2c0,0-0.1,0-0.2,0c0,0-0.1,0.1-0.2,0c0-0.1,0-0.4,0-0.5c0,0-0.1,0-0.2,0
	c0,0,0,0.5,0,0.5c0,0-0.1,0-0.2,0c-0.1,0-0.1,0-0.2,0c0,0-0.1,0-0.2,0h-0.2c-0.1,0-0.1,0-0.2,0c-0.1,0-0.1,0-0.2,0h-0.2H344
	c-0.1,0-0.2,0-0.3,0h-0.2h-0.3H343c-0.1,0-0.2,0-0.3,0c0,0.1,0,0.4,0,0.5c0,0-0.1,0-0.2,0c0,0,0-0.5,0-0.5c0-0.1-0.1,0.1-0.2,0
	c0-0.1,0-0.4,0-0.5c-0.1,0-0.1,0-0.2,0c0,0-0.1,0-0.2,0c0,0.1,0,0.4,0,0.5H342c-0.1,0-0.1,0-0.2,0c-0.1,0-0.1,0-0.2,0
	c0,0-0.1,0-0.2,0c0,0,0,0.5,0,0.5c0,0-0.1,0-0.2,0h-0.2H341h-0.2c0,0-0.1,0-0.2,0c0,0-0.1,0-0.2,0c0-0.1,0-0.5,0-0.5
	c0,0-0.1,0-0.2,0h-0.2c0,0-0.1,0-0.2,0c0,0,0,0.5,0,0.5c0,0.1-0.1,0-0.2,0c0,0-0.1,0-0.2,0c0,0-0.1,0-0.2,0c0,0,0-0.5,0-0.5
	c-0.1,0-0.1,0-0.2,0c0,0-0.1,0-0.2,0c0,0-0.1-0.1-0.2,0c0,0.1,0,0.4,0,0.5c0,0-0.1,0-0.2,0c-0.1,0-0.1,0-0.2,0c0,0-0.1,0-0.2,0
	c0,0-0.1,0.1-0.2,0c0-0.1,0-0.4,0-0.5c0,0-0.1,0-0.2,0c-0.1,0-0.1,0-0.2,0c0,0-0.1,0-0.2,0c0,0-0.1-0.1-0.2,0c0,0.1,0,0.4,0,0.5
	c0,0-0.1,0-0.2,0c0,0-0.1,0-0.2,0c0,0-0.1,0-0.2,0c0,0-0.1,0.1-0.2,0c0-0.1,0-0.4,0-0.5c0,0-0.1,0-0.2,0c-0.1,0-0.1,0-0.2,0h-0.2
	h-0.2h-0.2c0,0-0.1,0-0.2,0c0,0,0,0.5,0,0.5c0,0-0.1,0-0.2,0c0,0-0.1,0-0.2,0c0-0.1,0-0.4,0-0.5c0,0-0.1,0-0.2,0c-0.1,0-0.1,0-0.2,0
	c0,0-0.1,0-0.2,0c0,0,0,0.5,0,0.5c0,0-0.1,0-0.2,0c0,0,0-0.5,0-0.5c0,0-0.1,0-0.2,0c0,0,0,0.5,0,0.5c0,0-0.1,0-0.2,0
	c0-0.1,0-0.4,0-0.5c0,0-0.1,0-0.2,0h-0.2c-0.1,0-0.1,0-0.2,0h-0.2h-0.2c-0.1,0-0.1,0-0.2,0c0,0-0.1,0-0.2,0c0,0-0.1,0-0.2,0
	c0,0,0,0.5,0,0.5c0,0-0.1,0-0.2,0c0,0,0-0.5,0-0.5c-0.1,0-0.1,0-0.2,0c-0.1,0-0.1,0-0.2,0c-0.1,0-0.1,0-0.2,0c0,0-0.1,0-0.2,0
	c0,0,0,0.5,0,0.5c-0.1,0-0.1,0-0.2,0c0,0-0.1,0-0.2,0c0-0.1,0-0.5,0-0.5c0-0.1-0.1,0-0.2,0c0,0-0.1,0-0.2,0c0-0.1,0-0.4,0-0.5
	c-0.1,0-0.2,0-0.3,0c0,0.1,0,0.4,0,0.5c0,0-0.1,0-0.2,0c0,0-0.1,0-0.2,0c0,0-0.1,0-0.2,0h-0.2c0,0-0.1,0-0.2,0c0,0-0.1,0-0.2,0
	c-0.1,0-0.1,0-0.2,0c0,0-0.1,0-0.2,0c0,0,0,0.5,0,0.5c0,0.1-0.1,0-0.2,0c0,0-0.1,0-0.2,0c-0.1,0-0.1,0-0.2,0c0,0-0.1,0-0.2,0
	c0-0.1,0-0.4,0-0.5c0-0.1-0.1,0-0.2,0c0,0-0.1,0-0.2,0c0,0,0,0.5,0,0.5c0,0-0.1,0-0.2,0c0,0,0-0.5,0-0.5c0,0-0.1,0-0.2,0
	c0,0,0,0.5,0,0.5c0,0-0.1,0-0.2,0c0,0,0-0.5,0-0.5c0,0-0.1,0-0.2,0c0,0-0.1,0-0.2,0c0,0,0-0.4,0-0.5c0-0.1-0.1,0.1-0.2,0
	c0,0.1-0.1-0.1-0.2,0c0,0.1,0,0.4,0,0.5c0,0.1-0.1-0.1-0.2,0c0,0,0,0.5,0,0.5c0,0-0.1,0-0.2,0c0,0-0.1,0-0.2,0c0,0-0.1,0.1-0.2,0
	c0-0.1,0-0.4,0-0.5c-0.1,0-0.2,0-0.3,0c0,0.1-0.1-0.1-0.2,0c0,0,0,0.5,0,0.5c0,0-0.1,0-0.2,0c0,0,0-0.5,0-0.5c-0.1,0-0.1,0-0.2,0
	h-0.2c-0.1,0-0.2,0-0.3,0c0-0.1,0-0.4,0-0.5c0,0-0.1,0-0.2,0c-0.1,0-0.1,0-0.2,0c0,0.1,0,0.4,0,0.5c0,0.1-0.1,0-0.2,0
	c0,0.1-0.1,0-0.2,0c0,0-0.1,0-0.2,0c0,0.1,0,0.4,0,0.5c-0.1,0-0.1,0-0.2,0c0,0-0.1,0-0.2,0c0,0,0-0.5,0-0.5c0,0-0.1,0-0.2,0h-0.2
	c-0.1,0-0.1,0-0.2,0c-0.1,0-0.1,0-0.2,0c-0.1,0-0.1,0-0.2,0c-0.2,0-0.4,0-0.6,0h-0.2h-0.2c0,0,0,0.5,0,0.5c0,0-0.1,0-0.2,0
	c0,0,0-0.5,0-0.5c0,0-0.1,0-0.2,0c0,0-0.1,0-0.2,0c0,0-0.1-0.1-0.2,0c0,0,0,0.5,0,0.5c0,0-0.1,0-0.2,0c0-0.1,0-0.5,0-0.5
	c0,0-0.1,0-0.2,0c-0.1,0-0.1,0-0.2,0c0,0-0.1,0-0.2,0h-0.2h-0.2h-0.2c0,0-0.1,0-0.2,0c0,0-0.1,0-0.2,0c0,0,0,0.5,0,0.5
	c0,0-0.1,0-0.2,0c0-0.1,0-0.5,0-0.5c0,0-0.1,0-0.2,0H322c-0.1,0-0.1,0-0.2,0h-0.2h-0.2c-0.1,0-0.1,0-0.2,0c0,0,0,0.5,0,0.5
	c0,0-0.1,0-0.2,0c0,0,0-0.5,0-0.5c0,0-0.1,0-0.2,0h-0.2c-0.1,0-0.1,0-0.2,0c-0.1,0-0.1,0-0.2,0c-0.1,0-0.1,0-0.2,0c0,0-0.1,0-0.2,0
	c0,0-0.1-0.1-0.2,0c0,0,0,0.5,0,0.5c-0.1,0-0.1,0-0.2,0c0,0-0.1,0.1-0.2,0c0,0,0-0.4,0-0.5c0-0.1-0.1,0-0.2,0c-0.1,0-0.1,0-0.2,0
	c0,0-0.1,0-0.2,0c0,0-0.1-0.1-0.2,0c0,0,0,0.5,0,0.5c-0.1,0-0.1,0-0.2,0c0,0-0.1,0-0.2,0c0,0,0-0.5,0-0.5c0,0-0.1,0-0.2,0
	c-0.1,0-0.1,0-0.2,0h-0.2c0,0-0.1,0-0.2,0c0,0-0.1,0-0.2,0c0,0.1,0,0.5,0,0.5c0,0-0.1,0-0.2,0c-0.1,0-0.1,0-0.2,0c0,0,0-0.5,0-0.5
	c0-0.1-0.1,0-0.2,0c0,0-0.1,0-0.2,0c-0.1,0-0.1,0-0.2,0c0,0-0.1,0-0.2,0c0,0-0.1,0-0.2,0c0,0,0,0.5,0,0.5c0,0-0.1,0-0.2,0
	c0,0-0.1,0-0.2,0c0,0,0-0.4,0-0.5c0,0-0.1,0-0.2,0h-0.2h-0.2h-0.2c-0.1,0-0.1,0-0.2,0c0,0-0.1,0-0.2,0c0,0-0.1,0-0.2,0
	c0,0,0,0.5,0,0.5c0,0-0.1,0-0.2,0c0,0,0-0.5,0-0.5c0,0-0.1,0-0.2,0c0,0-0.1,0-0.2,0c0,0-0.1,0-0.2,0h-0.2h-0.2c-0.1,0-0.1,0-0.2,0
	c0,0-0.1,0-0.2,0h-0.2h-0.6c-0.1,0-0.1,0-0.2,0h-0.2c-0.1,0-0.1,0-0.2,0h-0.3c-0.2,0-0.4,0-0.6,0c-0.2,0-0.4,0-0.6,0h-0.3h-0.2
	c-0.1,0-0.1,0-0.2,0c0,0,0,0.5,0,0.5c0,0-0.1,0-0.2,0c0,0-0.1,0-0.2,0c0,0,0-0.5,0-0.5c0-0.1-0.1,0-0.2,0c0,0-0.1,0-0.2,0
	c0,0-0.1,0-0.2,0c-0.1,0-0.1,0-0.2,0c0,0-0.1,0-0.2,0c-0.1,0-0.1,0-0.2,0c-0.1,0-0.1,0-0.2,0c0,0-0.1,0-0.2,0c0,0-0.1,0.1-0.2,0
	c0,0,0-0.5,0-0.5c0,0-0.1,0-0.2,0c0,0.1,0,0.4,0,0.5c0,0.1-0.1,0-0.2,0c0,0-0.1,0-0.2,0h-0.2h-0.2c-0.1,0-0.1,0-0.2,0
	c0,0-0.1,0-0.2,0h-0.2c-0.2,0-0.4,0-0.6,0h-0.2c-0.1,0-0.1,0-0.2,0c0,0-0.1,0-0.2,0c0,0-0.1,0-0.2,0c0,0,0-0.5,0-0.5
	c0,0-0.1,0-0.2,0c0,0.1,0,0.5,0,0.5c0,0-0.1,0-0.2,0c-0.1,0-0.1,0-0.2,0c0,0-0.1,0-0.2,0c0,0-0.1,0-0.2,0c0,0-0.1-0.1-0.2,0
	c0,0,0,0.5,0,0.5c0,0-0.1,0-0.2,0c0,0-0.1,0-0.2,0c0,0-0.1,0.1-0.2,0c0,0,0-0.5,0-0.5c-0.1,0-0.1,0-0.2,0c0,0-0.1,0-0.2,0
	c0,0,0,0.5,0,0.5c0,0-0.1,0-0.2,0c-0.1,0-0.1,0-0.2,0h-0.2c0,0-0.1,0-0.2,0c0,0,0-0.5,0-0.5c0-0.1-0.1,0-0.2,0c0,0-0.1,0-0.2,0
	c-0.1,0-0.1,0-0.2,0c0,0,0,0.5,0,0.5c0,0-0.1,0-0.2,0c0,0-0.1,0-0.2,0c0,0,0-0.5,0-0.5c0,0-0.1-0.1-0.2,0c0,0.1,0,0.4,0,0.5
	c0,0.1-0.1,0-0.2,0c0,0-0.1,0-0.2,0h-0.2h-0.2c-0.1,0-0.1,0-0.2,0c-0.1,0-0.1,0-0.2,0h-0.2h-0.2c0,0-0.1,0-0.2,0c0,0,0-0.5,0-0.5
	c0,0-0.1,0-0.2,0c0,0,0,0.5,0,0.5c0,0-0.1,0-0.2,0c-0.1,0-0.1,0-0.2,0c0,0-0.1,0-0.2,0c0,0-0.1,0-0.2,0c0,0-0.1,0-0.2,0
	c0,0-0.1,0-0.2,0c0,0,0-0.4,0-0.5c0,0-0.1,0-0.2,0c-0.1,0-0.1,0-0.2,0h-0.2h-0.2c0,0-0.1,0-0.2,0c0,0-0.1-0.1-0.2,0
	c0,0.1,0,0.5,0,0.5c0,0-0.1,0-0.2,0H300c0,0-0.1,0-0.2,0c0-0.1,0-0.4,0-0.5c0-0.1-0.1,0-0.2,0c0,0-0.1,0-0.2,0c0,0.1,0,0.5,0,0.5
	c0,0-0.1,0-0.2,0c0,0-0.1,0-0.2,0c0,0,0-0.5,0-0.5c0,0-0.1,0-0.2,0c0,0,0,0.5,0,0.5c0,0-0.1,0-0.2,0c0,0-0.1,0-0.2,0
	c0-0.1,0-0.5,0-0.5c0,0-0.1,0-0.2,0c0,0-0.1,0-0.2,0c0,0,0,0.5,0,0.5c0,0-0.1,0-0.2,0c-0.1,0-0.1,0-0.2,0c-0.1,0-0.1,0-0.2,0
	c0,0-0.1,0-0.2,0c0,0-0.1,0.1-0.2,0c0,0,0-0.5,0-0.5c-0.1,0-0.1,0-0.2,0c-0.1,0-0.1,0-0.2,0h-0.2c-0.1,0-0.1,0-0.2,0
	c0,0-0.1,0-0.2,0c0,0-0.1,0-0.2,0c0,0-0.1,0.1-0.2,0c0-0.1,0-0.4,0-0.5h-0.3c0,0.1-0.1-0.1-0.2,0c0,0.1,0,0.4,0,0.5
	c0,0.1-0.1-0.1-0.2,0c0,0.1,0,0.4,0,0.5h-0.3h-0.2c0,0-0.1,0-0.2,0c0,0,0-0.5,0-0.5c0-0.1-0.1,0-0.2,0c0,0-0.1,0-0.2,0
	c-0.1,0-0.1,0-0.2,0c0,0-0.1,0-0.2,0c0,0-0.1,0-0.2,0c0,0,0,0.4,0,0.5c0,0-0.1,0-0.2,0c-0.1,0-0.1,0-0.2,0c0,0-0.1,0-0.2,0
	c0,0,0-0.5,0-0.5c0,0-0.1,0-0.2,0c-0.1,0-0.1,0-0.2,0c0,0,0,0.5,0,0.5c0,0.1-0.1,0-0.2,0c0,0-0.1,0-0.2,0c-0.1,0-0.1,0-0.2,0
	c0,0-0.1,0-0.2,0c0-0.1,0-0.5,0-0.5c0,0-0.1,0-0.2,0H293c0,0-0.1,0-0.2,0c0,0-0.1,0-0.2,0c0,0,0,0.5,0,0.5c0,0-0.1,0-0.2,0
	c0,0,0-0.5,0-0.5c0,0-0.1,0-0.2,0c0,0-0.1,0-0.2,0c0,0,0,0.5,0,0.5c0,0-0.1,0-0.2,0c0,0,0-0.5,0-0.5c-0.1,0-0.1,0-0.2,0
	c0,0-0.1,0-0.2,0c0,0,0,0.5,0,0.5c0,0.1-0.1,0-0.2,0c-0.1,0-0.1,0-0.2,0c0,0-0.1,0-0.2,0c0,0,0-0.5,0-0.5c0,0-0.1,0-0.2,0
	c0,0,0,0.5,0,0.5H291c0,0-0.1,0-0.2,0c0,0,0-0.5,0-0.5c0-0.1-0.1,0-0.2,0c0,0-0.1,0-0.2,0c0,0-0.1,0-0.2,0c0,0-0.1-0.1-0.2,0
	c0,0.1,0,0.4,0,0.5c0,0-0.1,0-0.2,0c-0.1,0-0.1,0-0.2,0c0,0-0.1,0-0.2,0c0,0-0.1,0.1-0.2,0c0,0,0-0.5,0-0.5c0,0-0.1,0-0.2,0
	c0,0-0.1,0-0.2,0c0,0-0.1-0.1-0.2,0c0,0.1,0,0.4,0,0.5c0,0-0.1,0-0.2,0c-0.1,0-0.1,0-0.2,0c0,0-0.1,0-0.2,0c0,0-0.1,0.1-0.2,0
	c0,0,0-0.5,0-0.5c0,0-0.1,0-0.2,0c0,0.1,0,0.5,0,0.5c0,0-0.1,0-0.2,0h-0.2c-0.1,0-0.1,0-0.2,0c-0.1,0-0.1,0-0.2,0c0,0-0.1,0-0.2,0
	c0,0,0-0.4,0-0.5c0,0-0.1,0-0.2,0c0,0-0.1,0-0.2,0c0,0.1,0,0.5,0,0.5c0,0-0.1,0-0.2,0H287c-0.1,0-0.1,0-0.2,0c-0.1,0-0.1,0-0.2,0
	c0,0-0.1,0-0.2,0c0,0-0.1,0.1-0.2,0c0,0,0-0.5,0-0.5c0,0-0.1,0-0.2,0c0,0.1,0,0.5,0,0.5c0,0-0.1,0-0.2,0c0,0-0.1,0-0.2,0
	c0,0,0-0.5,0-0.5c-0.1,0-0.1,0-0.2,0c0,0-0.1,0-0.2,0c0,0,0,0.5,0,0.5c0,0-0.1,0-0.2,0c-0.1,0-0.1,0-0.2,0c0,0-0.1,0-0.2,0
	c0,0,0-0.5,0-0.5c0,0-0.1,0-0.2,0h-0.2c0,0,0,0.5,0,0.5c0,0-0.1,0-0.2,0c0,0,0-0.5,0-0.5c0,0-0.1,0-0.2,0c-0.1,0-0.1,0-0.2,0
	c0,0-0.1,0-0.2,0c0,0-0.1-0.1-0.2,0c0,0.1,0,0.4,0,0.5c0,0-0.1,0-0.2,0h-0.2c0,0-0.1,0-0.2,0c0,0,0-0.5,0-0.5c0-0.1-0.1,0-0.2,0
	c0,0-0.1,0-0.2,0h-0.2H283h-0.2h-0.2c0,0-0.1,0-0.2,0c0,0.1,0,0.5,0,0.5c0,0-0.1,0-0.2,0c0,0-0.1,0-0.2,0c-0.1,0-0.1,0-0.2,0
	c0,0-0.1,0-0.2,0c0,0,0-0.5,0-0.5c0,0-0.1,0-0.2,0h-0.2c0,0-0.1,0-0.2,0c0,0.1,0,0.5,0,0.5c0,0-0.1,0-0.2,0c-0.1,0-0.1,0-0.2,0
	c0,0,0-0.5,0-0.5c0-0.1-0.1,0-0.2,0c0,0-0.1,0-0.2,0c0,0.1,0,0.4,0,0.5c0,0-0.1,0-0.2,0c0,0,0-0.5,0-0.5c0,0-0.1,0-0.2,0
	c0,0-0.1,0-0.2,0c0,0,0,0.5,0,0.5c0,0-0.1,0.1-0.2,0c0-0.1,0-0.5,0-0.5c0-0.1-0.1,0-0.2,0c0,0-0.1,0-0.2,0c0-0.1,0-0.4,0-0.5
	c0,0.1-0.1-0.1-0.2,0c0,0.1,0,0.4,0,0.5c0,0.1-0.1-0.1-0.2,0c0,0,0,0.4,0,0.5c0,0-0.1,0-0.2,0c0,0,0-0.5,0-0.5c0-0.1-0.1,0.1-0.2,0
	H279c0,0.1,0,0.4,0,0.5c0,0-0.1,0-0.2,0c-0.1,0-0.1,0-0.2,0c-0.1,0-0.1,0-0.2,0c0,0-0.1,0-0.2,0c0,0,0-0.4,0-0.5V0.2h-0.2
	c0,0-0.1,0-0.2,0c0,0,0,0.5,0,0.5c0,0-0.1,0-0.2,0c0,0-0.1,0-0.2,0c0,0-0.1-0.1-0.2,0c0,0.1,0,0.5,0,0.5c0,0-0.1,0-0.2,0h-0.2
	c-0.1,0-0.1,0-0.2,0c0,0-0.1,0-0.2,0c0,0-0.1,0-0.2,0c0,0,0-0.5,0-0.5c0,0-0.1,0-0.2,0h-0.2c-0.1,0-0.1,0-0.2,0c-0.1,0-0.1,0-0.2,0
	c0,0-0.1,0-0.2,0c-0.2,0-0.4,0-0.6,0h-0.2h-0.2H275c0,0-0.1,0-0.2,0h-0.2c0,0-0.1,0-0.2,0c0,0-0.1-0.1-0.2,0c0,0.1,0,0.5,0,0.5
	c0,0-0.1,0-0.2,0c-0.1,0-0.1,0-0.2,0c0,0,0-0.5,0-0.5c0,0-0.1,0-0.2,0c0,0-0.1,0-0.2,0c0,0,0,0.5,0,0.5c0,0-0.1,0-0.2,0
	c0,0-0.1,0-0.2,0c0,0-0.1,0.1-0.2,0c0,0,0-0.5,0-0.5c0,0-0.1,0-0.2,0c0,0.1,0,0.5,0,0.5c0,0-0.1,0-0.2,0c0,0-0.1,0-0.2,0
	c-0.1,0-0.1,0-0.2,0c0,0-0.1,0-0.2,0c0,0-0.1,0.1-0.2,0c0,0,0-0.5,0-0.5c0,0-0.1,0-0.2,0c0,0.1,0,0.5,0,0.5c0,0-0.1,0-0.2,0
	c-0.1,0-0.1,0-0.2,0c0,0,0-0.5,0-0.5c0-0.1-0.1,0-0.2,0c0,0-0.1,0-0.2,0c0,0-0.1,0-0.2,0c0,0,0,0.5,0,0.5c0,0-0.1,0-0.2,0
	c0-0.1,0-0.5,0-0.5c0,0-0.1,0-0.2,0c-0.1,0-0.1,0-0.2,0c-0.1,0-0.1,0-0.2,0c0,0-0.1,0-0.2,0c0,0-0.1-0.1-0.2,0c0,0,0,0.5,0,0.5
	c-0.1,0-0.1,0-0.2,0h-0.2h-0.2c0,0-0.1,0-0.2,0c-0.1,0-0.1,0-0.2,0c0,0-0.1,0-0.2,0c0,0-0.1,0.1-0.2,0c0-0.1,0-0.4,0-0.5
	c0,0-0.1,0-0.2,0c-0.1,0-0.1,0-0.2,0H269h-0.2c0,0-0.1,0-0.2,0c0,0-0.1-0.1-0.2,0c0,0.1,0,0.5,0,0.5c0,0-0.1,0-0.2,0
	c-0.1,0-0.1,0-0.2,0c0,0-0.1,0-0.2,0c0,0-0.1,0-0.2,0c0,0,0-0.4,0-0.5c0,0-0.1,0-0.2,0c0,0-0.1,0-0.2,0c0,0.1,0,0.5,0,0.5
	c0,0-0.1,0-0.2,0h-0.2c-0.1,0-0.1,0-0.2,0c-0.1,0-0.1,0-0.2,0c0,0-0.1,0-0.2,0c0,0,0-0.4,0-0.5c0,0-0.1,0-0.2,0c0,0,0,0.5,0,0.5
	c0,0.1-0.1,0-0.2,0c0,0-0.1,0-0.2,0c-0.1,0-0.1,0-0.2,0c0,0-0.1,0-0.2,0c0,0,0-0.5,0-0.5c0,0-0.1,0-0.2,0c0,0,0,0.5,0,0.5h-0.2
	c-0.1,0-0.1,0-0.2,0c-0.1,0-0.1,0-0.2,0c0,0-0.1,0-0.2,0c0,0,0-0.5,0-0.5c0,0-0.1,0-0.2,0c0,0.1,0,0.5,0,0.5c0,0-0.1,0-0.2,0
	c-0.1,0-0.1,0-0.2,0c0,0-0.1,0-0.2,0c0,0-0.1,0-0.2,0c0,0-0.1,0.1-0.2,0c0,0,0-0.5,0-0.5c0,0-0.1,0-0.2,0c0,0.1,0,0.5,0,0.5
	c0,0-0.1,0-0.2,0c-0.1,0-0.1,0-0.2,0c-0.1,0-0.1,0-0.2,0c0,0-0.1,0-0.2,0c0,0,0-0.5,0-0.5c0,0-0.1,0-0.2,0h-0.2c0,0,0,0.5,0,0.5
	c0,0.1-0.1,0-0.2,0c0,0-0.1,0-0.2,0c-0.1,0-0.1,0-0.2,0c0,0-0.1,0-0.2,0c0,0,0-0.5,0-0.5c0,0-0.1,0-0.2,0c0,0,0,0.5,0,0.5h-0.3
	c-0.1,0-0.1,0-0.2,0c0,0-0.1,0-0.2,0c-0.1,0-0.1,0-0.2,0c0,0-0.1,0-0.2,0c0,0-0.1,0.1-0.2,0c0,0,0-0.4,0-0.5c0,0-0.1,0-0.2,0
	c0,0-0.1,0-0.2,0c0,0.1,0,0.5,0,0.5c0,0-0.1,0-0.2,0c-0.1,0-0.1,0-0.2,0h-0.2c0,0-0.1,0-0.2,0c0,0,0-0.4,0-0.5c0,0-0.1,0-0.2,0
	c0,0-0.1,0-0.2,0c0,0.1,0,0.5,0,0.5c0,0-0.1,0-0.2,0c-0.1,0-0.1,0-0.2,0c0,0-0.1,0-0.2,0c0,0,0-0.5,0-0.5c0,0-0.1,0-0.2,0
	c0,0.1,0,0.4,0,0.5c0,0-0.1,0-0.2,0s-0.1,0-0.2,0c0,0,0-0.5,0-0.5c0,0-0.1,0-0.2,0c0,0,0,0.5,0,0.5c-0.1,0-0.1,0-0.2,0h-0.2
	c-0.1,0-0.1,0-0.2,0c-0.1,0-0.1,0-0.2,0c-0.1,0-0.1,0-0.2,0h-0.2h-0.2c0,0-0.1,0-0.2,0c0,0,0-0.5,0-0.5c0-0.1-0.1,0-0.2,0
	c0,0-0.1,0-0.2,0h-0.2c0,0,0,0.5,0,0.5c0,0-0.1,0-0.2,0c0,0-0.1,0-0.2,0c0,0,0-0.5,0-0.5c-0.1,0-0.1,0-0.2,0c0,0-0.1,0-0.2,0
	c0,0,0,0.5,0,0.5c0,0-0.1,0-0.2,0c-0.1,0-0.1,0-0.2,0c0,0-0.1,0-0.2,0c0,0-0.1,0.1-0.2,0c0,0,0-0.5,0-0.5c0,0-0.1,0-0.2,0
	c0,0.1,0,0.5,0,0.5c0,0-0.1,0-0.2,0h-0.2c-0.1,0-0.1,0-0.2,0h-0.2c0,0-0.1,0-0.2,0c0,0,0-0.5,0-0.5c0,0-0.1,0-0.2,0c0,0,0,0.5,0,0.5
	c0,0.1-0.1,0-0.2,0c0,0-0.1,0-0.2,0h-0.2c-0.1,0-0.1,0-0.2,0h-0.2h-0.2c-0.1,0-0.1,0-0.2,0c0,0-0.1,0-0.2,0c0,0-0.1,0-0.2,0
	c0,0,0-0.5,0-0.5c0,0-0.1,0-0.2,0c0,0,0,0.5,0,0.5c-0.1,0-0.1,0-0.2,0h-0.2c-0.1,0-0.1,0-0.2,0c0,0-0.1,0-0.2,0c0,0-0.1,0-0.2,0
	c0,0-0.1,0-0.2,0c0,0,0-0.5,0-0.5c0,0-0.1,0-0.2,0c0,0-0.1,0-0.2,0c0,0,0,0.5,0,0.5c0,0-0.1,0-0.2,0c0,0,0-0.5,0-0.5
	c0,0-0.1-0.1-0.2,0c0,0.1,0,0.5,0,0.5c0,0-0.1,0-0.2,0h-0.2c-0.1,0-0.1,0-0.2,0c-0.1,0-0.1,0-0.2,0h-0.2c-0.2,0-0.4,0-0.6,0h-0.2
	c-0.1,0-0.1,0-0.2,0c0,0,0-0.5,0-0.5c0-0.1-0.1,0-0.2,0c0,0-0.1,0-0.2,0c0,0-0.1,0-0.2,0c-0.1,0-0.1,0-0.2,0c0,0-0.1,0-0.2,0
	c0,0,0,0.5,0,0.5c0,0-0.1,0-0.2,0h-0.2h-0.2c0,0-0.1,0-0.2,0c0,0,0-0.4,0-0.5c0,0-0.1,0-0.2,0c0,0-0.1,0-0.2,0c0,0.1,0,0.5,0,0.5
	c0,0-0.1,0-0.2,0h-0.2h-0.2h-0.2H248c-0.1,0-0.1,0-0.2,0c0,0-0.1,0-0.2,0c0,0-0.1,0-0.2,0c0,0-0.1,0.1-0.2,0c0-0.1,0-0.4,0-0.5
	c0,0-0.1,0-0.2,0c0,0,0-0.5,0-0.5c0,0-0.1,0-0.2,0c0,0,0,0.5,0,0.5c0,0.1-0.1,0-0.2,0c0,0,0,0.5,0,0.5c0,0.1-0.1,0-0.2,0
	c0,0-0.1,0-0.2,0c0,0-0.1,0-0.2,0c0,0,0-0.5,0-0.5c0,0-0.1,0-0.2,0c0,0,0,0.5,0,0.5c0,0.1-0.1,0-0.2,0c0,0,0,0.5,0,0.5
	c0,0-0.1,0-0.2,0c0,0,0-0.5,0-0.5c0,0-0.1,0-0.2,0c0,0-0.1,0-0.2,0c-0.1,0-0.1,0-0.2,0h-0.2h-0.2c-0.1,0-0.1,0-0.2,0
	c-0.1,0-0.1,0-0.2,0c0,0-0.1,0-0.2,0c0,0-0.1-0.1-0.2,0c0,0,0,0.5,0,0.5c0,0-0.1,0-0.2,0c0-0.1,0-0.5,0-0.5c0,0-0.1,0-0.2,0
	c0,0-0.1,0-0.2,0c0,0-0.1,0-0.2,0h-0.2h-0.2c-0.1,0-0.2,0-0.3,0c0-0.1,0-0.4,0-0.5c0,0-0.1,0-0.2,0c0,0,0,0.5,0,0.5
	c0,0.1-0.1,0-0.2,0c0,0-0.1,0-0.2,0c0,0-0.1-0.1-0.2,0c0,0,0,0.5,0,0.5c0,0.1-0.1-0.1-0.2,0c0-0.1,0-0.4,0-0.5c0-0.1-0.1,0-0.2,0
	c0,0-0.1,0-0.2,0c0,0-0.1,0-0.2,0c0,0-0.1,0-0.2,0s-0.1,0-0.2,0c0,0-0.1,0.1-0.2,0c0-0.1,0-0.4,0-0.5c0,0-0.1,0-0.2,0
	c0,0,0,0.5,0,0.5c0,0.1-0.1,0-0.2,0c0,0-0.1,0-0.2,0c-0.1,0-0.1,0-0.2,0c-0.1,0-0.1,0-0.2,0h-0.2c-0.1,0-0.1,0-0.2,0h-0.2
	c0,0-0.1,0-0.2,0c-0.1,0-0.1,0-0.2,0c0,0-0.1,0-0.2,0c0,0,0-0.4,0-0.5c0,0-0.1,0-0.2,0c0,0,0,0.5,0,0.5c0,0.1-0.1,0-0.2,0
	c0,0-0.1,0-0.2,0h-0.2c-0.1,0-0.1,0-0.2,0c-0.1,0-0.1,0-0.2,0h-0.2h-0.2c-0.2,0-0.4,0-0.6,0c-0.1,0-0.1,0-0.2,0h-0.2
	c-0.1,0-0.1,0-0.2,0h-0.2c0,0-0.1,0-0.2,0c0,0,0-0.5,0-0.5c0,0-0.1,0-0.2,0c0,0,0,0.5,0,0.5c0,0.1-0.1,0-0.2,0c0,0-0.1,0-0.2,0h-0.2
	c-0.1,0-0.1,0-0.2,0h-0.2h-0.2h-0.2c-0.2,0-0.4,0-0.6,0h-0.2c-0.1,0-0.1,0-0.2,0c-0.1,0-0.1,0-0.2,0c0,0-0.1,0-0.2,0
	c-0.1,0-0.1,0-0.2,0h-0.2c0,0-0.1,0-0.2,0c0,0-0.1,0-0.2,0c0,0-0.1,0-0.2,0c0,0,0-0.5,0-0.5c0,0-0.1,0-0.2,0c-0.1,0-0.1,0-0.2,0
	c0,0,0,0.5,0,0.5c0,0.1-0.1,0-0.2,0c0,0-0.1,0-0.2,0c0,0-0.1,0-0.2,0c0,0,0-0.5,0-0.5c-0.1,0-0.1,0-0.2,0c0,0-0.1,0-0.2,0
	c0,0-0.1-0.1-0.2,0c0,0.1,0,0.4,0,0.5c0,0-0.1,0-0.2,0c-0.1,0-0.1,0-0.2,0h-0.2h-0.6c-0.1,0-0.1,0-0.2,0h-0.2c0,0-0.1,0-0.2,0
	c-0.1,0-0.1,0-0.2,0h-0.2c-0.1,0-0.1,0-0.2,0c-0.1,0-0.1,0-0.2,0c0,0-0.1,0-0.2,0c0,0,0-0.5,0-0.5c0,0-0.1,0-0.2,0
	c0,0.1,0,0.4,0,0.5c0,0-0.1,0-0.2,0c-0.1,0-0.1,0-0.2,0H230h-0.2c0,0-0.1,0-0.2,0c0,0-0.1,0-0.2,0c0,0-0.1,0-0.2,0c0,0,0-0.5,0-0.5
	c0,0-0.1,0-0.2,0c0,0,0,0.5,0,0.5c-0.1,0-0.1,0-0.2,0c0,0-0.1,0-0.2,0c-0.1,0-0.1,0-0.2,0c0,0-0.1,0-0.2,0c0,0,0-0.5,0-0.5
	c0,0-0.1,0-0.2,0c0,0.1,0,0.5,0,0.5c0,0-0.1,0-0.2,0h-0.2c-0.1,0-0.1,0-0.2,0h-0.2c-0.1,0-0.1,0-0.2,0h-0.6H227h-0.2
	c-0.1,0-0.1,0-0.2,0c0,0-0.1,0-0.2,0c0-0.1,0-0.5,0-0.5c0,0-0.1,0-0.2,0c0,0-0.1,0-0.2,0c0,0,0,0.5,0,0.5c-0.1,0-0.1,0-0.2,0
	c0,0-0.1,0-0.2,0c0,0-0.1,0.1-0.2,0c0-0.1,0-0.4,0-0.5c0,0-0.1,0-0.2,0c0,0,0,0.5,0,0.5c0,0-0.1,0-0.2,0c0,0-0.1,0-0.2,0
	c0,0,0-0.5,0-0.5c0,0-0.1,0-0.2,0c0,0-0.1,0-0.2,0c0,0,0,0.5,0,0.5c0,0-0.1,0-0.2,0c-0.1,0-0.1,0-0.2,0c-0.1,0-0.1,0-0.2,0h-0.2
	c0,0-0.1,0-0.2,0H224c-0.1,0-0.1,0-0.2,0c0,0-0.1,0-0.2,0c0,0-0.1,0-0.2,0c0,0-0.1-0.1-0.2,0c0,0.1,0,0.4,0,0.5c0,0.1-0.1-0.1-0.2,0
	c-0.1,0-0.2,0-0.3,0c0-0.1,0-0.4,0-0.5c0-0.1-0.1,0.1-0.2,0c0-0.1,0-0.4,0-0.5c0-0.1-0.1,0.1-0.2,0h-0.3c-0.1,0-0.1,0-0.2,0
	c0,0-0.1,0-0.2,0c0,0.1,0,0.5,0,0.5c0,0.1-0.1-0.1-0.2,0c0,0,0,0.5,0,0.5c0,0-0.1,0-0.2,0c0-0.1,0-0.4,0-0.5c-0.2,0-0.4,0-0.6,0
	c-0.1,0-0.2,0-0.3,0h-0.2c-0.1,0-0.1,0-0.2,0c0,0-0.1,0-0.2,0h-0.2h-0.2c0,0-0.1,0-0.2,0c0,0,0,0.5,0,0.5c0,0.1-0.1,0-0.2,0
	c0,0-0.1,0-0.2,0c-0.1,0-0.1,0-0.2,0c-0.1,0-0.1,0-0.2,0c0,0-0.1,0-0.2,0c0,0-0.1,0-0.2,0c0,0,0-0.5,0-0.5c0,0-0.1,0-0.2,0
	c0,0-0.1,0-0.2,0c0,0.1,0,0.5,0,0.5c0,0-0.1,0-0.2,0h-0.2c-0.1,0-0.1,0-0.2,0c0,0-0.1,0-0.2,0c0,0-0.1,0-0.2,0c0,0,0-0.5,0-0.5
	c0-0.1-0.1,0-0.2,0c0,0-0.1,0-0.2,0c-0.1,0-0.1,0-0.2,0c-0.1,0-0.1,0-0.2,0c0,0-0.1,0-0.2,0c0-0.1,0-0.4,0-0.5h-0.3
	c0,0.1-0.1-0.1-0.2,0c0,0.1,0,0.5,0,0.5c0,0-0.1,0-0.2,0c0,0-0.1,0-0.2,0c0,0,0,0.5,0,0.5c0,0.1-0.1,0-0.2,0c0,0-0.1,0-0.2,0
	c0,0-0.1,0-0.2,0c-0.1,0-0.1,0-0.2,0c0,0-0.1,0-0.2,0c0-0.1,0-0.5,0-0.5c0,0-0.1,0-0.2,0c0,0-0.1-0.1-0.2,0c0,0,0,0.5,0,0.5
	c-0.1,0-0.1,0-0.2,0H215c0,0-0.1,0-0.2,0c0,0,0-0.4,0-0.5c0-0.1-0.1,0.1-0.2,0c0-0.1,0-0.4,0-0.5c-0.1,0-0.1,0-0.2,0h-0.3h-0.3
	c0,0.1,0,0.4,0,0.5c0,0.1-0.1,0-0.2,0c0,0-0.1,0-0.2,0c0,0-0.1,0-0.2,0c0,0,0,0.5,0,0.5c0,0-0.1,0-0.2,0c0,0-0.1,0-0.2,0
	c0,0,0-0.5,0-0.5c0,0-0.1,0-0.2,0h-0.2c-0.1,0-0.1,0-0.2,0c0,0-0.1-0.1-0.2,0c0,0.1,0,0.4,0,0.5c0,0-0.1,0-0.2,0c0,0-0.1,0.1-0.2,0
	c0-0.1,0-0.4,0-0.5c0,0-0.1,0-0.2,0c0,0-0.1-0.1-0.2,0c0,0.1,0,0.4,0,0.5c0,0-0.1,0-0.2,0c0,0-0.1,0-0.2,0c0-0.1,0-0.4,0-0.5
	c0,0-0.1,0-0.2,0c-0.1,0-0.1,0-0.2,0c-0.1,0-0.2,0-0.3,0h-0.2h-0.3h-0.2c-0.1,0-0.2,0-0.3,0h-0.2h-0.2c-0.1,0-0.1,0-0.2,0h-0.2
	c-0.1,0-0.2,0-0.3,0H209c-0.1,0-0.1,0-0.2,0s-0.1,0-0.2,0c-0.1,0-0.1,0-0.2,0c-0.1,0-0.1,0-0.2,0c0,0-0.1,0-0.2,0
	c-0.1,0-0.1,0-0.2,0c0,0-0.1,0-0.2,0c0,0,0,0.5,0,0.5c0,0-0.1,0-0.2,0c0-0.1,0-0.4,0-0.5c0-0.1-0.1,0-0.2,0c0,0-0.1,0-0.2,0h-0.2
	c0,0-0.1,0-0.2,0c0,0-0.1,0-0.2,0h-0.2c0,0-0.1,0-0.2,0c0,0-0.1,0.1-0.2,0c0-0.1,0-0.4,0-0.5c0,0-0.1,0-0.2,0c0,0,0,0.5,0,0.5
	c0,0-0.1,0-0.2,0c0,0-0.1,0-0.2,0c0,0-0.1,0-0.2,0h-0.2c0,0-0.1,0-0.2,0c0,0-0.1-0.1-0.2,0c0,0.1,0,0.4,0,0.5c0,0-0.1,0-0.2,0
	c0,0,0-0.5,0-0.5c0,0-0.1,0-0.2,0c-0.1,0-0.1,0-0.2,0c-0.1,0-0.1,0-0.2,0h-0.3h-0.2h-0.2c-0.1,0-0.1,0-0.2,0c-0.1,0-0.1,0-0.2,0
	h-0.2c0,0-0.1,0-0.2,0c0,0-0.1-0.1-0.2,0c0,0.1,0,0.4,0,0.5c0,0-0.1,0-0.2,0c0,0,0-0.5,0-0.5c0,0-0.1,0-0.2,0c0,0-0.1,0-0.2,0
	c0,0-0.1-0.1-0.2,0c0,0.1,0,0.4,0,0.5c0,0-0.1,0-0.2,0c0,0,0-0.5,0-0.5c0,0-0.1,0-0.2,0c0,0-0.1,0-0.2,0c0,0-0.1,0-0.2,0h-0.3
	c0-0.1,0-0.4,0-0.5c0-0.1-0.1,0-0.2,0c0,0-0.1,0-0.2,0c0,0-0.1,0-0.2,0c0,0,0,0.5,0,0.5c0,0.1-0.1,0-0.2,0c0,0-0.1,0-0.2,0
	c0,0-0.1-0.1-0.2,0c0,0.1,0,0.4,0,0.5c0-0.1-0.1,0.1-0.2,0c0-0.1,0-0.4,0-0.5c0-0.1-0.1,0.1-0.2,0c0-0.1,0-0.4,0-0.5
	c0,0-0.1,0-0.2,0c0,0,0,0.5,0,0.5c0,0.1-0.1,0-0.2,0c0,0-0.1,0-0.2,0h-0.2h-0.2c-0.1,0-0.1,0-0.2,0c0,0-0.1,0-0.2,0
	c0,0-0.1,0.1-0.2,0c0-0.1,0-0.4,0-0.5c0,0-0.1,0-0.2,0c0,0,0,0.5,0,0.5c0,0-0.1,0-0.2,0c0,0-0.1,0-0.2,0c0,0-0.1,0-0.2,0
	c0,0-0.1-0.1-0.2,0c0,0.1,0,0.4,0,0.5c0-0.1-0.1,0.1-0.2,0c0-0.1,0-0.4,0-0.5c0-0.1-0.1,0-0.2,0c0,0-0.1,0-0.2,0h-0.2
	c0,0-0.1,0-0.2,0c0,0-0.1,0.1-0.2,0c0-0.1,0-0.4,0-0.5c0-0.1-0.1,0-0.2,0c0,0-0.1,0-0.2,0c0,0-0.1,0-0.2,0c0,0,0,0.5,0,0.5
	c0,0-0.1,0-0.2,0c-0.1,0-0.1,0-0.2,0h-0.3c-0.2,0-0.4,0-0.6,0c-0.1,0-0.1,0-0.2,0c0,0-0.1,0-0.2,0c0,0,0-0.5,0-0.5c0,0-0.1,0-0.2,0
	c0,0.1,0,0.4,0,0.5s-0.1-0.1-0.2,0c0,0.1,0,0.4,0,0.5h-0.2c0,0-0.1,0-0.2,0c0,0,0-0.4,0-0.5c0-0.1-0.1,0-0.2,0c0,0-0.1,0.1-0.2,0
	c0,0,0-0.5,0-0.5c0,0-0.1,0-0.2,0c0,0.1,0,0.4,0,0.5c-0.1,0-0.1,0-0.2,0c0,0-0.1,0-0.2,0c0,0,0,0.5,0,0.5c0,0-0.1,0-0.2,0
	c0,0-0.1,0-0.2,0c0,0,0-0.5,0-0.5c-0.1,0-0.1,0-0.2,0c-0.2,0-0.4,0-0.6,0h-0.2c0,0-0.1,0-0.2,0c-0.1,0-0.1,0-0.2,0
	c-0.1,0-0.2,0-0.3,0H192h-0.2c-0.1,0-0.2,0-0.3,0c-0.2,0-0.4,0-0.6,0h-0.2c-0.1,0-0.2,0-0.3,0c-0.2,0-0.4,0-0.6,0h-0.2
	c-0.2,0-0.4,0-0.6,0h-0.2c-0.1,0-0.1,0-0.2,0c0,0-0.1,0-0.2,0c-0.2,0-0.4,0-0.6,0h-0.2c-0.1,0-0.1,0-0.2,0c-0.1,0-0.1,0-0.2,0h-0.2
	c0,0-0.1,0-0.2,0c0,0,0,0.5,0,0.5c0,0-0.1,0-0.2,0c0,0,0-0.5,0-0.5c0,0-0.1,0-0.2,0c0,0-0.1-0.1-0.2,0c0,0.1,0,0.4,0,0.5
	c0,0-0.1,0-0.2,0c0,0-0.1,0-0.2,0c0-0.1,0-0.4,0-0.5c0,0-0.1,0-0.2,0c0,0-0.1,0-0.2,0H186c0,0-0.1,0-0.2,0c0,0,0,0.5,0,0.5
	c0,0-0.1,0-0.2,0c0,0-0.1,0-0.2,0c0,0,0-0.5,0-0.5h-0.2h-0.2c0,0-0.1,0-0.2,0c0,0,0,0.5,0,0.5c0,0.1-0.1,0-0.2,0c0,0-0.1,0-0.2,0
	c-0.1,0-0.1,0-0.2,0c0,0,0-0.5,0-0.5c0,0-0.1,0-0.2,0c0,0-0.1,0-0.2,0c0,0-0.1,0-0.2,0c-0.1,0-0.1,0-0.2,0h-0.2h-0.2
	c0,0,0,0.5,0,0.5c0,0-0.1,0-0.2,0c0,0-0.1,0-0.2,0c0,0,0-0.5,0-0.5c0-0.1-0.1,0-0.2,0c0,0-0.1,0-0.2,0c-0.1,0-0.1,0-0.2,0
	c0,0-0.1-0.1-0.2,0c0,0.1,0,0.4,0,0.5c0,0.1-0.1,0-0.2,0c0,0-0.1,0-0.2,0c0,0-0.1,0-0.2,0c0,0-0.1,0.1-0.2,0c0,0,0-0.5,0-0.5
	c-0.1,0-0.1,0-0.2,0c-0.2,0-0.4,0-0.6,0h-0.2c-0.1,0-0.1,0-0.2,0c0,0,0,0.5,0,0.5c0,0-0.1,0-0.2,0c0,0-0.1,0-0.2,0c0,0-0.1,0-0.2,0
	h-0.2h-0.2c-0.1,0-0.1,0-0.2,0H180c-0.1,0-0.1,0-0.2,0h-0.2c0,0-0.1,0-0.2,0c0,0,0-0.5,0-0.5c0,0-0.1,0-0.2,0c0,0-0.1,0-0.2,0
	c0,0,0,0.5,0,0.5c0,0-0.1,0-0.2,0c0-0.1,0-0.5,0-0.5c0,0-0.1,0-0.2,0c-0.1,0-0.1,0-0.2,0h-0.2c0,0-0.1,0-0.2,0c0,0,0,0.5,0,0.5
	c0,0-0.1,0-0.2,0c0,0-0.1,0-0.2,0c0-0.1,0-0.5,0-0.5c0,0-0.1,0-0.2,0c-0.1,0-0.1,0-0.2,0c0,0,0,0.5,0,0.5c0,0-0.1,0-0.2,0
	c0,0-0.1,0-0.2,0c0,0,0-0.5,0-0.5c-0.1,0-0.1,0-0.2,0c0,0-0.1-0.1-0.2,0c0,0,0,0.5,0,0.5c0,0-0.1,0-0.2,0c0,0-0.1,0-0.2,0
	c0-0.1,0-0.5,0-0.5c0,0-0.1,0-0.2,0c0,0-0.1,0-0.2,0c0,0,0,0.5,0,0.5h-0.2c0,0-0.1,0-0.2,0c0,0,0-0.5,0-0.5c0,0-0.1,0-0.2,0
	s-0.1,0-0.2,0c0,0.1,0,0.5,0,0.5c0,0-0.1,0-0.2,0c-0.1,0-0.1,0-0.2,0c0,0-0.1,0-0.2,0c0-0.1,0-0.5,0-0.5c0,0-0.1,0-0.2,0
	c-0.1,0-0.1,0-0.2,0c-0.1,0-0.1,0-0.2,0c0,0-0.1,0-0.2,0c0,0-0.1-0.1-0.2,0c0,0.1,0,0.4,0,0.5c0,0-0.1,0-0.2,0c0,0-0.1,0-0.2,0
	c0,0,0-0.5,0-0.5c0,0-0.1,0-0.2,0h-0.2H174c0,0-0.1,0-0.2,0c0,0,0,0.5,0,0.5c0,0-0.1,0-0.2,0c0,0-0.1,0-0.2,0c0,0,0-0.5,0-0.5
	c0,0-0.1,0-0.2,0c0,0,0,0.5,0,0.5c-0.1,0-0.1,0-0.2,0h-0.2h-0.2h-0.2c-0.1,0-0.1,0-0.2,0c-0.1,0-0.1,0-0.2,0c-0.1,0-0.1,0-0.2,0
	h-0.2c-0.1,0-0.2,0-0.3,0h-0.2h-0.3c-0.1,0-0.1,0-0.2,0h-0.2c-0.1,0-0.1,0-0.2,0c0,0-0.1,0-0.2,0c0,0,0-0.5,0-0.5c0,0-0.1,0-0.2,0
	c0,0.1,0,0.4,0,0.5c0,0-0.1,0-0.2,0c-0.1,0-0.1,0-0.2,0c0,0-0.1,0-0.2,0c0,0,0-0.5,0-0.5c0,0-0.1,0-0.2,0c0,0-0.1-0.1-0.2,0
	c0,0,0,0.5,0,0.5c-0.1,0-0.1,0-0.2,0c0,0-0.1,0-0.2,0c0,0-0.1,0.1-0.2,0c0-0.1,0-0.4,0-0.5c0,0-0.1,0-0.2,0c0,0-0.1,0-0.2,0
	c0,0.1,0,0.4,0,0.5c0,0.1-0.1,0-0.2,0c0,0-0.1,0-0.2,0h-0.2h-0.2c-0.1,0-0.1,0-0.2,0c0,0-0.1,0-0.2,0c0,0,0-0.5,0-0.5
	c0,0-0.1,0-0.2,0c0,0,0,0.5,0,0.5c-0.1,0-0.1,0-0.2,0h-0.2c0,0-0.1,0-0.2,0c0,0-0.1,0.1-0.2,0c0-0.1,0-0.4,0-0.5
	c0-0.1-0.1,0.1-0.2,0c0-0.1,0-0.4,0-0.5c0,0-0.1,0-0.2,0c0,0,0,0.5,0,0.5c0,0.1,0,0.5,0,0.5c0,0.1-0.1,0-0.2,0c0,0-0.1,0-0.2,0
	c0,0-0.1,0-0.2,0c-0.1,0-0.1,0-0.2,0c0,0-0.1,0-0.2,0c0,0,0-0.5,0-0.5c0,0-0.1,0-0.2,0c0,0-0.1,0-0.2,0c0,0,0,0.5,0,0.5
	c0,0-0.1,0-0.2,0c0,0-0.1,0-0.2,0c0,0,0-0.5,0-0.5c0,0-0.1,0-0.2,0c0,0,0,0.5,0,0.5c0,0-0.1,0-0.2,0c-0.1,0-0.1,0-0.2,0
	c0,0,0-0.5,0-0.5c0-0.1-0.1,0-0.2,0c0,0,0,0.5,0,0.5c0,0-0.1,0-0.2,0c0,0,0-0.5,0-0.5c0,0-0.1,0-0.2,0h-0.2h-0.2h-0.2h-0.2
	c-0.1,0-0.1,0-0.2,0c0,0-0.1,0-0.2,0c0,0-0.1-0.1-0.2,0c0,0.1,0,0.4,0,0.5c0,0-0.1,0-0.2,0c-0.1,0-0.1,0-0.2,0c0,0-0.1,0-0.2,0
	c0,0,0-0.5,0-0.5c0,0-0.1,0-0.2,0c-0.1,0-0.1,0-0.2,0h-0.2c-0.1,0-0.1,0-0.2,0h-0.2h-0.2c-0.2,0-0.4,0-0.6,0c-0.1,0-0.1,0-0.2,0
	h-0.2c0,0-0.1,0-0.2,0c-0.1,0-0.1,0-0.2,0c0,0-0.1,0-0.2,0c0,0,0,0.5,0,0.5c0,0-0.1,0-0.2,0c0,0,0-0.5,0-0.5c-0.1,0-0.1,0-0.2,0
	c-0.1,0-0.1,0-0.2,0c0,0-0.1,0-0.2,0c-0.1,0-0.1,0-0.2,0c0,0-0.1,0-0.2,0c0,0,0,0.5,0,0.5c-0.1,0-0.2,0-0.3,0h-0.2h-0.2
	c0,0-0.1,0-0.2,0c0,0,0-0.5,0-0.5c0-0.1-0.1,0-0.2,0c0,0-0.1,0-0.2,0h-0.2c-0.1,0-0.1,0-0.2,0c-0.1,0-0.1,0-0.2,0h-0.2h-0.2H158
	c0,0-0.1,0-0.2,0c0,0-0.1-0.1-0.2,0c0,0.1,0,0.4,0,0.5c0,0-0.1,0-0.2,0c0,0-0.1,0-0.2,0c0-0.1,0-0.4,0-0.5c0,0-0.1,0-0.2,0
	c-0.1,0-0.1,0-0.2,0c0,0-0.1,0-0.2,0c0,0,0,0.5,0,0.5c0,0-0.1,0-0.2,0c0,0,0-0.5,0-0.5c0,0-0.1,0-0.2,0c0,0-0.1,0-0.2,0
	c0,0,0,0.5,0,0.5c0,0-0.1,0-0.2,0c-0.1,0-0.1,0-0.2,0H156c0,0-0.1,0-0.2,0c0,0,0-0.5,0-0.5c0,0-0.1,0-0.2,0c-0.1,0-0.1,0-0.2,0
	c0,0-0.1,0-0.2,0c0,0,0,0.5,0,0.5c0,0-0.1,0-0.2,0c0-0.1,0-0.4,0-0.5c0,0-0.1,0-0.2,0c0,0-0.1,0-0.2,0c0,0,0,0.5,0,0.5
	c0,0-0.1,0-0.2,0c0-0.1,0-0.4,0-0.5c0,0-0.1,0-0.2,0c0,0-0.1,0-0.2,0c0,0-0.1,0-0.2,0c0,0,0,0.5,0,0.5c0,0-0.1,0-0.2,0
	c-0.1,0-0.1,0-0.2,0c0,0,0-0.5,0-0.5c0-0.1-0.1,0-0.2,0c0,0-0.1,0-0.2,0c0,0-0.1-0.1-0.2,0c0,0,0,0.5,0,0.5c0,0-0.1,0-0.2,0
	c0-0.1,0-0.4,0-0.5c0,0-0.1,0-0.2,0c0,0-0.1-0.1-0.2,0c0,0.1,0,0.4,0,0.5c0,0-0.1,0-0.2,0c0,0-0.1,0-0.2,0c0,0,0-0.5,0-0.5
	c0,0-0.1,0-0.2,0c0,0.1,0,0.4,0,0.5c0,0-0.1,0-0.2,0c-0.1,0-0.1,0-0.2,0h-0.2H152h-0.2h-0.2c0,0-0.1,0-0.2,0c0-0.1,0-0.5,0-0.5
	c0,0-0.1,0-0.2,0c0,0-0.1,0-0.2,0c0,0,0,0.5,0,0.5c-0.1,0-0.1,0-0.2,0H151c0,0-0.1,0-0.2,0c0,0-0.1,0.1-0.2,0c0-0.1,0-0.4,0-0.5
	c0,0-0.1,0-0.2,0c-0.1,0-0.1,0-0.2,0c0,0-0.1,0-0.2,0c0,0,0,0.5,0,0.5c0,0-0.1,0-0.2,0c0,0-0.1,0-0.2,0c0,0,0-0.5,0-0.5
	c0-0.1-0.1,0-0.2,0c0,0-0.1,0-0.2,0c0,0.1,0,0.4,0,0.5c0,0-0.1,0-0.2,0c-0.1,0-0.1,0-0.2,0h-0.2c-0.1,0-0.1,0-0.2,0h-0.2
	c0,0-0.1,0-0.2,0c0,0,0-0.5,0-0.5c0,0-0.1,0-0.2,0c0,0-0.1,0-0.2,0c0,0-0.1,0-0.2,0H148c-0.1,0-0.1,0-0.2,0c-0.1,0-0.1,0-0.2,0
	c0,0-0.1,0-0.2,0c0,0,0,0.5,0,0.5c0,0-0.1,0-0.2,0c0-0.1,0-0.5,0-0.5c0,0-0.1,0-0.2,0c0,0-0.1,0-0.2,0c0,0,0,0.5,0,0.5
	c0,0-0.1,0-0.2,0c0,0-0.1,0-0.2,0c0,0-0.1,0-0.2,0c-0.1,0-0.1,0-0.2,0h-0.2c0,0-0.1,0-0.2,0H146h-0.2h-0.2c0,0-0.1,0-0.2,0
	c0,0-0.1,0.1-0.2,0c0-0.1,0-0.5,0-0.5c0,0-0.1,0-0.2,0c-0.1,0-0.1,0-0.2,0c-0.1,0-0.1,0-0.2,0c0,0-0.1,0-0.2,0c0,0-0.1-0.1-0.2,0
	c0,0,0,0.5,0,0.5c0,0-0.1,0-0.2,0c0,0-0.1,0-0.2,0c0,0-0.1,0.1-0.2,0c0,0,0-0.5,0-0.5c0,0-0.1,0-0.2,0c0,0,0,0.5,0,0.5
	c0,0-0.1,0-0.2,0c0,0,0-0.5,0-0.5c0,0-0.1,0-0.2,0c-0.1,0-0.1,0-0.2,0h-0.2c-0.1,0-0.1,0-0.2,0c0,0,0,0.5,0,0.5c0,0-0.1,0-0.2,0
	c0,0,0-0.5,0-0.5c0-0.1-0.1,0-0.2,0c-0.1,0-0.1,0-0.2,0h-0.2h-0.2c-0.1,0-0.1,0-0.2,0c0,0,0,0.5,0,0.5c0,0.1-0.1,0-0.2,0
	c0,0-0.1,0-0.2,0h-0.2h-0.2c0,0-0.1,0-0.2,0c0,0-0.1,0.1-0.2,0c0,0,0-0.5,0-0.5c0,0-0.1,0-0.2,0c0,0.1,0,0.5,0,0.5c0,0-0.1,0-0.2,0
	c0,0-0.1,0-0.2,0c0,0-0.1,0-0.2,0c-0.1,0-0.1,0-0.2,0h-0.2c-0.1,0-0.1,0-0.2,0h-0.2c-0.1,0-0.1,0-0.2,0h-0.2c0,0-0.1,0-0.2,0
	c-0.1,0-0.1,0-0.2,0c0,0-0.1,0-0.2,0c0,0-0.1,0.1-0.2,0c0,0,0-0.5,0-0.5c0,0-0.1,0-0.2,0c0,0.1,0,0.5,0,0.5c0,0-0.1,0-0.2,0
	c0,0-0.1,0-0.2,0c0,0-0.1,0-0.2,0c-0.1,0-0.1,0-0.2,0h-0.2c-0.1,0-0.1,0-0.2,0c0,0,0-0.5,0-0.5c0,0-0.1,0-0.2,0c0,0,0,0.5,0,0.5
	c0,0-0.1,0-0.2,0c0,0-0.1,0-0.2,0h-0.2h-0.2c-0.1,0-0.1,0-0.2,0c-0.1,0-0.1,0-0.2,0H137c-0.2,0-0.4,0-0.6,0h-0.2c-0.1,0-0.1,0-0.2,0
	c0,0-0.1,0-0.2,0c0,0,0-0.5,0-0.5c0,0-0.1,0-0.2,0c0,0,0,0.5,0,0.5c0,0-0.1,0-0.2,0c-0.1,0-0.1,0-0.2,0h-0.2c-0.1,0-0.1,0-0.2,0
	c0,0-0.1,0-0.2,0c0,0,0-0.5,0-0.5c0,0-0.1,0-0.2,0c0,0,0,0.5,0,0.5c-0.1,0-0.1,0-0.2,0h-0.2h-0.2h-0.2c-0.1,0-0.1,0-0.2,0
	c-0.1,0-0.1,0-0.2,0h-0.2c0,0-0.1,0-0.2,0c0,0-0.1,0-0.2,0c0,0,0-0.5,0-0.5c0,0-0.1,0-0.2,0c0,0,0,0.5,0,0.5c-0.1,0-0.1,0-0.2,0
	c-0.1,0-0.1,0-0.2,0h-0.2c-0.1,0-0.1,0-0.2,0c0,0-0.1,0-0.2,0c0,0-0.1,0-0.2,0c0,0,0-0.5,0-0.5c0,0-0.1,0-0.2,0c0,0-0.1,0-0.2,0
	c0,0-0.1,0-0.2,0c0,0,0,0.5,0,0.5c0,0.1-0.1,0-0.2,0c0,0-0.1,0-0.2,0h-0.2h-0.2c0,0-0.1,0-0.2,0c0,0-0.1,0-0.2,0c0,0,0-0.5,0-0.5
	c0,0-0.1,0-0.2,0c0,0,0,0.5,0,0.5c0,0-0.1,0-0.2,0c0,0-0.1-0.1-0.2,0c0,0,0,0.4,0,0.5c0,0.1-0.1-0.1-0.2,0c0-0.1,0-0.4,0-0.5
	c0,0-0.1,0-0.2,0c0,0-0.1,0-0.2,0c0,0-0.1,0-0.2,0h-0.2c-0.1,0-0.1,0-0.2,0c-0.1,0-0.1,0-0.2,0c0,0,0-0.5,0-0.5c0,0-0.1,0-0.2,0
	c0,0-0.1,0-0.2,0c0,0,0,0.5,0,0.5c0,0-0.1,0-0.2,0c0-0.1,0-0.5,0-0.5c0,0-0.1,0-0.2,0h-0.2c0,0-0.1-0.1-0.2,0c0,0.1,0,0.4,0,0.5
	c0,0.1-0.1,0-0.2,0c0,0-0.1,0-0.2,0h-0.2h-0.2c-0.1,0-0.1,0-0.2,0c0,0-0.1,0-0.2,0c-0.1,0-0.1,0-0.2,0h-0.2c0,0-0.1,0-0.2,0
	c0,0-0.1,0-0.2,0c0,0-0.1,0-0.2,0c0,0-0.1,0.1-0.2,0c0,0,0-0.5,0-0.5c-0.1,0-0.1,0-0.2,0h-0.2c0,0-0.1,0-0.2,0c0,0,0,0.5,0,0.5
	c0,0-0.1,0-0.2,0c0,0,0-0.5,0-0.5c0,0-0.1,0-0.2,0c0,0-0.1,0-0.2,0c0,0.1,0,0.5,0,0.5c0,0-0.1,0-0.2,0c-0.1,0-0.1,0-0.2,0
	s-0.1,0-0.2,0c0,0-0.1,0-0.2,0c0,0,0-0.5,0-0.5c0,0-0.1,0-0.2,0c0,0,0,0.5,0,0.5c0,0.1-0.1,0-0.2,0c0,0-0.1,0-0.2,0
	c-0.1,0-0.1,0-0.2,0c0,0,0-0.5,0-0.5c0,0-0.1,0-0.2,0s-0.1,0-0.2,0c0,0,0,0.5,0,0.5c-0.1,0-0.1,0-0.2,0c-0.1,0-0.1,0-0.2,0
	c-0.2,0-0.4,0-0.6,0h-0.2c-0.1,0-0.1,0-0.2,0c-0.1,0-0.1,0-0.2,0h-0.2h-0.2h-0.2c0,0-0.1,0-0.2,0c0,0,0-0.5,0-0.5c0,0-0.1,0-0.2,0
	c0,0-0.1,0-0.2,0c0,0-0.1,0-0.2,0h-0.2h-0.2c0,0-0.1,0-0.2,0c-0.1,0-0.1,0-0.2,0c-0.1,0-0.1,0-0.2,0c0,0-0.1,0-0.2,0
	c0,0,0,0.5,0,0.5c0,0-0.1,0-0.2,0c0-0.1,0-0.4,0-0.5c0,0-0.1,0-0.2,0c0,0,0,0.5,0,0.5c0,0-0.1,0-0.2,0c-0.1,0-0.1,0-0.2,0
	c-0.1,0-0.1,0-0.2,0c-0.1,0-0.1,0-0.2,0c0,0-0.1,0-0.2,0c0,0-0.1,0.1-0.2,0c0-0.1,0-0.4,0-0.5c0,0-0.1,0-0.2,0c0,0-0.1-0.1-0.2,0
	c0,0.1,0,0.4,0,0.5c0,0.1-0.1,0-0.2,0c0,0-0.1,0-0.2,0h-0.2c-0.1,0-0.1,0-0.2,0c-0.1,0-0.1,0-0.2,0h-0.2h-0.2h-0.3
	c-0.1,0-0.1,0-0.2,0h-0.3h-0.2c-0.1,0-0.1,0-0.2,0c-0.1,0-0.1,0-0.2,0c0,0-0.1,0.1-0.2,0c0-0.1,0-0.4,0-0.5c0,0-0.1,0-0.2,0
	c0,0,0,0.5,0,0.5c0,0-0.1,0-0.2,0c-0.1,0-0.1,0-0.2,0c0,0-0.1,0-0.2,0c0-0.1,0-0.4,0-0.5c0,0-0.1,0-0.2,0c0,0,0,0.5,0,0.5
	c0,0-0.1,0-0.2,0c-0.1,0-0.1,0-0.2,0c-0.1,0-0.1,0-0.2,0h-0.2c-0.1,0-0.1,0-0.2,0H115h-0.2c-0.1,0-0.2,0-0.3,0h-0.2h-0.2h-0.2
	c0,0,0-0.5,0-0.5c0,0-0.1,0-0.2,0c0,0-0.1,0-0.2,0c0,0-0.1-0.1-0.2,0c0,0.1,0,0.4,0,0.5c0,0-0.1,0-0.2,0c0,0-0.1,0-0.2,0H113
	c-0.1,0-0.1,0-0.2,0h-0.2h-0.2c0,0-0.1,0-0.2,0c0-0.1,0-0.4,0-0.5c0,0-0.1,0-0.2,0c0,0-0.1-0.1-0.2,0c0,0.1,0,0.4,0,0.5
	c0,0-0.1,0-0.2,0c-0.1,0-0.1,0-0.2,0c-0.1,0-0.2,0-0.3,0h-0.2h-0.2c0,0-0.1,0-0.2,0c-0.1,0-0.1,0-0.2,0c0,0-0.1,0-0.2,0
	c0,0,0-0.5,0-0.5c0,0-0.1,0-0.2,0c0,0.1,0,0.4,0,0.5c0,0-0.1,0-0.2,0c-0.1,0-0.1,0-0.2,0h-0.2c0,0-0.1,0-0.2,0c0,0,0-0.5,0-0.5
	c0,0-0.2,0-0.2,0c0,0,0,0.5,0,0.5c-0.1,0-0.1,0-0.2,0c-0.1,0-0.1,0-0.2,0c-0.1,0-0.1,0-0.2,0c0,0-0.1,0-0.2,0c0,0,0-0.5,0-0.5
	c-0.1,0-0.1,0-0.2,0c0,0-0.1-0.1-0.2,0c0,0,0,0.5,0,0.5c0,0-0.1,0-0.2,0c0,0-0.1,0-0.2,0c0,0,0-0.5,0-0.5c0,0-0.1-0.1-0.2,0
	c0,0.1,0,0.4,0,0.5c0,0-0.1,0-0.2,0c0,0-0.1,0-0.2,0c0-0.1,0-0.4,0-0.5c0,0-0.1,0-0.2,0c-0.1,0-0.1,0-0.2,0c0,0-0.1,0-0.2,0
	c0,0,0,0.5,0,0.5c0,0-0.1,0-0.2,0h-0.2c0,0-0.1,0-0.2,0c0,0-0.1,0-0.2,0c0-0.1,0-0.4,0-0.5c0-0.1-0.1,0-0.2,0c0,0-0.1,0-0.2,0h-0.2
	c-0.1,0-0.1,0-0.2,0c-0.1,0-0.1,0-0.2,0c0,0-0.1-0.1-0.2,0c0,0,0,0.5,0,0.5c0,0-0.1,0-0.2,0c0-0.1,0-0.4,0-0.5c0,0-0.1,0-0.2,0
	c0,0,0,0.5,0,0.5c0,0-0.1,0-0.2,0c0,0-0.1,0-0.2,0c0,0-0.1,0-0.2,0h-0.2c-0.1,0-0.1,0-0.2,0c-0.1,0-0.1,0-0.2,0h-0.3h-0.2h-0.2
	c-0.1,0-0.1,0-0.2,0c0,0,0-0.5,0-0.5c0-0.1-0.1,0-0.2,0c0,0-0.1,0-0.2,0c0,0.1,0,0.4,0,0.5c0,0-0.1,0-0.2,0c0,0-0.1,0-0.2,0h-0.3
	H103h-0.2c-0.1,0-0.1,0-0.2,0h-0.2c-0.1,0-0.1,0-0.2,0c0,0-0.1,0-0.2,0c0,0-0.1,0.1-0.2,0c0-0.1,0-0.4,0-0.5c0,0-0.1,0-0.2,0
	c0,0,0,0.5,0,0.5c0,0-0.1,0-0.2,0c-0.1,0-0.1,0-0.2,0c0,0-0.1,0-0.2,0s-0.1,0-0.2,0c-0.1,0-0.1,0-0.2,0c0,0,0-0.5,0-0.5
	c0,0-0.1,0-0.2,0c-0.1,0-0.1,0-0.2,0c0,0-0.1-0.1-0.2,0c0,0.1,0,0.4,0,0.5c0,0-0.1,0-0.2,0c-0.1,0-0.1,0-0.2,0h-0.2c0,0-0.1,0-0.2,0
	c0,0-0.1,0.1-0.2,0c0-0.1,0-0.4,0-0.5c0,0-0.1,0-0.2,0c-0.1,0-0.1,0-0.2,0c0,0-0.1-0.1-0.2,0c0,0,0,0.5,0,0.5c0,0-0.1,0-0.2,0
	c-0.1,0-0.1,0-0.2,0c-0.1,0-0.1,0-0.2,0c0,0-0.1,0.1-0.2,0c0-0.1,0-0.4,0-0.5c0-0.1-0.1,0.1-0.2,0c0,0,0-0.4,0-0.5c0,0-0.1,0-0.2,0
	c0,0.1,0,0.4,0,0.5h-0.2c0,0-0.1,0-0.2,0c0,0-0.1-0.1-0.2,0c0,0,0,0.5,0,0.5c0,0-0.1,0-0.2,0h-0.2h-0.2c0,0-0.1,0-0.2,0
	c0,0,0-0.5,0-0.5c0,0-0.1,0-0.2,0c0,0,0,0.5,0,0.5c0,0-0.1,0-0.2,0c0,0-0.1,0-0.2,0h-0.2h-0.2c-0.1,0-0.1,0-0.2,0c0,0-0.1,0-0.2,0
	h-0.2h-0.2c0,0-0.1,0-0.2,0c0,0-0.1,0.1-0.2,0c0,0,0-0.5,0-0.5c0,0-0.1,0-0.2,0c0,0,0,0.5,0,0.5c0,0-0.1,0-0.2,0c0-0.1,0-0.5,0-0.5
	c0,0-0.1,0-0.2,0c-0.1,0-0.1,0-0.2,0c0,0,0,0.5,0,0.5c0,0.1-0.1,0-0.2,0c0,0-0.1,0-0.2,0h-0.2c-0.1,0-0.1,0-0.2,0h-0.2
	c-0.2,0-0.4,0-0.6,0h-0.2c-0.1,0-0.1,0-0.2,0c0,0,0-0.5,0-0.5c0-0.1-0.1,0-0.2,0c0,0-0.1,0-0.2,0c0,0-0.1,0-0.2,0c0,0-0.1,0-0.2,0
	c0,0.1,0,0.5,0,0.5c0,0-0.1,0-0.2,0h-0.2c-0.1,0-0.1,0-0.2,0c0,0-0.1,0-0.2,0c0,0-0.1,0.1-0.2,0c0,0,0-0.5,0-0.5c0,0-0.1,0-0.2,0
	h-0.2h-0.2c-0.1,0-0.1,0-0.2,0c0,0-0.1,0-0.2,0c0,0.1,0,0.5,0,0.5c0,0-0.1,0-0.2,0c0,0-0.1,0-0.2,0c0,0-0.1,0-0.2,0
	c-0.1,0-0.1,0-0.2,0h-0.2c-0.1,0-0.1,0-0.2,0c-0.1,0-0.1,0-0.2,0h-0.2h-0.3c-0.2,0-0.4,0-0.6,0c-0.2,0-0.4,0-0.6,0h-0.3h-0.2
	c-0.1,0-0.1,0-0.2,0h-0.2h-0.2c-0.1,0-0.1,0-0.2,0s-0.1,0-0.2,0c0,0,0,0.5,0,0.5c0,0-0.1,0-0.2,0c0,0,0-0.5,0-0.5c0,0-0.1,0-0.2,0
	C87,1,87,1,86.9,1c-0.1,0-0.1,0-0.2,0c-0.2,0-0.4,0-0.6,0H86c-0.1,0-0.1,0-0.2,0c-0.1,0-0.1,0-0.2,0h-0.2c-0.2,0-0.4,0-0.6,0h-0.2
	c-0.1,0-0.1,0-0.2,0c-0.1,0-0.1,0-0.2,0h-0.2c-0.1,0-0.1,0-0.2,0c-0.1,0-0.1,0-0.2,0c0,0,0-0.5,0-0.5c0,0-0.1,0-0.2,0
	c0,0,0,0.5,0,0.5c0,0-0.1,0-0.2,0c0,0,0-0.5,0-0.5c0,0-0.1,0-0.2,0c0,0,0,0.5,0,0.5c0,0-0.1,0-0.2,0c0,0-0.1,0-0.2,0
	c0,0,0-0.5,0-0.5c0,0-0.1,0-0.2,0c0,0,0,0.5,0,0.5c0,0-0.1,0-0.2,0c0-0.1,0-0.5,0-0.5c0,0-0.1,0-0.2,0c0,0-0.1,0-0.2,0
	c0,0,0,0.5,0,0.5c0,0.1-0.1-0.1-0.2,0c0,0.1,0,0.4,0,0.5c0,0.1-0.1-0.1-0.2,0c0-0.1,0-0.4,0-0.5c0,0-0.1,0-0.2,0c-0.1,0-0.1,0-0.2,0
	c0,0-0.1,0-0.2,0h-0.2c-0.1,0-0.1,0-0.2,0c0,0-0.1,0.1-0.2,0c0-0.1,0-0.4,0-0.5c0-0.1-0.1,0-0.2,0c0,0,0,0.5,0,0.5c0,0-0.1,0-0.2,0
	c0,0-0.1,0-0.2,0c0,0,0-0.5,0-0.5c-0.1,0-0.1,0-0.2,0c0,0-0.1,0-0.2,0c0,0,0,0.5,0,0.5c0,0-0.1,0-0.2,0c0-0.1,0-0.5,0-0.5
	c0,0-0.1,0-0.2,0c-0.1,0-0.1,0-0.2,0c0,0,0,0.5,0,0.5c0,0-0.1,0-0.2,0c0,0-0.1,0-0.2,0c0,0-0.1,0-0.2,0h-0.2h-0.2
	c-0.1,0-0.1,0-0.2,0c-0.1,0-0.1,0-0.2,0c-0.1,0-0.2,0-0.3,0h-0.2h-0.2c-0.1,0-0.1,0-0.2,0c-0.1,0-0.1,0-0.2,0H78c0,0-0.1,0-0.2,0
	c0,0-0.1-0.1-0.2,0c0,0,0,0.5,0,0.5c0,0-0.1,0-0.2,0c0,0,0-0.5,0-0.5c-0.1,0-0.1,0-0.2,0h-0.2c-0.1,0-0.1,0-0.2,0c0,0-0.1,0-0.2,0
	c0,0-0.1,0-0.2,0c0,0,0-0.4,0-0.5c0-0.1-0.1,0-0.2,0c0,0,0,0.5,0,0.5c0,0-0.1,0-0.2,0c-0.1,0-0.1,0-0.2,0c0,0,0-0.5,0-0.5
	c0-0.1-0.1,0-0.2,0c0,0-0.1,0-0.2,0c-0.1,0-0.1,0-0.2,0c-0.1,0-0.1,0-0.2,0h-0.2c0,0-0.1,0-0.2,0c0,0,0,0.5,0,0.5c0,0-0.1,0-0.2,0
	c0,0-0.1,0-0.2,0c0,0-0.1,0-0.2,0h-0.2c0,0-0.1,0-0.2,0c0,0-0.1-0.1-0.2,0c0,0.1,0,0.5,0,0.5c0,0-0.1,0-0.2,0c-0.1,0-0.1,0-0.2,0
	c0,0-0.1,0-0.2,0c0-0.1,0-0.4,0-0.5c0-0.1-0.1,0-0.2,0c0,0-0.1,0-0.2,0c-0.1,0-0.1,0-0.2,0h-0.2c-0.1,0-0.1,0-0.2,0
	c-0.1,0-0.1,0-0.2,0H73c-0.2,0-0.4,0-0.6,0h-0.2c0,0-0.1,0-0.2,0c-0.1,0-0.1,0-0.2,0h-0.3c-0.1,0-0.2,0-0.3,0h-0.2H71
	c0,0,0,0.5,0,0.5c0,0-0.1,0-0.2,0c0,0,0-0.5,0-0.5c0-0.1-0.1,0-0.2,0c0,0-0.1,0.1-0.2,0c0,0,0-0.5,0-0.5c0,0-0.1,0-0.2,0
	c0,0.1,0,0.4,0,0.5c-0.1,0-0.2,0-0.3,0h-0.2c-0.1,0-0.1,0-0.2,0c-0.1,0-0.1,0-0.2,0c0,0-0.1,0-0.2,0c0,0-0.1-0.1-0.2,0
	c0,0.1,0,0.4,0,0.5c0,0-0.1,0-0.2,0c0,0-0.1,0-0.2,0c0-0.1,0-0.4,0-0.5c0-0.1-0.1,0.1-0.2,0c0,0,0-0.5,0-0.5c0,0-0.1,0-0.2,0
	c0,0.1,0,0.4,0,0.5c0,0.1-0.1-0.1-0.2,0c0,0.1,0,0.4,0,0.5c0,0-0.1,0-0.2,0c0,0,0-0.5,0-0.5c0-0.1-0.1,0-0.2,0c0,0-0.1,0-0.2,0
	c-0.1,0-0.1,0-0.2,0c0,0,0,0.5,0,0.5c0,0-0.1,0-0.2,0c0,0,0-0.5,0-0.5c0,0-0.1,0-0.2,0h-0.2c-0.1,0-0.1,0-0.2,0c-0.1,0-0.1,0-0.2,0
	c-0.1,0-0.1,0-0.2,0h-0.2c0,0-0.1,0-0.2,0c-0.1,0-0.1,0-0.2,0c0,0-0.1,0-0.2,0c0,0-0.1-0.1-0.2,0c0,0.1,0,0.4,0,0.5c0,0-0.1,0-0.2,0
	c0,0,0-0.5,0-0.5c0,0-0.1,0-0.2,0c0,0,0,0.5,0,0.5c0,0-0.1,0-0.2,0c0,0,0-0.5,0-0.5c0-0.1-0.1,0-0.2,0c0,0-0.1,0-0.2,0
	c-0.1,0-0.1,0-0.2,0c-0.1,0-0.1,0-0.2,0H65c0,0-0.1,0-0.2,0c0,0,0,0.4,0,0.5c0,0.1-0.1,0-0.2,0c0,0,0-0.5,0-0.5c0-0.1-0.1,0-0.2,0
	c0,0-0.1,0-0.2,0c0,0.1,0,0.4,0,0.5c0,0-0.1,0-0.2,0c-0.1,0-0.1,0-0.2,0c0,0-0.1,0-0.2,0c0,0-0.1,0.1-0.2,0c0,0,0-0.5,0-0.5
	c0,0-0.1,0-0.2,0c-0.1,0-0.1,0-0.2,0h-0.2h-0.2c-0.1,0-0.1,0-0.2,0c0,0-0.1,0-0.2,0c0,0-0.1,0-0.2,0c0,0,0,0.5,0,0.5
	c0,0-0.1,0-0.2,0c-0.1,0-0.1,0-0.2,0c0,0-0.1,0.1-0.2,0c0-0.1,0-0.5,0-0.5c0-0.1-0.1,0-0.2,0c0,0-0.1,0-0.2,0c0-0.1,0-0.4,0-0.5
	h-0.2c0,0-0.1,0-0.2,0c0,0,0,0.5,0,0.5c0,0-0.1,0-0.2,0c0,0-0.1,0-0.2,0c0,0-0.1,0-0.2,0H61h-0.2c-0.1,0-0.1,0-0.2,0
	c-0.1,0-0.1,0-0.2,0h-0.2c-0.1,0-0.1,0-0.2,0c-0.1,0-0.1,0-0.2,0c0,0-0.1-0.1-0.2,0c0,0,0,0.4,0,0.5c0,0-0.1,0-0.2,0
	c0,0-0.1,0-0.2,0c0-0.1,0-0.4,0-0.5c0-0.1-0.1,0-0.2,0c0,0-0.1,0-0.2,0c0,0,0,0.5,0,0.5c0,0-0.1,0-0.2,0c0,0,0-0.5,0-0.5
	c-0.1,0-0.1,0-0.2,0c0,0-0.1,0-0.2,0c0,0,0,0.5,0,0.5c0,0-0.1,0-0.2,0s-0.1,0-0.2,0c0,0-0.1,0.1-0.2,0c0,0,0-0.5,0-0.5
	c-0.1,0-0.1,0-0.2,0c0,0-0.1-0.1-0.2,0c0,0,0,0.5,0,0.5c0,0-0.1,0-0.2,0c0,0-0.1,0-0.2,0c0,0-0.1,0.1-0.2,0c0,0,0-0.5,0-0.5
	c0,0-0.1,0-0.2,0c-0.1,0-0.1,0-0.2,0c0,0-0.1,0-0.2,0c0,0-0.1-0.1-0.2,0c0,0.1,0,0.5,0,0.5c0,0-0.1,0-0.2,0c-0.1,0-0.1,0-0.2,0
	c0,0-0.1,0.1-0.2,0c0-0.1,0-0.4,0-0.5c0-0.1-0.1,0-0.2,0c0,0-0.1,0-0.2,0c0,0.1,0,0.5,0,0.5c0,0-0.1,0-0.2,0c0,0-0.1,0-0.2,0
	c0,0-0.1,0.1-0.2,0c0-0.1,0-0.4,0-0.5c0-0.1-0.1,0-0.2,0c0,0-0.1,0-0.2,0c0,0-0.1,0-0.2,0c0,0,0-0.5,0-0.5c0-0.1-0.1,0-0.2,0
	c0,0,0,0.5,0,0.5H55h-0.2c-0.1,0-0.1,0-0.2,0c-0.1,0-0.1,0-0.2,0c0,0-0.1,0-0.2,0c0,0-0.1-0.1-0.2,0c0,0,0,0.5,0,0.5
	c0,0-0.1,0-0.2,0c0-0.1,0-0.4,0-0.5c0,0-0.1,0-0.2,0c0,0,0,0.5,0,0.5c0,0.1-0.1,0-0.2,0c0,0-0.1,0-0.2,0c-0.1,0-0.1,0-0.2,0h-0.2
	c0,0-0.1,0-0.2,0c0,0,0-0.5,0-0.5c0,0-0.1,0-0.2,0c0,0-0.1,0-0.2,0c0,0-0.1,0-0.2,0h-0.2c-0.1,0-0.1,0-0.2,0h-0.2h-0.2
	c-0.1,0-0.1,0-0.2,0h-0.2h-0.2h-0.2c-0.1,0-0.1,0-0.2,0c0,0,0,0.5,0,0.5c0,0-0.1,0-0.2,0c-0.1,0-0.1,0-0.2,0c0,0-0.1,0.1-0.2,0
	c0-0.1,0-0.4,0-0.5c0,0-0.1,0-0.2,0c-0.1,0-0.1,0-0.2,0c-0.1,0-0.1,0-0.2,0c-0.1,0-0.1,0-0.2,0c0,0-0.1,0-0.2,0c0,0,0-0.5,0-0.5
	c0,0-0.1,0-0.2,0c0,0.1,0,0.5,0,0.5c0,0-0.1,0-0.2,0c0,0-0.1,0-0.2,0c-0.1,0-0.1,0-0.2,0c-0.1,0-0.1,0-0.2,0h-0.2H49
	c-0.1,0-0.1,0-0.2,0s-0.1,0-0.2,0c-0.1,0-0.1,0-0.2,0h-0.2c-0.1,0-0.1,0-0.2,0c-0.1,0-0.1,0-0.2,0c0,0-0.1,0-0.2,0c0,0,0,0.5,0,0.5
	c-0.1,0-0.1,0-0.2,0c0,0-0.1,0-0.2,0c0,0,0-0.5,0-0.5c0,0-0.1,0-0.2,0c0,0-0.1,0-0.2,0c0,0-0.1,0-0.2,0H47h-0.2c-0.1,0-0.1,0-0.2,0
	c-0.1,0-0.1,0-0.2,0c-0.1,0-0.1,0-0.2,0h-0.2h-0.2c-0.1,0-0.2,0-0.3,0h-0.2h-0.3c-0.1,0-0.1,0-0.2,0H45c-0.1,0-0.1,0-0.2,0
	c-0.1,0-0.1,0-0.2,0c-0.1,0-0.1,0-0.2,0c-0.1,0-0.1,0-0.2,0c0,0-0.1,0-0.2,0c0,0,0,0.5,0,0.5c-0.1,0-0.1,0-0.2,0c0,0-0.1,0-0.2,0
	c0,0,0-0.5,0-0.5c0,0-0.1,0-0.2,0c-0.1,0-0.1,0-0.2,0c0,0-0.1,0-0.2,0c0,0.1,0,0.5,0,0.5c0,0-0.1,0-0.2,0h-0.2c-0.1,0-0.1,0-0.2,0
	c0,0-0.1,0.1-0.2,0c0,0,0-0.4,0-0.5c0-0.1-0.1,0-0.2,0c0,0-0.1,0-0.2,0h-0.2c-0.1,0-0.1,0-0.2,0c-0.1,0-0.1,0-0.2,0
	c-0.1,0-0.1,0-0.2,0c0,0-0.1,0-0.2,0c0,0-0.1-0.1-0.2,0c0,0,0,0.5,0,0.5c0,0-0.1,0-0.2,0c0-0.1,0-0.5,0-0.5c0-0.1-0.1,0-0.2,0h-0.2
	c-0.1,0-0.1,0-0.2,0c-0.1,0-0.1,0-0.2,0c-0.1,0-0.1,0-0.2,0c-0.1,0-0.1,0-0.2,0c0,0-0.1,0-0.2,0c0,0,0,0.5,0,0.5c-0.1,0-0.1,0-0.2,0
	h-0.2c0,0-0.1,0-0.2,0c0,0,0-0.5,0-0.5c0,0-0.1,0-0.2,0c-0.1,0-0.1,0-0.2,0c0,0,0,0.5,0,0.5c0,0.1-0.1,0-0.2,0c0,0-0.1,0-0.2,0h-0.2
	c-0.1,0-0.1,0-0.2,0c0,0-0.1,0-0.2,0h-0.2h-0.2c-0.1,0-0.1,0-0.2,0c-0.1,0-0.1,0-0.2,0c0,0-0.1,0-0.2,0c0-0.1,0-0.5,0-0.5
	c0,0-0.1,0-0.2,0c-0.1,0-0.1,0-0.2,0c-0.1,0-0.1,0-0.2,0c0,0-0.1-0.1-0.2,0c0,0.1,0,0.4,0,0.5c0,0.1-0.1,0-0.2,0c0,0-0.1,0-0.2,0H37
	c-0.1,0-0.1,0-0.2,0c-0.1,0-0.1,0-0.2,0c0,0-0.1,0-0.2,0c0,0,0-0.5,0-0.5c0,0-0.1,0-0.2,0c0,0-0.1,0-0.2,0c0,0,0,0.5,0,0.5
	c0,0-0.1,0-0.2,0c0,0,0-0.5,0-0.5c0,0-0.1,0-0.2,0c-0.1,0-0.1,0-0.2,0c0,0,0,0.5,0,0.5c0,0-0.1,0-0.2,0c0,0,0-0.5,0-0.5
	c0,0-0.1,0-0.2,0c-0.1,0-0.1,0-0.2,0c-0.1,0-0.1,0-0.2,0H35c0,0-0.1,0-0.2,0c0,0,0,0.5,0,0.5c0,0-0.1,0-0.2,0c-0.1,0-0.1,0-0.2,0
	c0,0,0-0.5,0-0.5c0-0.1-0.1,0-0.2,0c0,0-0.1,0-0.2,0c0,0-0.1,0-0.2,0c0,0,0,0.5,0,0.5c-0.1,0-0.1,0-0.2,0c0,0-0.1,0-0.2,0
	c0,0,0-0.5,0-0.5c0,0-0.1,0-0.2,0c-0.1,0-0.1,0-0.2,0c-0.1,0-0.1,0-0.2,0c0,0,0,0.5,0,0.5c0,0.1-0.1,0-0.2,0c0,0-0.1,0-0.2,0
	c0,0-0.1,0-0.2,0c0,0,0-0.5,0-0.5c-0.1,0-0.1,0-0.2,0h-0.2c0,0-0.1,0-0.2,0c0,0,0,0.5,0,0.5c0,0-0.1,0-0.2,0c-0.1,0-0.1,0-0.2,0
	c0,0,0-0.5,0-0.5c0-0.1-0.1,0-0.2,0c0,0-0.1,0-0.2,0c0,0-0.1-0.1-0.2,0c0,0,0,0.5,0,0.5c0,0-0.1,0-0.2,0c-0.1,0-0.1,0-0.2,0h-0.2H31
	c-0.1,0-0.1,0-0.2,0c0,0-0.1,0-0.2,0c0,0,0-0.5,0-0.5c0,0-0.1,0-0.2,0c0,0-0.1,0-0.2,0c0,0,0,0.5,0,0.5c-0.1,0-0.1,0-0.2,0
	c0,0-0.1,0-0.2,0c0,0,0-0.5,0-0.5c0,0-0.1,0-0.2,0h-0.2h-0.2c0,0-0.1,0-0.2,0c0,0.1,0,0.5,0,0.5c0,0-0.1,0-0.2,0c-0.1,0-0.1,0-0.2,0
	c-0.1,0-0.1,0-0.2,0c0,0,0-0.5,0-0.5c0-0.1-0.1,0-0.2,0c0,0-0.1,0-0.2,0c0,0.1,0,0.4,0,0.5c0,0-0.1,0-0.2,0c-0.1,0-0.1,0-0.2,0
	c0,0-0.1,0-0.2,0c0,0-0.1,0.1-0.2,0c0-0.1,0-0.4,0-0.5c0,0-0.1,0-0.2,0c0,0,0,0.5,0,0.5c0,0-0.1,0-0.2,0c0,0-0.1,0-0.2,0
	c0,0-0.1,0-0.2,0h-0.2c0,0-0.1,0-0.2,0c-0.1,0-0.1,0-0.2,0h-0.2h-0.2c-0.1,0-0.1,0-0.2,0c-0.1,0-0.1,0-0.2,0c0,0,0-0.5,0-0.5
	c0,0-0.1,0-0.2,0c0,0,0,0.5,0,0.5c0,0-0.1,0-0.2,0H26c-0.1,0-0.1,0-0.2,0h-0.2h-0.2h-0.2c-0.1,0-0.1,0-0.2,0c-0.1,0-0.1,0-0.2,0
	h-0.2c0,0-0.1,0-0.2,0c0,0-0.1,0.1-0.2,0c0-0.1,0-0.4,0-0.5c0,0-0.1,0-0.2,0c0,0,0,0.5,0,0.5c0,0.1-0.1,0-0.2,0c0,0-0.1,0-0.2,0H24
	c-0.1,0-0.1,0-0.2,0c0,0,0-0.5,0-0.5c0,0-0.1,0-0.2,0c0,0,0,0.5,0,0.5c-0.1,0-0.1,0-0.2,0c0,0-0.1,0-0.2,0c0,0,0-0.5,0-0.5
	c0,0-0.1,0-0.2,0c0,0.1,0,0.5,0,0.5c0,0-0.1,0-0.2,0h-0.2c-0.1,0-0.1,0-0.2,0c0,0-0.1,0-0.2,0c0-0.1,0-0.4,0-0.5c0,0-0.1,0-0.2,0
	c0,0,0,0.5,0,0.5c0,0-0.1,0-0.2,0h-0.2c-0.1,0-0.1,0-0.2,0h-0.2h-0.2c-0.2,0-0.4,0-0.6,0c-0.1,0-0.1,0-0.2,0h-0.2
	c-0.1,0-0.1,0-0.2,0c-0.1,0-0.1,0-0.2,0c0,0-0.1,0-0.2,0c0,0,0-0.5,0-0.5c0,0-0.1,0-0.2,0c0,0,0,0.5,0,0.5c-0.1,0-0.1,0-0.2,0
	c-0.1,0-0.2,0-0.3,0c-0.1,0-0.1,0-0.2,0h-0.2c-0.1,0-0.1,0-0.2,0c-0.1,0-0.1,0-0.2,0c0,0-0.1,0-0.2,0c0,0-0.1,0.1-0.2,0
	c0-0.1,0-0.4,0-0.5c0,0-0.1,0-0.2,0c0,0-0.1,0-0.2,0c0,0,0,0.5,0,0.5c0,0-0.1,0-0.2,0c0,0-0.1,0-0.2,0c0,0,0-0.5,0-0.5
	c-0.1,0-0.1,0-0.2,0c0,0-0.1,0-0.2,0c0,0,0,0.5,0,0.5c0,0-0.1,0-0.2,0c0,0-0.1,0-0.2,0c0,0-0.1,0-0.2,0h-0.3c0,0-0.1,0-0.2,0h-0.2
	c-0.1,0-0.1,0-0.2,0c-0.1,0-0.1,0-0.2,0c-0.1,0-0.1,0-0.2,0c-0.1,0-0.1,0-0.2,0c0,0-0.1,0-0.2,0c0,0,0-0.5,0-0.5c0,0-0.1,0-0.2,0
	c0,0,0,0.5,0,0.5c0,0-0.1,0-0.2,0h-0.2h-0.2c0,0,0-0.5,0-0.5c0,0-0.1,0-0.2,0c0,0,0,0.5,0,0.5c0,0-0.1,0-0.2,0c-0.1,0-0.1,0-0.2,0
	c0,0-0.1,0-0.2,0c0-0.1,0-0.4,0-0.5c0,0-0.1,0-0.2,0c0,0,0,0.5,0,0.5c0,0-0.1,0-0.2,0c-0.1,0-0.1,0-0.2,0c-0.1,0-0.1,0-0.2,0H14
	h-0.2h-0.3h-0.2h-0.3c-0.1,0-0.1,0-0.2,0h-0.2h-0.2c-0.1,0-0.1,0-0.2,0c-0.1,0-0.1,0-0.2,0c-0.1,0-0.1,0-0.2,0c0,0-0.1,0-0.2,0
	c0,0,0-0.5,0-0.5c0,0-0.1-0.1-0.2,0c0,0.1,0,0.4,0,0.5c0,0.1-0.1-0.1-0.2,0c0,0.1-0.1-0.1-0.2,0c0,0.1,0,0.4,0,0.5
	c0,0.1-0.1-0.1-0.2,0c0-0.1,0-0.4,0-0.5c0-0.1-0.1,0-0.2,0c0,0-0.1,0-0.2,0c0,0-0.1,0-0.2,0c0,0-0.1,0-0.2,0c0,0-0.1,0-0.2,0
	c0,0-0.1,0.1-0.2,0c0,0,0-0.5,0-0.5c-0.1,0-0.1,0-0.2,0h-0.2H10c0,0-0.1,0-0.2,0c0,0-0.1-0.1-0.2,0c0,0.1,0,0.5,0,0.5
	c0,0-0.1,0-0.2,0c-0.1,0-0.1,0-0.2,0H9.2H9.1H8.9c-0.1,0-0.1,0-0.2,0c0,0,0-0.5,0-0.5c0,0-0.1,0-0.2,0c0,0,0,0.5,0,0.5
	c0,0-0.1,0-0.2,0c0,0-0.1,0-0.2,0c0-0.1,0-0.5,0-0.5c0,0-0.1,0-0.2,0c-0.1,0-0.1,0-0.2,0c0,0-0.1,0-0.2,0c0,0,0,0.5,0,0.5
	c0,0-0.1,0-0.2,0H7.5c-0.1,0-0.1,0-0.2,0c-0.1,0-0.1,0-0.2,0c0,0-0.1,0-0.2,0c0,0-0.1,0.1-0.2,0c0,0,0-0.5,0-0.5c0,0-0.1,0-0.2,0
	c-0.1,0-0.1,0-0.2,0H6.5c-0.1,0-0.1,0-0.2,0c0,0-0.1,0-0.2,0c0,0.1,0,0.5,0,0.5c0,0-0.1,0-0.2,0c-0.1,0-0.1,0-0.2,0c0,0,0-0.5,0-0.5
	c0-0.1-0.1,0-0.2,0c0,0-0.1,0-0.2,0H5.4c-0.1,0-0.1,0-0.2,0c0,0-0.1,0-0.2,0c0,0-0.1-0.1-0.2,0c0,0,0,0.5,0,0.5c0,0-0.1,0-0.2,0H4.6
	c-0.1,0-0.1,0-0.2,0H4.3c0,0,0-0.5,0-0.5c0,0-0.1,0-0.2,0c0,0-0.1,0-0.2,0c0,0,0,0.5,0,0.5c-0.1,0-0.1,0-0.2,0c0,0-0.1,0-0.2,0
	c0,0,0-0.5,0-0.5c0,0-0.1,0-0.2,0c-0.1,0-0.1,0-0.2,0c-0.1,0-0.1,0-0.2,0H3.1H2.9c0,0-0.1,0-0.2,0c0,0,0,0.5,0,0.5
	c0,0.1-0.1,0-0.2,0c0,0-0.1,0-0.1,0v0H2.4v2h0.1v0.5h0h0.2c0.1,0,0.1,0,0.2,0c0.1,0,0.1,0,0.2,0c0.1,0,0.2,0,0.3,0h0.2h0.2
	c0.1,0,0.1,0,0.2,0c0.1,0,0.1,0,0.2,0c0,0,0.1,0,0.2,0c0,0,0,0.5,0,0.5c0,0,0.1,0,0.2,0c0-0.1,0-0.5,0-0.5c0,0,0.1,0,0.2,0
	c0.1,0,0.1,0,0.2,0c0.1,0,0.1,0,0.2,0h0.2c0,0,0.1,0,0.2,0c0,0,0,0.5,0,0.5c0,0,0.1,0,0.2,0c0,0,0-0.5,0-0.5c0,0,0.1,0,0.2,0
	c0.1,0,0.1,0,0.2,0h0.2c0,0,0.1,0,0.2,0c0,0,0.1-0.1,0.2,0c0,0.1,0,0.5,0,0.5c0,0,0.1,0,0.2,0h0.2c0,0,0-0.5,0-0.5c0,0,0.1,0,0.2,0
	c0.1,0,0.1,0,0.2,0c0,0,0.1,0,0.2,0h0.2c0.1,0,0.1,0,0.2,0c0,0,0.1,0,0.2,0h0.6h0.2H8c0.1,0,0.1,0,0.2,0h0.3h0.2h0.2
	c0.1,0,0.1,0,0.2,0c0,0,0.1-0.1,0.2,0c0,0.1,0,0.4,0,0.5c0,0,0.1,0,0.2,0c0,0,0.1,0,0.2,0c0-0.1,0-0.5,0-0.5c0,0,0.1,0,0.2,0h0.2
	h0.2h0.3c0.1,0,0.1,0,0.2,0h0.3h0.2c0.2,0,0.4,0,0.6,0h0.2c0.1,0,0.1,0,0.2,0c0.1,0,0.1,0,0.2,0H12c0.1,0,0.1,0,0.2,0
	c0.1,0,0.1,0,0.2,0c0,0,0.1,0,0.2,0c0,0,0.1,0.1,0.2,0c0,0,0-0.5,0-0.5c0,0,0.1,0,0.2,0c0,0.1,0,0.4,0,0.5c0,0,0.1,0,0.2,0
	c0,0,0.1,0,0.2,0c0-0.1,0-0.5,0-0.5c0,0,0.1,0,0.2,0h0.2c0,0,0,0.5,0,0.5c0,0,0.1,0,0.2,0c0,0,0-0.5,0-0.5c0,0,0.1-0.1,0.2,0
	c0,0.1,0,0.4,0,0.5c0,0,0.1,0,0.2,0H14h0.2c0.1,0,0.1,0,0.2,0c0,0,0.1,0,0.2,0c0,0,0.1,0,0.2,0c0,0,0-0.5,0-0.5c0,0,0.1,0,0.2,0
	c0,0,0.1,0,0.2,0c0,0.1,0,0.4,0,0.5c0,0.1,0.1,0,0.2,0c0,0,0.1,0,0.2,0h0.2c0.1,0,0.1,0,0.2,0c0,0,0.1,0,0.2,0c0-0.1,0-0.4,0-0.5
	c0,0,0.1,0,0.2,0c0,0,0.1,0,0.2,0c0,0.1,0,0.5,0,0.5c0,0,0.1,0,0.2,0c0.1,0,0.1,0,0.2,0c0.1,0,0.1,0,0.2,0c0,0,0.1,0,0.2,0
	c0,0,0,0.5,0,0.5c0,0,0.1,0,0.2,0c0,0,0.1,0,0.2,0c0,0,0-0.5,0-0.5c0.1,0,0.1,0,0.2,0c0,0,0.1,0,0.2,0c0,0,0,0.5,0,0.5
	c0,0,0.1,0,0.2,0c0-0.1,0-0.5,0-0.5c0,0,0.1,0,0.2,0c0.1,0,0.1,0,0.2,0c0.1,0,0.1,0,0.2,0c0,0,0.1,0,0.2,0c0,0,0-0.5,0-0.5
	c0,0,0.1,0,0.2,0c0,0.1,0,0.5,0,0.5c0,0,0.1,0,0.2,0c0.1,0,0.1,0,0.2,0c0.1,0,0.1,0,0.2,0h0.2c0,0,0.1,0,0.2,0c0,0,0-0.5,0-0.5
	c0-0.1,0.1,0,0.2,0c0,0,0.1,0,0.2,0h0.2c0,0,0.1-0.1,0.2,0c0,0.1,0,0.4,0,0.5c0,0.1,0.1,0,0.2,0c0,0,0.1,0,0.2,0c0,0,0-0.5,0-0.5
	c0,0,0.1,0,0.2,0c0,0,0,0.5,0,0.5c0.1,0,0.1,0,0.2,0h0.2c0.2,0,0.4,0,0.6,0h0.2h0.2c0.1,0,0.1,0,0.2,0c0,0,0.1,0,0.2,0
	c0,0,0-0.5,0-0.5c0,0,0.1,0,0.2,0s0.1,0,0.2,0c0,0.1,0,0.5,0,0.5c0,0,0.1,0,0.2,0c0.1,0,0.1,0,0.2,0c0.1,0,0.1,0,0.2,0h0.2h0.2
	c0,0,0.1,0,0.2,0c0,0,0.1,0.1,0.2,0c0-0.1,0-0.5,0-0.5c0,0,0.1,0,0.2,0h0.2c0,0.1,0,0.4,0,0.5c0,0.1,0.1,0,0.2,0c0,0,0-0.5,0-0.5
	c0,0,0.1,0,0.2,0c0,0.1,0,0.5,0,0.5c0,0,0.1-0.1,0.2,0c0,0.1,0,0.5,0,0.5c0,0.1,0.1,0,0.2,0c0,0,0.1,0,0.2,0c0,0.1,0,0.4,0,0.5h0.6
	c0-0.1,0-0.4,0-0.5c0-0.1,0.1,0.1,0.2,0c0-0.1,0.1,0.1,0.2,0c0-0.1,0-0.4,0-0.5c0-0.1,0.1,0,0.2,0c0,0,0.1,0,0.2,0
	c0.1,0,0.1,0,0.2,0h0.2c0.1,0,0.2,0,0.3,0c0-0.1,0-0.4,0-0.5c0,0,0.1,0,0.2,0c0,0,0.1-0.1,0.2,0c0,0.1,0,0.5,0,0.5c0,0,0.1,0,0.2,0
	c0,0,0.1,0,0.2,0c0,0,0.1,0,0.2,0c0,0,0.1,0,0.2,0c0,0,0,0.5,0,0.5c0,0,0.1,0,0.2,0c0-0.1,0-0.4,0-0.5H27h0.3c0.1,0,0.1,0,0.2,0h0.2
	c0.1,0,0.1,0,0.2,0c0.1,0,0.1,0,0.2,0c0.1,0,0.1,0,0.2,0c0,0,0.1,0,0.2,0c0,0,0.1,0.1,0.2,0c0-0.1,0-0.4,0-0.5c0,0,0.1,0,0.2,0
	c0,0,0,0.5,0,0.5c0,0,0.1,0,0.2,0c0.1,0,0.1,0,0.2,0c0,0,0.1,0,0.2,0h0.2c0.1,0,0.1,0,0.2,0c0,0,0.1,0,0.2,0c0.1,0,0.1,0,0.2,0
	c0.1,0,0.1,0,0.2,0c0,0,0.1,0,0.2,0c0,0,0.1,0,0.2,0c0,0,0,0.5,0,0.5c0,0,0.1,0,0.2,0c0,0,0-0.5,0-0.5c0,0,0.1,0,0.2,0
	c0.1,0,0.1,0,0.2,0c0.1,0,0.1,0,0.2,0h0.2c0.1,0,0.1,0,0.2,0c0.1,0,0.1,0,0.2,0c0.2,0,0.4,0,0.6,0H32c0.1,0,0.1,0,0.2,0
	c0.1,0,0.1,0,0.2,0c0.1,0,0.2,0,0.3,0h0.2c0.1,0,0.1,0,0.2,0c0,0,0.1,0,0.2,0c0,0,0.1,0,0.2,0h0.2c0,0,0.1,0,0.2,0c0,0,0,0.5,0,0.5
	c0,0.1,0.1-0.1,0.2,0c0,0.1,0,0.4,0,0.5c0,0,0.1,0,0.2,0c0,0,0-0.5,0-0.5c0-0.1,0.1,0.1,0.2,0c0-0.1,0-0.5,0-0.5c0,0,0.1,0,0.2,0
	h0.2c0,0,0.1,0,0.2,0c0,0,0.1,0.1,0.2,0c0-0.1,0-0.4,0-0.5c0,0,0.1,0,0.2,0c0,0,0,0.5,0,0.5c0,0.1,0.1,0,0.2,0c0,0,0.1,0,0.2,0
	c0.1,0,0.1,0,0.2,0c0.1,0,0.1,0,0.2,0c0,0,0.1,0,0.2,0c0,0,0-0.5,0-0.5c0,0,0.1,0,0.2,0c0,0.1,0,0.5,0,0.5c0,0,0.1,0,0.2,0h0.2
	c0,0,0.1,0.1,0.2,0c0-0.1,0-0.4,0-0.5c0,0,0.1,0,0.2,0c0,0,0,0.5,0,0.5c0,0.1,0.1,0,0.2,0c0,0,0.1,0,0.2,0c0.1,0,0.1,0,0.2,0
	c0.1,0,0.1,0,0.2,0h0.6h0.2c0.1,0,0.1,0,0.2,0c0,0,0.1,0.1,0.2,0c0-0.1,0-0.4,0-0.5c0-0.1,0.1,0,0.2,0c0,0,0,0.5,0,0.5
	c0,0,0.1,0,0.2,0c0,0,0.1,0,0.2,0c0,0,0-0.5,0-0.5c0.1,0,0.1,0,0.2,0c0,0,0.1,0,0.2,0c0,0,0,0.5,0,0.5c0,0,0.1,0,0.2,0H39h0.2
	c0.1,0,0.1,0,0.2,0s0.1,0,0.2,0c0.2,0,0.4,0,0.6,0h0.2h0.2h0.2c0.2,0,0.4,0,0.6,0h0.2c0.1,0,0.1,0,0.2,0c0.1,0,0.1,0,0.2,0h0.2
	c0.1,0,0.1,0,0.2,0c0.1,0,0.1,0,0.2,0c0,0,0.1,0,0.2,0c0,0,0.1,0.1,0.2,0c0,0,0-0.5,0-0.5c0.1,0,0.1,0,0.2,0c0,0,0.1,0,0.2,0
	c0,0,0,0.5,0,0.5c0,0,0.1,0,0.2,0H43h0.2c0.1,0,0.1,0,0.2,0c0.1,0,0.1,0,0.2,0h0.2c0,0,0.1,0,0.2,0c0,0,0.1,0,0.2,0c0,0,0.1,0,0.2,0
	c0,0,0-0.4,0-0.5c0,0,0.1,0,0.2,0c0.1,0,0.1,0,0.2,0c0,0,0.1,0,0.2,0c0,0,0,0.5,0,0.5c0,0,0.1,0,0.2,0h0.2c0.1,0,0.1,0,0.2,0
	c0.1,0,0.1,0,0.2,0c0.1,0,0.1,0,0.2,0h0.6c0.1,0,0.1,0,0.2,0c0.1,0,0.1,0,0.2,0c0,0,0.1,0,0.2,0c0,0,0.1,0,0.2,0c0,0,0-0.5,0-0.5
	c0,0,0.1,0,0.2,0c0,0,0.1,0,0.2,0c0,0,0.1-0.1,0.2,0c0,0,0,0.5,0,0.5c0.1,0,0.1,0,0.2,0c0.1,0,0.2,0,0.3,0c0.2,0,0.4,0,0.6,0
	c0,0.1,0,0.4,0,0.5c0,0,0.1,0,0.2,0c0-0.1,0-0.5,0-0.5c0,0,0.1,0.1,0.2,0c0-0.1,0-0.5,0-0.5c0,0,0.1,0,0.2,0c0.1,0,0.1,0,0.2,0
	c0,0,0,0.5,0,0.5c0,0.1,0.1,0,0.2,0c0,0,0.1,0,0.2,0c0.1,0,0.1,0,0.2,0c0.1,0,0.1,0,0.2,0h0.2c0.1,0,0.1,0,0.2,0c0.1,0,0.1,0,0.2,0
	c0.1,0,0.1,0,0.2,0h0.2h0.2c0,0,0.1,0,0.2,0c0,0,0.1,0,0.2,0c0,0,0.1,0,0.2,0c0,0,0-0.4,0-0.5c0,0,0.1,0,0.2,0c0.1,0,0.1,0,0.2,0
	c0.1,0,0.1,0,0.2,0h0.2c0,0,0.1,0,0.2,0c0,0,0.1-0.1,0.2,0c0,0.1,0,0.5,0,0.5c0,0,0.1,0,0.2,0h0.2c0,0.1,0,0.4,0,0.5
	c0,0,0.1,0,0.2,0c0,0,0-0.5,0-0.5c0-0.1,0.1,0,0.2,0c0,0,0-0.5,0-0.5c0,0,0.1,0,0.2,0s0.1,0,0.2,0c0,0,0,0.5,0,0.5
	c0,0,0.1,0.1,0.2,0c0-0.1,0-0.5,0-0.5c0,0,0.1,0,0.2,0c0,0,0.1,0,0.2,0c0.1,0,0.1,0,0.2,0c0.1,0,0.1,0,0.2,0h0.2c0.1,0,0.1,0,0.2,0
	c0.1,0,0.1,0,0.2,0c0,0,0.1,0,0.2,0c0.2,0,0.4,0,0.6,0h0.2c0.1,0,0.1,0,0.2,0c0.1,0,0.1,0,0.2,0c0,0,0.1,0,0.2,0c0,0,0.1-0.1,0.2,0
	c0,0,0,0.5,0,0.5c0.1,0,0.1,0,0.2,0c0,0,0.1,0,0.2,0c0,0,0-0.5,0-0.5c0,0,0.1,0,0.2,0c0.1,0,0.1,0,0.2,0c0,0,0.1,0,0.2,0
	c0,0,0.1-0.1,0.2,0c0,0,0,0.5,0,0.5c0.1,0,0.1,0,0.2,0c0,0,0.1,0,0.2,0c0,0,0-0.5,0-0.5c0,0,0.1,0,0.2,0c0,0,0,0.5,0,0.5
	c0,0,0.1,0,0.2,0c0,0,0-0.5,0-0.5c0,0,0.1,0,0.2,0c0.1,0,0.1,0,0.2,0c0,0,0.1,0,0.2,0c0,0,0.1-0.1,0.2,0c0,0,0,0.5,0,0.5h0.2h0.2
	c0.1,0,0.1,0,0.2,0c0.1,0,0.1,0,0.2,0c0,0,0-0.5,0-0.5c0,0,0.1,0,0.2,0s0.1,0,0.2,0c0,0,0,0.5,0,0.5c0.1,0,0.1,0,0.2,0
	c0,0,0.1,0,0.2,0c0,0,0.1,0.1,0.2,0c0,0,0-0.5,0-0.5c0,0,0.1,0,0.2,0h0.2h0.2c0.1,0,0.1,0,0.2,0c0,0,0.1,0,0.2,0c0,0,0,0.5,0,0.5
	c0,0,0.1,0,0.2,0c0,0,0-0.5,0-0.5c0.1,0,0.1,0,0.2,0c0.1,0,0.1,0,0.2,0h0.2c0.1,0,0.1,0,0.2,0c0.1,0,0.1,0,0.2,0c0.1,0,0.1,0,0.2,0
	h0.2c0.1,0,0.1,0,0.2,0c0.1,0,0.1,0,0.2,0c0,0,0.1,0,0.2,0c0,0,0,0.5,0,0.5c0,0,0.1,0,0.2,0h0.2c0,0,0.1,0,0.2,0c0,0,0.1,0.1,0.2,0
	c0,0,0-0.5,0-0.5c0,0,0.1,0,0.2,0c0.1,0,0.1,0,0.2,0h0.2c0.1,0,0.1,0,0.2,0c0,0,0.1,0,0.2,0h0.2c0.1,0,0.1,0,0.2,0
	c0.1,0,0.1,0,0.2,0c0.1,0,0.1,0,0.2,0c0,0,0.1,0,0.2,0c0,0,0.1-0.1,0.2,0c0,0,0,0.5,0,0.5c0,0,0.1,0,0.2,0c0-0.1,0-0.5,0-0.5
	c0,0,0.1,0,0.2,0c0,0,0.1,0,0.2,0c0,0,0.1,0,0.2,0h0.2h0.2c0.1,0,0.1,0,0.2,0c0.1,0,0.1,0,0.2,0c0.1,0,0.1,0,0.2,0
	c0.2,0,0.4,0,0.6,0h0.2c0.1,0,0.1,0,0.2,0H66c0.1,0,0.1,0,0.2,0h0.3c0.2,0,0.4,0,0.6,0c0.2,0,0.4,0,0.6,0H68h0.2c0.1,0,0.1,0,0.2,0
	c0,0,0,0.5,0,0.5c0,0,0.1,0,0.2,0c0,0,0-0.5,0-0.5c0,0,0.1,0,0.2,0c0,0,0.1-0.1,0.2,0c0,0.1,0,0.5,0,0.5c0,0,0.1,0,0.2,0
	c0.1,0,0.1,0,0.2,0c0,0,0.1,0,0.2,0c0-0.1,0-0.5,0-0.5c0,0,0.1,0,0.2,0c0,0,0.1,0,0.2,0c0.1,0,0.1,0,0.2,0h0.2H70h0.2h0.2
	c0.1,0,0.1,0,0.2,0h0.2c0,0,0.1,0,0.2,0c0,0,0.1-0.1,0.2,0c0,0.1,0,0.5,0,0.5c0,0,0.1,0,0.2,0c0.1,0,0.1,0,0.2,0c0.1,0,0.1,0,0.2,0
	c0,0,0.1,0,0.2,0c0,0,0.1,0.1,0.2,0c0,0,0-0.5,0-0.5c0,0,0.1,0,0.2,0c0,0.1,0,0.5,0,0.5c0,0,0.1,0,0.2,0c0.1,0,0.1,0,0.2,0
	c0.1,0,0.1,0,0.2,0c0,0,0.1,0,0.2,0c0,0,0-0.5,0-0.5c0,0,0.1,0,0.2,0c0,0,0.1,0,0.2,0c0,0,0,0.5,0,0.5c0,0,0.1,0,0.2,0h0.2
	c0,0,0.1,0,0.2,0c0,0,0-0.5,0-0.5c0,0,0.1,0,0.2,0c0,0,0,0.5,0,0.5c0,0.1,0.1,0,0.2,0c0,0,0.1,0,0.2,0h0.2c0,0.1,0,0.4,0,0.5
	c0,0,0.1,0,0.2,0c0,0,0-0.5,0-0.5c0-0.1,0.1,0,0.2,0c0,0,0-0.5,0-0.5c0-0.1,0.1,0,0.2,0c0,0,0.1,0,0.2,0c0.1,0,0.1,0,0.2,0
	c0.1,0,0.1,0,0.2,0c0,0,0.1,0,0.2,0c0,0.1,0,0.5,0,0.5c0,0,0.1,0,0.2,0c0,0,0.1,0,0.2,0c0,0,0-0.5,0-0.5c0,0,0.1,0,0.2,0h0.2h0.2
	c0.1,0,0.1,0,0.2,0c0.1,0,0.1,0,0.2,0c0.1,0,0.1,0,0.2,0c0,0,0.1,0,0.2,0c0.1,0,0.1,0,0.2,0c0,0,0.1,0,0.2,0c0,0,0,0.5,0,0.5
	c0,0,0.1,0,0.2,0h0.2h0.2c0.1,0,0.1,0,0.2,0c0.1,0,0.1,0,0.2,0h0.2h0.3C77.9,4,78,4,78,4h0.2c0,0,0.1,0,0.2,0c0,0,0-0.5,0-0.5
	c0,0,0.1,0,0.2,0c0.1,0,0.1,0,0.2,0s0.1,0,0.2,0c0,0,0.1,0,0.2,0c0,0,0,0.5,0,0.5C79,4,79,4,79.1,4c0,0,0.1,0,0.2,0c0,0,0-0.5,0-0.5
	c0,0,0.1,0,0.2,0c0,0.1,0,0.4,0,0.5c0,0,0.1,0,0.2,0c0.1,0,0.1,0,0.2,0h0.2c0,0,0.1,0,0.2,0c0,0,0-0.5,0-0.5c0,0,0.1,0,0.2,0h0.2
	c0,0,0,0.5,0,0.5c0,0,0.1,0,0.2,0h0.2c0.1,0,0.1,0,0.2,0c0,0,0.1,0,0.2,0c0,0,0-0.5,0-0.5c0,0,0.1-0.1,0.2,0c0,0.1,0,0.4,0,0.5
	c0,0.1,0.1,0,0.2,0c0,0,0.1,0,0.2,0c0.1,0,0.1,0,0.2,0c0.1,0,0.1,0,0.2,0c0,0,0-0.5,0-0.5c0,0,0.1,0,0.2,0c0,0,0.1,0,0.2,0
	c0,0,0,0.5,0,0.5c0,0,0.1,0,0.2,0c0.1,0,0.1,0,0.2,0c0.1,0,0.1,0,0.2,0c0.1,0,0.1,0,0.2,0c0.1,0,0.1,0,0.2,0c0.1,0,0.1,0,0.2,0
	c0,0,0.1,0,0.2,0c0,0,0.1,0.1,0.2,0c0,0,0-0.5,0-0.5c0.1,0,0.1,0,0.2,0c0.1,0,0.2,0,0.3,0h0.2H84c0.1,0,0.1,0,0.2,0c0,0,0,0.5,0,0.5
	c0,0,0.1,0,0.2,0c0,0,0.1,0,0.2,0c0,0,0-0.5,0-0.5c0,0,0.1,0,0.2,0c0.1,0,0.1,0,0.2,0c0,0,0,0.5,0,0.5c0,0,0.1,0,0.2,0
	c0,0,0.1,0,0.2,0c0,0,0-0.5,0-0.5c0,0,0.1,0,0.2,0c0.1,0,0.1,0,0.2,0c0.1,0,0.1,0,0.2,0h0.2c0.1,0,0.1,0,0.2,0c0,0,0.1,0,0.2,0
	c0,0,0.1,0,0.2,0c0,0,0,0.4,0,0.5c0,0,0.1,0,0.2,0c0,0,0-0.5,0-0.5c0,0,0.1,0,0.2,0c0,0,0.1,0,0.2,0c0,0,0.1-0.1,0.2,0
	c0,0.1,0,0.4,0,0.5c0,0,0.1,0,0.2,0c0,0,0.1,0.1,0.2,0c0-0.1,0-0.4,0-0.5c0-0.1,0.1,0,0.2,0c0,0,0.1,0,0.2,0h0.2c0.1,0,0.1,0,0.2,0
	c0.1,0,0.1,0,0.2,0c0,0,0.1,0,0.2,0c0,0,0,0.5,0,0.5c0,0,0.1,0,0.2,0c0.1,0,0.1,0,0.2,0c0.1,0,0.1,0,0.2,0c0,0,0-0.5,0-0.5
	c0,0,0.1,0,0.2,0c0.1,0,0.1,0,0.2,0c0,0,0,0.5,0,0.5c0,0.1,0.1,0,0.2,0c0,0,0.1,0,0.2,0c0.1,0,0.1,0,0.2,0c0.1,0,0.1,0,0.2,0
	c0,0,0.1,0,0.2,0c0,0,0.1,0.1,0.2,0c0-0.1,0-0.5,0-0.5c0,0,0.1,0,0.2,0c0,0,0.1,0,0.2,0c0,0,0-0.5,0-0.5c0-0.1,0.1,0,0.2,0
	c0,0,0.1,0,0.2,0c0,0.1,0,0.5,0,0.5c0,0.1,0.1,0,0.2,0c0.1,0,0.1,0,0.2,0c0,0,0-0.5,0-0.5c0-0.1,0.1,0,0.2,0c0,0,0.1,0,0.2,0
	c0,0,0.1,0,0.2,0c0,0,0,0.5,0,0.5c0.1,0,0.1,0,0.2,0h0.2h0.2c0.1,0,0.1,0,0.2,0c0,0,0-0.5,0-0.5c0,0,0.1,0,0.2,0c0,0,0,0.5,0,0.5
	c0,0,0.1,0,0.2,0c0.1,0,0.1,0,0.2,0c0,0,0.1,0,0.2,0c0-0.1,0-0.5,0-0.5c0-0.1,0.1,0,0.2,0c0.1,0,0.1,0,0.2,0c0,0,0.1,0,0.2,0
	c0,0,0,0.5,0,0.5c0,0,0.1,0,0.2,0c0,0,0.1,0.1,0.2,0c0,0,0-0.5,0-0.5h0.2c0,0,0.1,0,0.2,0c0,0,0,0.5,0,0.5c0,0.1,0.1,0,0.2,0
	c0,0,0.1,0,0.2,0h0.2H94c0.1,0,0.1,0,0.2,0c0.1,0,0.1,0,0.2,0h0.2h0.2c0.1,0,0.1,0,0.2,0c0,0,0.1,0,0.2,0c0,0,0.1,0,0.2,0
	c0,0,0-0.5,0-0.5c0,0,0.1,0,0.2,0c0.1,0,0.1,0,0.2,0c0,0,0,0.5,0,0.5c0,0.1,0.1,0,0.2,0c0,0,0.1,0,0.2,0c0.1,0,0.1,0,0.2,0H96
	c0,0,0.1,0,0.2,0c0,0,0.1,0.1,0.2,0c0-0.1,0-0.4,0-0.5c0,0,0.1,0,0.2,0c0,0,0.1,0,0.2,0c0,0,0,0.5,0,0.5c0,0,0.1,0,0.2,0
	c0,0,0.1,0,0.2,0c0,0,0.1,0,0.2,0c0,0,0.1,0,0.2,0c0,0,0,0.5,0,0.5c0,0,0.1,0,0.2,0h0.2c0-0.1,0-0.4,0-0.5c0-0.1,0.1,0.1,0.2,0
	c0-0.1,0-0.4,0-0.5c0,0,0.1,0,0.2,0c0,0.1,0,0.4,0,0.5c0.1,0,0.1,0,0.2,0c0,0,0.1,0,0.2,0c0,0,0-0.5,0-0.5c0,0,0.1,0,0.2,0
	c0,0,0.1-0.1,0.2,0c0,0,0,0.4,0,0.5c0,0,0.1,0,0.2,0c0,0,0-0.5,0-0.5c0,0,0.1,0,0.2,0c0,0,0,0.5,0,0.5c0,0,0.1,0,0.2,0
	c0.1,0,0.1,0,0.2,0c0,0,0.1,0,0.2,0c0,0,0-0.5,0-0.5c0,0,0.1,0,0.2,0h0.2h0.2c0,0,0.1,0,0.2,0c0,0,0.1-0.1,0.2,0c0,0.1,0,0.5,0,0.5
	c0,0.1,0.1,0,0.2,0c0,0,0.1,0,0.2,0c0,0,0.1,0,0.2,0c0-0.1,0-0.5,0-0.5c0-0.1,0.1,0,0.2,0c0,0,0.1,0,0.2,0c0,0,0,0.5,0,0.5
	c0,0.1,0.1-0.1,0.2,0c0,0.1,0.1-0.1,0.2,0c0,0.1,0,0.4,0,0.5h0.3c0-0.1,0.1,0.1,0.2,0c0-0.1,0-0.4,0-0.5c0-0.1,0.1,0.1,0.2,0
	c0-0.1,0.1,0.1,0.2,0c0-0.1,0-0.4,0-0.5c0-0.1,0.1,0,0.2,0c0,0,0.1,0,0.2,0c0.1,0,0.1,0,0.2,0c0,0,0.1,0,0.2,0c0,0,0.1-0.1,0.2,0
	c0,0.1,0,0.5,0,0.5c0,0,0.1,0,0.2,0c0.1,0,0.1,0,0.2,0c0.1,0,0.1,0,0.2,0h0.2c0,0,0.1,0,0.2,0c0,0,0.1,0,0.2,0c0,0,0.1,0,0.2,0
	c0,0,0-0.5,0-0.5c0,0,0.1,0,0.2,0c0,0.1,0,0.4,0,0.5c0,0.1,0.1,0,0.2,0c0,0,0.1,0,0.2,0c0,0,0-0.5,0-0.5c0,0,0.1,0,0.2,0
	c0,0,0,0.5,0,0.5c0.1,0,0.1,0,0.2,0c0,0,0.1,0.1,0.2,0c0,0,0-0.5,0-0.5c0,0,0.1,0,0.2,0h0.2c0.1,0,0.1,0,0.2,0c0,0,0.1,0,0.2,0
	c0,0.1,0,0.4,0,0.5c0,0.1,0.1,0,0.2,0c0,0,0.1,0,0.2,0c0,0,0-0.5,0-0.5c0,0,0.1,0,0.2,0c0,0,0,0.5,0,0.5c0,0,0.1,0.1,0.2,0
	c0-0.1,0-0.4,0-0.5c0-0.1,0.1,0,0.2,0c0,0,0.1,0,0.2,0h0.2c0.1,0,0.1,0,0.2,0c0,0,0,0.5,0,0.5c0,0,0.1,0,0.2,0c0,0,0.1,0,0.2,0
	c0,0,0.1,0,0.2,0h0.2h0.2c0.1,0,0.1,0,0.2,0c0.1,0,0.1,0,0.2,0c0.1,0,0.2,0,0.3,0h0.2c0.1,0,0.2,0,0.3,0c0.1,0,0.1,0,0.2,0h0.3h0.6
	c0.1,0,0.1,0,0.2,0h0.3h0.2h0.3c0.1,0,0.1,0,0.2,0c0.2,0,0.4,0,0.6,0h0.2c0.1,0,0.1,0,0.2,0h0.2c0.1,0,0.1,0,0.2,0c0,0,0.1,0,0.2,0
	c0,0,0.1-0.1,0.2,0c0,0.1,0,0.4,0,0.5c0,0,0.1,0,0.2,0c0,0,0-0.5,0-0.5c0,0,0.1,0,0.2,0c0,0,0.1,0,0.2,0c0,0,0.1,0,0.2,0
	c0,0,0.1,0,0.2,0c0,0,0.1,0.1,0.2,0c0,0,0-0.5,0-0.5c0,0,0.1,0,0.2,0c0,0.1,0,0.4,0,0.5c0,0.1,0.1,0,0.2,0c0,0,0.1,0,0.2,0h0.2
	c0.1,0,0.2,0,0.3,0h0.2h0.2c0.1,0,0.1,0,0.2,0c0,0,0.1,0,0.2,0c0,0,0.1,0,0.2,0c0,0,0-0.4,0-0.5c0,0,0.1,0,0.2,0c0,0,0,0.5,0,0.5
	c0,0,0.1,0,0.2,0c0,0,0.1,0,0.2,0c0,0,0,0.4,0,0.5c0,0,0.1,0,0.2,0c0,0,0.1,0,0.2,0c0,0,0-0.5,0-0.5c0,0,0.1,0,0.2,0
	c0.1,0,0.1,0,0.2,0c0,0,0.1,0,0.2,0c0,0,0.1,0,0.2,0c0,0,0.1-0.1,0.2,0c0,0,0,0.5,0,0.5c0.1,0,0.1,0,0.2,0c0,0,0.1,0,0.2,0
	c0,0,0-0.5,0-0.5c0,0,0.1,0,0.2,0h0.2c0.1,0,0.1,0,0.2,0c0,0,0.1,0,0.2,0c0.2,0,0.4,0,0.6,0h0.2c0.1,0,0.1,0,0.2,0
	c0.1,0,0.1,0,0.2,0h0.3h0.2h0.3h0.2c0.1,0,0.2,0,0.3,0h0.6c0.1,0,0.1,0,0.2,0c0.1,0,0.2,0,0.3,0h0.2h0.3h0.2c0.2,0,0.4,0,0.6,0h0.2
	h0.2c0.1,0,0.1,0,0.2,0c0.1,0,0.2,0,0.3,0h0.2c0.1,0,0.1,0,0.2,0c0.1,0,0.1,0,0.2,0c0.1,0,0.1,0,0.2,0h0.2c0,0,0.1,0,0.2,0
	c0,0,0,0.5,0,0.5c0,0,0.1,0,0.2,0c0,0,0.1,0,0.2,0c0,0,0-0.5,0-0.5c0.1,0,0.1,0,0.2,0h0.2c0.1,0,0.1,0,0.2,0c0,0,0.1,0,0.2,0
	c0,0,0.1,0.1,0.2,0c0,0,0-0.5,0-0.5c0.1,0,0.1,0,0.2,0c0,0,0.1,0,0.2,0c0,0,0,0.5,0,0.5c0,0,0.1,0,0.2,0h0.2h0.2c0.1,0,0.1,0,0.2,0
	h0.2c0.1,0,0.1,0,0.2,0c0,0,0.1,0,0.2,0c0,0,0-0.5,0-0.5c0,0,0.1,0,0.2,0c0,0,0,0.5,0,0.5c0,0,0.1,0,0.2,0c0.2,0,0.4,0,0.6,0h0.2
	c0.1,0,0.1,0,0.2,0c0.1,0,0.1,0,0.2,0c0.2,0,0.4,0,0.6,0h0.2c0,0,0.1,0,0.2,0c0.1,0,0.1,0,0.2,0c0,0,0.1,0,0.2,0c0,0,0,0.5,0,0.5
	c0,0,0.1,0,0.2,0c0,0,0.1,0,0.2,0c0,0,0-0.5,0-0.5c0,0,0.1,0,0.2,0c0,0,0,0.5,0,0.5c0,0,0.1,0,0.2,0c0,0,0.1,0,0.2,0
	c0,0,0-0.5,0-0.5c0,0,0.1,0,0.2,0c0,0,0.1,0,0.2,0c0,0,0.1,0.1,0.2,0c0-0.1,0-0.4,0-0.5c0,0,0.1,0,0.2,0c0,0,0,0.5,0,0.5
	c0,0.1,0.1,0,0.2,0c0,0,0.1,0,0.2,0c0.1,0,0.1,0,0.2,0c0.1,0,0.1,0,0.2,0c0,0,0.1,0.1,0.2,0c0,0,0-0.5,0-0.5c0,0,0.1,0,0.2,0
	c0,0.1,0,0.4,0,0.5c0,0,0.1,0,0.2,0c0,0,0.1,0,0.2,0h0.2c0,0,0.1,0,0.2,0c0,0,0.1,0,0.2,0c0,0,0.1,0.1,0.2,0c0,0,0-0.4,0-0.5
	c0,0,0.1,0,0.2,0c0,0,0.1,0,0.2,0c0,0.1,0,0.4,0,0.5c0,0.1,0.1,0,0.2,0c0,0,0.1,0,0.2,0c0,0,0.1,0.1,0.2,0c0,0,0-0.5,0-0.5
	c0.1,0,0.1,0,0.2,0h0.2c0,0,0.1,0,0.2,0c0,0,0,0.5,0,0.5c0,0,0.1,0,0.2,0c0,0,0-0.5,0-0.5c0,0,0.1,0,0.2,0c0,0,0,0.5,0,0.5
	c0,0,0.1,0,0.2,0c0.1,0,0.1,0,0.2,0c0,0,0.1,0.1,0.2,0c0-0.1,0-0.4,0-0.5c0,0,0.1,0,0.2,0c0,0,0,0.5,0,0.5c0,0,0.1,0,0.2,0
	c0,0,0.1,0,0.2,0c0,0,0.1,0,0.2,0h0.2c0.1,0,0.1,0,0.2,0c0.1,0,0.1,0,0.2,0c0,0,0.1,0,0.2,0h0.2c0,0,0.1,0,0.2,0c0,0,0-0.5,0-0.5
	c0,0,0.1,0,0.2,0c0,0,0,0.5,0,0.5c0.1,0,0.1,0,0.2,0c0,0,0.1,0,0.2,0c0,0,0-0.5,0-0.5c0,0,0.1,0,0.2,0c0.1,0,0.1,0,0.2,0h0.2h0.2
	c0,0,0,0.5,0,0.5c0,0,0.1,0,0.2,0c0,0,0-0.5,0-0.5c0,0,0.1-0.1,0.2,0c0,0.1,0,0.4,0,0.5c0,0,0.1,0,0.2,0c0,0,0-0.5,0-0.5
	c0,0,0.1,0,0.2,0c0.1,0,0.1,0,0.2,0c0,0,0,0.5,0,0.5c0,0.1,0.1,0,0.2,0c0,0,0.1,0,0.2,0c0.1,0,0.1,0,0.2,0c0.1,0,0.1,0,0.2,0h0.3
	c0.1,0,0.1,0,0.2,0h0.2c0.1,0,0.1,0,0.2,0c0.1,0,0.1,0,0.2,0c0.1,0,0.1,0,0.2,0c0,0,0.1,0,0.2,0c0,0,0.1,0.1,0.2,0c0,0,0-0.5,0-0.5
	c0,0,0.1,0,0.2,0c0,0,0.1,0,0.2,0c0,0,0,0.5,0,0.5c0,0,0.1,0,0.2,0c0.1,0,0.1,0,0.2,0c0,0,0.1,0,0.2,0c0.1,0,0.1,0,0.2,0h0.2
	c0,0,0.1,0,0.2,0c0,0,0.1,0.1,0.2,0c0,0,0-0.4,0-0.5c0-0.1,0.1,0,0.2,0c0,0,0.1,0,0.2,0c0.1,0,0.1,0,0.2,0c0.1,0,0.1,0,0.2,0
	c0.1,0,0.1,0,0.2,0c0,0,0,0.5,0,0.5c0,0,0.1,0,0.2,0c0.1,0,0.1,0,0.2,0c0,0,0.1,0.1,0.2,0c0-0.1,0-0.4,0-0.5c0,0,0.1,0,0.2,0
	c0,0,0.1,0,0.2,0c0,0.1,0,0.4,0,0.5c0,0,0.1,0,0.2,0c0,0,0.1,0,0.2,0c0-0.1,0-0.5,0-0.5c0,0,0.1,0,0.2,0h0.2h0.2c0.1,0,0.2,0,0.3,0
	h0.2h0.2c0.1,0,0.1,0,0.2,0c0,0,0,0.5,0,0.5c0,0,0.1,0,0.2,0c0.1,0,0.1,0,0.2,0c0,0,0.1,0,0.2,0c0,0,0-0.5,0-0.5c0,0,0.1,0,0.2,0
	c0,0,0,0.5,0,0.5c0.1,0,0.1,0,0.2,0h0.2c0,0,0.1,0,0.2,0c0,0,0-0.5,0-0.5c0,0,0.1,0,0.2,0c0,0,0.1,0,0.2,0c0,0,0.1,0,0.2,0
	c0,0.1,0,0.4,0,0.5c0,0.1,0.1,0,0.2,0c0,0,0.1,0,0.2,0c0,0,0-0.5,0-0.5c0,0,0.1,0,0.2,0c0,0,0,0.5,0,0.5c0,0,0.1,0.1,0.2,0
	c0-0.1,0-0.4,0-0.5c0-0.1,0.1,0,0.2,0c0,0,0.1,0,0.2,0h0.2c0.1,0,0.1,0,0.2,0s0.1,0,0.2,0c0,0,0,0.5,0,0.5c0,0,0.1,0,0.2,0
	c0.1,0,0.1,0,0.2,0c0,0,0.1,0,0.2,0c0,0,0-0.5,0-0.5c0,0,0.1,0,0.2,0c0,0,0,0.5,0,0.5c0,0,0.1,0,0.2,0c0,0,0.1,0.1,0.2,0
	c0,0,0-0.5,0-0.5c0,0,0.1,0,0.2,0c0,0,0.1-0.1,0.2,0c0,0,0,0.5,0,0.5c0,0,0.1,0.1,0.2,0c0-0.1,0-0.4,0-0.5c0-0.1,0.1,0,0.2,0
	c0,0,0.1,0,0.2,0c0,0,0.1-0.1,0.2,0c0,0,0,0.5,0,0.5c0,0.1,0.1,0,0.2,0c0,0,0-0.5,0-0.5c0,0,0.1,0,0.2,0c0,0,0.1,0,0.2,0
	c0,0,0,0.5,0,0.5c0,0,0.1,0,0.2,0c0.1,0,0.1,0,0.2,0c0,0,0.1,0,0.2,0c0.2,0,0.4,0,0.6,0h0.2c0.1,0,0.1,0,0.2,0c0.1,0,0.1,0,0.2,0
	h0.2c0,0,0.1,0,0.2,0c0,0,0.1-0.1,0.2,0c0,0.1,0,0.4,0,0.5c0,0,0.1,0,0.2,0c0,0,0.1,0.1,0.2,0c0-0.1,0-0.4,0-0.5c0-0.1,0.1,0,0.2,0
	c0,0,0.1,0,0.2,0h0.2c0.1,0,0.1,0,0.2,0c0.1,0,0.1,0,0.2,0c0.1,0,0.1,0,0.2,0c0.1,0,0.2,0,0.3,0c0.2,0,0.4,0,0.6,0h0.2h0.3
	c0.2,0,0.4,0,0.6,0c0-0.1,0-0.4,0-0.5c0,0,0.1,0,0.2,0c0,0,0,0.5,0,0.5c0,0.1,0.1,0,0.2,0c0,0,0,0.5,0,0.5c0,0,0.1,0,0.2,0
	c0,0,0.1,0,0.2,0c0,0,0-0.5,0-0.5c0.1,0,0.1,0,0.2,0c0.1,0,0.1,0,0.2,0h0.2c0.1,0,0.1,0,0.2,0c0.1,0,0.1,0,0.2,0c0,0,0.1,0,0.2,0
	c0.1,0,0.1,0,0.2,0c0,0,0.1,0,0.2,0c0,0,0,0.5,0,0.5c0,0,0.1,0,0.2,0c0-0.1,0-0.5,0-0.5c0,0,0.1,0,0.2,0c0.1,0,0.1,0,0.2,0
	c0,0,0,0.5,0,0.5c0,0,0.1,0,0.2,0c0,0,0-0.5,0-0.5c0,0,0.1,0,0.2,0c0.1,0,0.1,0,0.2,0h0.2h0.2c0.1,0,0.1,0,0.2,0c0,0,0.1,0,0.2,0
	c0,0,0.1,0,0.2,0c0,0,0.1-0.1,0.2,0c0,0.1,0,0.4,0,0.5c0,0,0.1,0,0.2,0h0.2c0,0,0.1,0,0.2,0c0,0,0-0.5,0-0.5c0-0.1,0.1,0,0.2,0
	c0,0,0.1,0,0.2,0h0.2h0.2c0.1,0,0.1,0,0.2,0s0.1,0,0.2,0h0.2c0.2,0,0.4,0,0.6,0h0.2h0.2c0.1,0,0.1,0,0.2,0c0.1,0,0.1,0,0.2,0h0.2
	c0.2,0,0.4,0,0.6,0h0.2c0.1,0,0.1,0,0.2,0c0,0,0.1,0,0.2,0c0,0,0-0.5,0-0.5c0,0,0.1,0,0.2,0c0,0,0,0.5,0,0.5c0.1,0,0.1,0,0.2,0h0.2
	h0.2c0.1,0,0.1,0,0.2,0c0.1,0,0.1,0,0.2,0c0.1,0,0.1,0,0.2,0c0,0,0.1,0,0.2,0c0,0,0.1-0.1,0.2,0c0,0,0,0.5,0,0.5c0.1,0,0.1,0,0.2,0
	c0,0,0.1,0,0.2,0c0,0,0-0.5,0-0.5c0,0,0.1,0,0.2,0c0.1,0,0.1,0,0.2,0h0.2c0.2,0,0.4,0,0.6,0c0.1,0,0.1,0,0.2,0h0.2
	c0.1,0,0.1,0,0.2,0c0,0,0-0.5,0-0.5c0,0,0.1,0,0.2,0s0.1,0,0.2,0c0,0,0,0.5,0,0.5c0.1,0,0.1,0,0.2,0c0,0,0.1,0,0.2,0
	c0,0,0.1,0.1,0.2,0c0,0,0-0.5,0-0.5c0,0,0.1-0.1,0.2,0c0,0,0,0.5,0,0.5c0,0,0.1,0,0.2,0c0,0,0.1,0,0.2,0c0,0,0.1,0,0.2,0
	c0.1,0,0.1,0,0.2,0h0.2h0.2c0.1,0,0.1,0,0.2,0c0.1,0,0.1,0,0.2,0h0.2c0.2,0,0.4,0,0.6,0h0.2c0,0,0.1,0,0.2,0c0.1,0,0.1,0,0.2,0h0.2
	c0.1,0,0.1,0,0.2,0c0.1,0,0.1,0,0.2,0c0.1,0,0.1,0,0.2,0c0.1,0,0.1,0,0.2,0c0.1,0,0.1,0,0.2,0c0,0,0.1,0.1,0.2,0c0,0,0-0.5,0-0.5
	c0,0,0.1,0,0.2,0c0,0,0,0.5,0,0.5c0,0,0.1,0,0.2,0c0,0,0-0.5,0-0.5c0,0,0.1-0.1,0.2,0c0,0.1,0,0.5,0,0.5c0,0.1,0.1,0,0.2,0
	c0,0,0.1,0,0.2,0c0.1,0,0.1,0,0.2,0c0,0,0.1,0,0.2,0c0,0,0.1,0.1,0.2,0c0,0,0-0.5,0-0.5c0,0,0.1-0.1,0.2,0c0,0.1,0,0.4,0,0.5
	c0,0.1,0.1-0.1,0.2,0c0,0.1,0,0.4,0,0.5c0,0.1,0.1-0.1,0.2,0c0-0.2,0-0.3,0-0.5c0-0.1,0-0.5,0-0.5c0-0.1,0.1,0,0.2,0
	c0,0,0.1,0,0.2,0c0,0,0.1-0.1,0.2,0c0,0,0,0.5,0,0.5c0.1,0,0.1,0,0.2,0c0,0,0.1,0.1,0.2,0c0,0,0-0.5,0-0.5c0,0,0.1,0,0.2,0
	c0,0,0.1,0,0.2,0c0,0,0,0.5,0,0.5c0,0,0.1,0,0.2,0c0,0,0.1,0,0.2,0c0-0.1,0-0.4,0-0.5c0-0.1,0.1,0,0.2,0c0,0,0.1,0,0.2,0h0.2h0.2
	c0.1,0,0.1,0,0.2,0c0,0,0,0.5,0,0.5c0,0,0.1,0,0.2,0c0.1,0,0.1,0,0.2,0c0.1,0,0.1,0,0.2,0c0,0,0.1,0.1,0.2,0c0,0,0-0.4,0-0.5
	c0,0,0.1,0,0.2,0h0.2h0.2c0,0,0.1,0,0.2,0c0,0,0.1-0.1,0.2,0c0,0,0,0.4,0,0.5c0,0,0.1,0,0.2,0c0.1,0,0.1,0,0.2,0c0,0,0.1,0.1,0.2,0
	c0,0,0-0.5,0-0.5c0,0,0.1,0,0.2,0h0.2h0.2c0.1,0,0.1,0,0.2,0c0,0,0,0.5,0,0.5c0,0,0.1,0,0.2,0c0,0,0.1,0,0.2,0c0.1,0,0.1,0,0.2,0
	c0,0,0.1,0,0.2,0c0,0,0.1,0.1,0.2,0c0,0,0-0.5,0-0.5c0.1,0,0.1,0,0.2,0c0,0,0.1,0,0.2,0c0,0,0,0.5,0,0.5c0,0,0.1,0,0.2,0
	c0,0,0.1,0,0.2,0c0,0,0.1-0.1,0.2,0c0,0,0,0.5,0,0.5c0,0,0.1,0,0.2,0c0-0.1,0.1,0.1,0.2,0c0-0.1,0-0.4,0-0.5c0-0.1,0.1,0.1,0.2,0
	c0-0.1,0.1,0.1,0.2,0c0-0.1,0-0.4,0-0.5c0-0.1,0.1,0,0.2,0c0,0,0.1,0,0.2,0h0.2c0,0,0.1,0,0.2,0c0,0,0.1-0.1,0.2,0
	c0,0.1,0,0.5,0,0.5c0,0,0.1,0,0.2,0c0.1,0,0.1,0,0.2,0c0.1,0,0.1,0,0.2,0h0.2c0,0,0.1,0,0.2,0c0,0,0-0.5,0-0.5c0,0,0.1,0,0.2,0
	c0,0,0.1,0,0.2,0c0,0,0.1,0,0.2,0h0.2c0.1,0,0.1,0,0.2,0c0.1,0,0.1,0,0.2,0c0,0,0.1,0,0.2,0c0,0,0.1-0.1,0.2,0c0,0,0,0.5,0,0.5
	c0.1,0,0.1,0,0.2,0h0.2c0,0,0.1,0,0.2,0c0,0,0-0.5,0-0.5c0,0,0.1,0,0.2,0c0,0,0.1,0,0.2,0c0,0,0.1,0,0.2,0c0,0.1,0,0.4,0,0.5
	c0,0,0.1,0,0.2,0c0,0,0-0.5,0-0.5c0-0.1,0.1,0,0.2,0c0,0,0.1,0,0.2,0c0.1,0,0.1,0,0.2,0c0,0,0.1-0.1,0.2,0c0,0.1,0,0.4,0,0.5
	c0,0.1,0.1,0,0.2,0c0,0,0.1,0,0.2,0h0.2c0.1,0,0.1,0,0.2,0c0,0,0-0.5,0-0.5c0,0,0.1,0,0.2,0c0,0,0,0.5,0,0.5c0.1,0,0.1,0,0.2,0h0.2
	h0.2c0.1,0,0.1,0,0.2,0c0.1,0,0.1,0,0.2,0c0.1,0,0.1,0,0.2,0h0.2h0.2c0.1,0,0.1,0,0.2,0c0,0,0-0.5,0-0.5c0,0,0.1,0,0.2,0h0.2
	c0,0,0,0.5,0,0.5c0,0,0.1,0,0.2,0c0,0,0-0.5,0-0.5c0.1,0,0.1,0,0.2,0h0.2c0,0,0.1,0,0.2,0c0,0,0.1,0,0.2,0c0,0,0.1-0.1,0.2,0
	c0,0,0,0.5,0,0.5c0,0,0.1,0,0.2,0c0,0,0.1,0,0.2,0c0,0,0-0.5,0-0.5c0,0,0.1,0,0.2,0c0,0.1,0,0.4,0,0.5c0,0,0.1,0,0.2,0
	c0,0,0-0.5,0-0.5c0,0,0.1,0,0.2,0c0,0,0,0.5,0,0.5c0,0,0.1,0,0.2,0c0.1,0,0.1,0,0.2,0c0,0,0-0.5,0-0.5c0,0,0.1,0,0.2,0h0.2
	c0,0,0,0.5,0,0.5c0,0,0.1,0,0.2,0c0,0,0-0.5,0-0.5c0.1,0,0.1,0,0.2,0c0.1,0,0.2,0,0.3,0h0.2h0.2c0,0,0.1,0,0.2,0c0.1,0,0.1,0,0.2,0
	c0,0,0.1,0,0.2,0c0,0,0,0.5,0,0.5c0,0,0.1,0,0.2,0h0.2c0.1,0,0.1,0,0.2,0c0.1,0,0.1,0,0.2,0c0,0,0.1,0,0.2,0c0,0,0-0.5,0-0.5
	c0,0,0.1,0,0.2,0c0,0,0,0.5,0,0.5c0.1,0,0.1,0,0.2,0h0.2c0,0,0.1,0,0.2,0c0,0,0-0.5,0-0.5c0,0,0.1,0,0.2,0h0.2c0.1,0,0.1,0,0.2,0
	c0.1,0,0.1,0,0.2,0c0,0,0.1,0,0.2,0c0,0,0,0.5,0,0.5c0,0,0.1,0,0.2,0c0.1,0,0.1,0,0.2,0c0.1,0,0.1,0,0.2,0c0.1,0,0.1,0,0.2,0
	c0,0,0.1,0,0.2,0c0,0,0.1,0.1,0.2,0c0-0.1,0-0.4,0-0.5c0,0,0.1,0,0.2,0c0.1,0,0.1,0,0.2,0c0.1,0,0.1,0,0.2,0h0.2h0.2
	c0.1,0,0.1,0,0.2,0c0,0,0.1,0,0.2,0h0.2c0,0,0.1,0,0.2,0c0,0,0.1-0.1,0.2,0c0,0.1,0,0.4,0,0.5c0,0,0.1,0,0.2,0c0,0,0-0.5,0-0.5
	c0,0,0.1,0,0.2,0c0,0,0.1,0,0.2,0c0,0,0,0.5,0,0.5c0,0,0.1,0,0.2,0c0.1,0,0.1,0,0.2,0c0,0,0.1,0.1,0.2,0c0-0.1,0-0.4,0-0.5
	c0-0.1,0.1,0,0.2,0c0,0,0.1,0,0.2,0h0.2h0.2c0.1,0,0.1,0,0.2,0c0,0,0.1,0,0.2,0c0,0,0.1-0.1,0.2,0c0,0.1,0,0.4,0,0.5
	c0,0,0.1,0,0.2,0c0,0,0-0.5,0-0.5c0,0,0.1,0,0.2,0h0.2c0.1,0,0.1,0,0.2,0c0,0,0.1,0,0.2,0c0,0,0,0.5,0,0.5c0.1,0,0.1,0,0.2,0
	c0.1,0,0.1,0,0.2,0c0,0,0.1,0,0.2,0c0,0,0.1,0.1,0.2,0c0-0.1,0-0.4,0-0.5c0,0,0.1,0,0.2,0c0.1,0,0.1,0,0.2,0c0,0,0.1,0,0.2,0
	c0,0,0,0.5,0,0.5c0,0,0.1,0,0.2,0h0.2c0.1,0,0.1,0,0.2,0c0,0,0.1,0,0.2,0c0,0,0-0.5,0-0.5c0-0.1,0.1,0,0.2,0h0.2c0,0,0.1,0,0.2,0
	c0,0,0,0.5,0,0.5c0,0,0.1,0,0.2,0c0,0,0.1,0,0.2,0c0,0,0.1,0.1,0.2,0c0-0.1,0-0.4,0-0.5c0,0,0.1,0,0.2,0c0,0,0.1,0,0.2,0
	c0,0.1,0,0.4,0,0.5c0,0.1,0.1,0,0.2,0c0,0,0.1,0,0.2,0c0,0,0.1,0,0.2,0c0,0,0-0.5,0-0.5h0.2c0.1,0,0.1,0,0.2,0c0,0,0.1,0,0.2,0
	c0,0,0.1-0.1,0.2,0c0,0.1,0,0.4,0,0.5c0,0,0.1,0,0.2,0c0,0,0.1,0,0.2,0c0-0.1,0-0.5,0-0.5c0,0,0.1,0,0.2,0c0.1,0,0.1,0,0.2,0
	c0.1,0,0.1,0,0.2,0c0,0,0.1,0,0.2,0h0.3c0.1,0,0.1,0,0.2,0h0.2c0.1,0,0.1,0,0.2,0c0,0,0.1-0.1,0.2,0c0,0.1,0,0.4,0,0.5
	c0,0.1,0.1,0,0.2,0c0,0,0.1,0,0.2,0c0,0,0.1,0.1,0.2,0c0,0,0-0.5,0-0.5c0.1,0,0.1,0,0.2,0c0,0,0.1-0.1,0.2,0c0,0,0,0.5,0,0.5
	c0,0,0.1,0,0.2,0h0.2c0.1,0,0.1,0,0.2,0c0,0,0-0.5,0-0.5c0-0.1,0.1,0,0.2,0c0,0,0.1,0,0.2,0c0,0.1,0,0.4,0,0.5c0,0,0.1,0,0.2,0h0.2
	h0.2c0,0,0.1,0,0.2,0c0,0,0-0.5,0-0.5c0,0,0.1,0,0.2,0c0.1,0,0.1,0,0.2,0c0,0,0,0.5,0,0.5c0,0,0.1,0,0.2,0c0.1,0,0.1,0,0.2,0
	c0.1,0,0.1,0,0.2,0c0,0,0.1,0.1,0.2,0c0,0,0-0.5,0-0.5c0,0,0.1,0,0.2,0h0.2c0,0,0.1,0,0.2,0c0,0,0,0.5,0,0.5c0,0,0.1,0,0.2,0h0.2
	c0,0.1,0,0.4,0,0.5c0,0,0.1,0,0.2,0c0-0.1,0-0.5,0-0.5c0,0,0.1,0.1,0.2,0c0,0,0-0.5,0-0.5c0,0,0.1,0,0.2,0c0,0.1,0,0.4,0,0.5h0.3
	h0.2c0.1,0,0.1,0,0.2,0c0,0,0.1,0,0.2,0s0.1,0,0.2,0c0.1,0,0.1,0,0.2,0c0,0,0.1,0,0.2,0c0,0.1,0,0.4,0,0.5c0,0,0.1,0.1,0.2,0
	c0,0,0-0.5,0-0.5c0,0,0.1,0,0.2,0c0,0,0.1,0,0.2,0c0,0,0.1,0,0.2,0c0,0,0.1,0.1,0.2,0c0,0,0-0.5,0-0.5c0,0,0.1,0,0.2,0
	c0.2,0,0.4,0,0.6,0h0.2c0.1,0,0.1,0,0.2,0c0,0,0,0.5,0,0.5c0,0,0.1,0,0.2,0c0,0,0-0.5,0-0.5c0,0,0.1,0,0.2,0h0.2h0.2
	c0.1,0,0.1,0,0.2,0c0.1,0,0.1,0,0.2,0c0,0,0.1-0.1,0.2,0c0,0,0,0.5,0,0.5c0,0,0.1,0,0.2,0c0-0.1,0-0.5,0-0.5c0-0.1,0.1,0,0.2,0
	c0.1,0,0.1,0,0.2,0h0.2h0.3c0.1,0,0.1,0,0.2,0h0.2c0.1,0,0.1,0,0.2,0c0,0,0,0.5,0,0.5c0,0,0.1,0,0.2,0c0.1,0,0.1,0,0.2,0
	c0.1,0,0.1,0,0.2,0c0,0,0.1,0,0.2,0c0,0,0-0.5,0-0.5c0,0,0.1,0,0.2,0c0.1,0,0.1,0,0.2,0c0,0,0.1,0,0.2,0c0,0,0,0.5,0,0.5
	c0,0,0.1,0,0.2,0c0,0,0.1,0,0.2,0c0,0,0.1,0.1,0.2,0c0,0,0-0.5,0-0.5c0.1,0,0.1,0,0.2,0c0.2,0,0.4,0,0.6,0h0.2c0,0,0.1,0,0.2,0
	c0,0,0,0.5,0,0.5c0,0,0.1,0,0.2,0c0,0,0-0.5,0-0.5c0,0,0.1,0,0.2,0c0,0,0.1,0,0.2,0h0.2c0.1,0,0.1,0,0.2,0h0.2c0.1,0,0.1,0,0.2,0
	c0,0,0.1,0,0.2,0c0,0,0.1,0,0.2,0c0,0,0,0.4,0,0.5c0,0,0.1,0,0.2,0c0.1,0,0.1,0,0.2,0c0,0,0.1,0.1,0.2,0c0,0,0-0.5,0-0.5
	c0,0,0.1,0,0.2,0c0.1,0,0.1,0,0.2,0h0.2c0.1,0,0.1,0,0.2,0c0,0,0,0.5,0,0.5c0,0,0.1,0,0.2,0c0,0,0.1,0,0.2,0c0,0,0-0.5,0-0.5
	c0-0.1,0.1,0,0.2,0c0,0,0.1,0,0.2,0h0.2c0,0,0.1,0,0.2,0c0,0.1,0,0.4,0,0.5c0,0.1,0.1,0,0.2,0c0,0,0.1,0,0.2,0c0,0,0.1,0,0.2,0
	c0,0,0-0.4,0-0.5c0,0,0.1,0,0.2,0h0.2h0.2c0,0,0.1,0,0.2,0c0,0,0.1,0,0.2,0c0,0,0.1,0,0.2,0c0,0,0,0.5,0,0.5c0,0,0.1,0,0.2,0
	c0,0,0-0.5,0-0.5c0,0,0.1,0,0.2,0c0.1,0,0.1,0,0.2,0c0,0,0,0.5,0,0.5c0,0,0.1,0,0.2,0c0,0,0.1,0,0.2,0c0,0,0-0.5,0-0.5
	c0,0,0.1,0,0.2,0h0.2c0.1,0,0.1,0,0.2,0c0.1,0,0.1,0,0.2,0c0,0,0.1,0,0.2,0c0,0,0-0.5,0-0.5c0,0,0.1,0,0.2,0c0,0,0.1,0,0.2,0
	c0,0.1,0,0.4,0,0.5c0,0.1,0.1,0,0.2,0c0,0,0.1,0,0.2,0h0.2c0.1,0,0.1,0,0.2,0c0,0,0.1,0,0.2,0c0.2,0,0.4,0,0.6,0h0.2
	c0.1,0,0.1,0,0.2,0c0,0,0-0.5,0-0.5c0,0,0.1,0,0.2,0c0,0,0,0.5,0,0.5c0,0,0.1,0,0.2,0h0.2c0.1,0,0.1,0,0.2,0s0.1,0,0.2,0
	c0,0,0.1,0,0.2,0h0.2c0,0,0.1,0,0.2,0c0,0,0.1,0,0.2,0c0,0,0.1,0,0.2,0c0,0,0,0.4,0,0.5c0,0,0.1,0,0.2,0c0,0,0-0.5,0-0.5
	c0,0,0.1,0,0.2,0c0,0,0.1,0,0.2,0c0,0,0.1,0,0.2,0h0.2c0.1,0,0.1,0,0.2,0c0.1,0,0.1,0,0.2,0c0.2,0,0.4,0,0.6,0h0.2
	c0.1,0,0.1,0,0.2,0c0.1,0,0.1,0,0.2,0h0.3c0.2,0,0.4,0,0.6,0h0.2c0.2,0,0.4,0,0.6,0h0.2h0.2h0.2h0.2c0,0,0.1,0,0.2,0
	c0,0,0.1-0.1,0.2,0c0,0.1,0,0.4,0,0.5c0,0,0.1,0,0.2,0c0,0,0.1,0,0.2,0c0-0.1,0-0.4,0-0.5c0-0.1,0.1,0,0.2,0c0,0,0.1,0,0.2,0
	c0.1,0,0.1,0,0.2,0h0.2h0.2c0.1,0,0.1,0,0.2,0h0.3c0.2,0,0.4,0,0.6,0h0.2c0.2,0,0.4,0,0.6,0h0.2c0.1,0,0.1,0,0.2,0c0,0,0,0.5,0,0.5
	c0,0,0.1,0,0.2,0c0,0,0.1,0,0.2,0c0,0,0-0.5,0-0.5c0-0.1,0.1,0,0.2,0c0,0,0.1,0,0.2,0c0.1,0,0.1,0,0.2,0c0,0,0.1,0,0.2,0
	c0,0.1,0,0.4,0,0.5c0,0,0.1,0,0.2,0c0,0,0-0.5,0-0.5c0-0.1,0.1,0,0.2,0c0,0,0.1,0,0.2,0c0.1,0,0.1,0,0.2,0h0.2c0.2,0,0.4,0,0.6,0
	h0.2c0,0,0.1,0,0.2,0c0.1,0,0.1,0,0.2,0c0.1,0,0.1,0,0.2,0c0,0,0.1,0,0.2,0c0,0,0,0.5,0,0.5c0,0.1,0.1,0,0.2,0c0,0,0.1,0,0.2,0h0.2
	c0.1,0,0.1,0,0.2,0c0,0,0.1,0,0.2,0c0,0,0-0.5,0-0.5c0,0,0.1,0,0.2,0c0,0,0.1,0,0.2,0c0,0,0.1,0,0.2,0h0.2h0.2c0.1,0,0.1,0,0.2,0
	c0.1,0,0.1,0,0.2,0c0,0,0.1,0,0.2,0h0.2h0.2c0,0,0.1,0,0.2,0c0.1,0,0.1,0,0.2,0c0,0,0.1,0,0.2,0c0,0,0,0.5,0,0.5c0,0,0.1,0,0.2,0
	h0.2c0,0.1,0,0.4,0,0.5c0,0,0.1,0,0.2,0c0,0,0-0.5,0-0.5c0-0.1,0.1,0.1,0.2,0c0,0,0-0.5,0-0.5c0,0,0.1,0,0.2,0h0.2
	c0.1,0,0.1,0,0.2,0h0.2c0.1,0,0.1,0,0.2,0c0.1,0,0.1,0,0.2,0s0.1,0,0.2,0c0.1,0,0.1,0,0.2,0c0,0,0.1,0,0.2,0c0,0,0,0.5,0,0.5
	c0.1,0,0.1,0,0.2,0c0,0,0.1,0.1,0.2,0c0,0,0-0.5,0-0.5c0,0,0.1,0,0.2,0h0.2c0.1,0,0.1,0,0.2,0c0,0,0,0.5,0,0.5c0,0,0.1,0,0.2,0
	c0,0,0-0.5,0-0.5c0,0,0.1,0,0.2,0c0.1,0,0.1,0,0.2,0c0.1,0,0.1,0,0.2,0c0,0,0.1,0,0.2,0c0,0,0,0.5,0,0.5c0,0,0.1,0,0.2,0h0.2
	c0.1,0,0.1,0,0.2,0c0,0,0-0.5,0-0.5c0-0.1,0.1,0,0.2,0c0,0,0.1,0,0.2,0h0.2c0.1,0,0.1,0,0.2,0c0.1,0,0.1,0,0.2,0h0.3h0.2
	c0.1,0,0.1,0,0.2,0s0.1,0,0.2,0c0,0,0,0.5,0,0.5c0,0.1,0.1,0,0.2,0c0,0,0.1,0,0.2,0c0-0.1,0-0.4,0-0.5c0-0.1,0.1,0,0.2,0
	c0,0,0.1,0,0.2,0c0.1,0,0.2,0,0.3,0h0.2c0.1,0,0.1,0,0.2,0s0.1,0,0.2,0c0.1,0,0.1,0,0.2,0c0.1,0,0.1,0,0.2,0h0.2h0.3h0.2
	c0.1,0,0.2,0,0.3,0h0.2h0.2c0.1,0,0.1,0,0.2,0c0,0,0.1,0,0.2,0c0,0,0,0.5,0,0.5c0,0,0.1,0,0.2,0c0,0,0.1,0.1,0.2,0c0,0,0-0.5,0-0.5
	c0.1,0,0.1,0,0.2,0h0.2c0.1,0,0.1,0,0.2,0c0.1,0,0.1,0,0.2,0c0,0,0.1,0,0.2,0c0,0,0-0.5,0-0.5c0,0,0.1,0,0.2,0c0,0.1,0,0.5,0,0.5
	c0,0,0.1,0,0.2,0h0.2c0.1,0,0.1,0,0.2,0c0,0,0.1,0,0.2,0c0.1,0,0.1,0,0.2,0c0,0,0.1,0,0.2,0c0,0,0.1,0.1,0.2,0c0-0.1,0-0.4,0-0.5
	c0,0,0.1,0,0.2,0c0.1,0,0.1,0,0.2,0c0,0,0.1,0,0.2,0c0,0,0.1-0.1,0.2,0c0,0.1,0,0.4,0,0.5c0,0,0.1,0,0.2,0c0,0,0.1,0,0.2,0
	c0,0,0-0.5,0-0.5c0,0,0.1,0,0.2,0c0,0,0.1-0.1,0.2,0c0,0,0,0.5,0,0.5c0.1,0,0.1,0,0.2,0c0,0,0.1,0,0.2,0c0,0,0.1,0.1,0.2,0
	c0-0.1,0-0.4,0-0.5c0,0,0.1,0,0.2,0c0,0,0.1,0,0.2,0c0,0.1,0,0.4,0,0.5c0,0.1,0.1,0,0.2,0c0,0,0.1,0,0.2,0c0.1,0,0.1,0,0.2,0
	c0.1,0,0.1,0,0.2,0c0,0,0.1,0,0.2,0h0.2h0.2c0.1,0,0.1,0,0.2,0c0.1,0,0.1,0,0.2,0c0,0,0-0.5,0-0.5c0,0,0.1,0,0.2,0c0,0,0.1,0,0.2,0
	c0,0,0,0.5,0,0.5c0,0,0.1,0,0.2,0c0.1,0,0.1,0,0.2,0c0.1,0,0.1,0,0.2,0h0.2h0.2c0.1,0,0.1,0,0.2,0c0,0,0.1,0,0.2,0
	c0,0,0.1,0.1,0.2,0c0-0.1,0-0.4,0-0.5c0-0.1,0.1,0,0.2,0c0,0,0.1,0,0.2,0c0,0,0.1,0,0.2,0c0,0,0,0.5,0,0.5c0.1,0,0.1,0,0.2,0
	c0,0,0.1,0,0.2,0c0,0,0-0.5,0-0.5c0,0,0.1,0,0.2,0c0,0,0,0.5,0,0.5c0,0,0.1,0,0.2,0c0.1,0,0.1,0,0.2,0c0,0,0.1,0,0.2,0
	c0,0,0.1,0.1,0.2,0c0-0.1,0-0.4,0-0.5c0,0,0.1,0,0.2,0c0.1,0,0.1,0,0.2,0h0.2h0.2c0.1,0,0.1,0,0.2,0c0,0,0.1,0,0.2,0
	c0,0,0.1-0.1,0.2,0c0,0.1,0,0.4,0,0.5c0,0,0.1,0,0.2,0c0,0,0.1,0,0.2,0c0,0,0.1,0,0.2,0c0,0,0-0.5,0-0.5c0,0,0.1,0,0.2,0
	c0,0,0,0.5,0,0.5c0,0,0.1,0,0.2,0c0-0.1,0-0.4,0-0.5c0,0,0.1,0,0.2,0c0,0,0.1-0.1,0.2,0c0,0.1,0,0.4,0,0.5c0,0.1,0.1,0,0.2,0
	c0,0,0.1,0,0.2,0h0.2c0.1,0,0.1,0,0.2,0c0.1,0,0.1,0,0.2,0h0.2c0.1,0,0.1,0,0.2,0h0.2c0.1,0,0.1,0,0.2,0c0,0,0.1,0,0.2,0
	c0,0,0.1,0,0.2,0c0,0,0-0.5,0-0.5c0,0,0.1,0,0.2,0c0,0.1,0,0.4,0,0.5c0,0,0.1,0,0.2,0c0.1,0,0.1,0,0.2,0h0.2h0.2h0.2
	c0,0,0.1,0,0.2,0c0,0,0.1,0,0.2,0c0,0,0.1,0,0.2,0c0,0,0-0.5,0-0.5c0,0,0.1,0,0.2,0c0.1,0,0.1,0,0.2,0c0,0,0,0.5,0,0.5
	c0,0.1,0.1,0,0.2,0c0,0,0.1,0,0.2,0h0.2c0.1,0,0.1,0,0.2,0c0,0,0.1,0.1,0.2,0c0-0.1,0-0.4,0-0.5c0,0,0.1,0,0.2,0c0,0,0.1,0,0.2,0
	c0,0,0.1,0,0.2,0c0,0,0,0.5,0,0.5c0.1,0,0.1,0,0.2,0h0.2c0.1,0,0.1,0,0.2,0h0.2c0.1,0,0.1,0,0.2,0c0,0,0-0.5,0-0.5c0,0,0.1,0,0.2,0
	c0,0,0,0.5,0,0.5c0,0,0.1,0,0.2,0h0.2c0.1,0,0.1,0,0.2,0c0.1,0,0.1,0,0.2,0h0.2c0,0,0.1,0,0.2,0h0.2c0,0,0.1,0,0.2,0
	c0,0,0.1,0,0.2,0c0,0,0.1,0,0.2,0c0,0,0-0.5,0-0.5c0,0,0.1,0,0.2,0h0.2c0.1,0,0.1,0,0.2,0c0,0,0,0.5,0,0.5c0,0.1,0.1,0,0.2,0
	c0,0,0.1,0,0.2,0c0-0.1,0-0.4,0-0.5c0,0,0.1,0,0.2,0c0,0,0.1,0,0.2,0c0,0.1,0,0.4,0,0.5c0,0,0.1,0,0.2,0c0,0,0.1,0,0.2,0
	c0-0.1,0-0.4,0-0.5c0,0,0.1,0,0.2,0c0,0,0,0.5,0,0.5c0,0,0.1,0,0.2,0c0,0,0.1,0,0.2,0c0-0.1,0-0.4,0-0.5c0,0,0.1,0,0.2,0
	c0,0,0,0.5,0,0.5c0,0,0.1,0,0.2,0c0,0,0.1,0,0.2,0c0.1,0,0.1,0,0.2,0c0.1,0,0.1,0,0.2,0s0.1,0,0.2,0c0.1,0,0.1,0,0.2,0
	c0,0,0.1,0,0.2,0c0.1,0,0.1,0,0.2,0c0,0,0.1,0,0.2,0c0,0,0,0.5,0,0.5c0,0,0.1,0,0.2,0c0-0.1,0-0.4,0-0.5c0-0.1,0.1,0,0.2,0
	c0,0,0.1,0,0.2,0c0.2,0,0.4,0,0.6,0h0.2c0,0,0.1,0,0.2,0c0.1,0,0.1,0,0.2,0c0.1,0,0.1,0,0.2,0h0.2c0,0,0.1,0,0.2,0c0,0,0.1,0,0.2,0
	c0,0,0.1,0,0.2,0c0,0,0,0.5,0,0.5h0.2c0,0,0.1,0,0.2,0c0,0,0-0.5,0-0.5c0,0,0.1,0,0.2,0c0,0,0.1,0,0.2,0c0,0,0.1,0,0.2,0h0.3
	c0.1,0,0.1,0,0.2,0h0.2c0.1,0,0.1,0,0.2,0c0.1,0,0.1,0,0.2,0h0.2c0.1,0,0.1,0,0.2,0h0.3h0.2c0.1,0,0.2,0,0.3,0h0.2
	c0.1,0,0.1,0,0.2,0c0.1,0,0.1,0,0.2,0c0,0,0.1,0,0.2,0c0,0,0.1,0,0.2,0c0,0,0.1-0.1,0.2,0c0,0.1,0,0.4,0,0.5c0,0,0.1,0,0.2,0
	c0,0,0-0.5,0-0.5c0,0,0.1,0,0.2,0c0,0,0.1,0,0.2,0c0.1,0,0.1,0,0.2,0h0.2h0.2c0,0,0,0.5,0,0.5c0,0,0.1,0,0.2,0c0,0,0-0.5,0-0.5
	c0,0,0.1,0,0.2,0c0.1,0,0.1,0,0.2,0c0.1,0,0.1,0,0.2,0h0.3h0.2h0.2c0.1,0,0.1,0,0.2,0c0.1,0,0.1,0,0.2,0h0.2h0.2c0.1,0,0.1,0,0.2,0
	s0.1,0,0.2,0c0.1,0,0.1,0,0.2,0c0,0,0.1,0,0.2,0c0,0,0-0.5,0-0.5c0,0,0.1,0,0.2,0c0,0.1,0,0.4,0,0.5c0,0,0.1,0,0.2,0h0.2
	c0.1,0,0.1,0,0.2,0h0.2c0.1,0,0.2,0,0.3,0h0.2c0.1,0,0.2,0,0.3,0h0.2h0.2c0.1,0,0.1,0,0.2,0c0.1,0,0.1,0,0.2,0h0.2c0,0,0.1,0,0.2,0
	h0.2c0.1,0,0.1,0,0.2,0c0.1,0,0.1,0,0.2,0c0.1,0,0.1,0,0.2,0c0,0,0.1,0,0.2,0c0,0,0.1-0.1,0.2,0c0,0.1,0,0.4,0,0.5c0,0,0.1,0,0.2,0
	c0,0,0.1,0,0.2,0c0-0.1,0-0.5,0-0.5c0,0,0.1,0,0.2,0h0.2c0,0,0.1,0,0.2,0c0,0,0,0.5,0,0.5c0,0,0.1,0,0.2,0c0,0,0-0.5,0-0.5
	c0,0,0.1,0,0.2,0c0,0,0.1,0.1,0.2,0c0-0.1,0-0.4,0-0.5c0,0.1,0.1-0.1,0.2,0c0,0.1,0,0.5,0,0.5c0,0,0.1,0,0.2,0c0,0,0.1,0,0.2,0
	c0,0,0.1,0,0.2,0c0,0,0.1,0,0.2,0c0,0,0,0.5,0,0.5c0,0,0.2,0,0.2,0c0-0.1,0-0.4,0-0.5c0.1,0,0.1,0,0.2,0h0.2c0.1,0,0.1,0,0.2,0
	c0,0,0.1,0.1,0.2,0c0,0,0-0.5,0-0.5c0,0,0.1,0,0.2,0c0,0,0,0.5,0,0.5h0.2h0.2c0.2,0,0.4,0,0.6,0h0.2h0.2h0.2c0.2,0,0.4,0,0.6,0h0.2
	c0,0,0.1,0,0.2,0c0.1,0,0.1,0,0.2,0h0.2h0.2c0.1,0,0.1,0,0.2,0c0.1,0,0.1,0,0.2,0c0,0,0.1,0,0.2,0c0,0,0.1,0.1,0.2,0
	c0,0,0-0.5,0-0.5c0,0,0.1,0,0.2,0c0,0.1,0,0.4,0,0.5c0,0.1,0.1,0,0.2,0c0,0,0.1,0,0.2,0h0.2h0.2c0.1,0,0.1,0,0.2,0c0,0,0-0.5,0-0.5
	c0-0.1,0.1,0,0.2,0c0,0,0.1,0,0.2,0c0.1,0,0.1,0,0.2,0c0,0,0,0.5,0,0.5c0,0,0.1,0,0.2,0c0,0,0-0.5,0-0.5c0,0,0.1,0,0.2,0
	c0,0,0,0.5,0,0.5c0,0.1,0.1,0,0.2,0c0,0,0.1,0,0.2,0c0.1,0,0.1,0,0.2,0c0,0,0.1,0,0.2,0c0,0,0-0.5,0-0.5c0,0,0.1,0,0.2,0
	c0,0,0,0.5,0,0.5c0.1,0,0.1,0,0.2,0c0.1,0,0.1,0,0.2,0h0.2c0,0,0.1,0,0.2,0c0,0,0.1,0,0.2,0c0,0,0.1,0,0.2,0c0,0,0,0.4,0,0.5
	c0,0.1,0.1-0.1,0.2,0c0-0.1,0-0.4,0-0.5c0-0.1,0.1,0,0.2,0c0,0,0.1,0,0.2,0h0.2c0,0,0.1,0,0.2,0c0,0,0.1,0,0.2,0c0,0,0.1,0,0.2,0
	c0,0,0.1,0.1,0.2,0c0-0.1,0-0.4,0-0.5c0-0.1,0.1,0,0.2,0c0.1,0,0.1,0,0.2,0c0,0,0.1,0,0.2,0c0,0,0,0.5,0,0.5c0,0,0.1,0,0.2,0
	c0,0,0-0.5,0-0.5c0.1,0,0.1,0,0.2,0h0.2c0.1,0,0.1,0,0.2,0h0.2c0.1,0,0.1,0,0.2,0h0.2h0.2c0.1,0,0.1,0,0.2,0c0,0,0.1,0,0.2,0
	c0,0,0.1,0,0.2,0c0,0,0,0.5,0,0.5c0,0,0.1,0,0.2,0c0.2,0,0.4,0,0.6,0h0.2c0.1,0,0.1,0,0.2,0h0.2h0.6c0.1,0,0.1,0,0.2,0
	c0,0,0.1,0,0.2,0c0,0,0-0.5,0-0.5c0,0,0.1,0,0.2,0c0,0,0.1,0,0.2,0c0,0,0.1,0,0.2,0h0.2h0.2c0.1,0,0.1,0,0.2,0c0,0,0.1,0,0.2,0
	c0,0.1,0,0.4,0,0.5c0,0,0.1,0,0.2,0c0,0,0-0.5,0-0.5c0-0.1,0.1,0,0.2,0c0,0,0.1,0,0.2,0c0.1,0,0.1,0,0.2,0h0.2c0,0,0.1-0.1,0.2,0
	c0,0,0,0.5,0,0.5c0,0,0.1,0,0.2,0c0,0,0.1,0,0.2,0c0-0.1,0-0.5,0-0.5c0,0,0.1,0,0.2,0h0.2c0,0,0,0.5,0,0.5c0,0,0.1,0,0.2,0
	c0.1,0,0.1,0,0.2,0c0,0,0-0.5,0-0.5c0,0,0.1,0,0.2,0c0,0,0,0.5,0,0.5c0,0,0.1,0,0.2,0c0,0,0-0.5,0-0.5c0,0,0.1,0,0.2,0
	c0.1,0,0.1,0,0.2,0c0,0,0.1,0,0.2,0c0,0,0,0.5,0,0.5c0,0,0.1,0,0.2,0c0,0,0-0.5,0-0.5c0.1,0,0.1,0,0.2,0c0.2,0,0.4,0,0.6,0h0.2
	c0.1,0,0.1,0,0.2,0c0,0,0.1,0,0.2,0c0,0,0.1,0,0.2,0c0,0,0.1-0.1,0.2,0c0,0,0,0.5,0,0.5c0,0,0.1,0,0.2,0c0-0.1,0-0.5,0-0.5
	c0,0,0.1,0,0.2,0c0.1,0,0.1,0,0.2,0c0,0,0,0.5,0,0.5c0,0,0.1,0,0.2,0c0.1,0,0.1,0,0.2,0c0,0,0-0.5,0-0.5c0,0,0.1,0,0.2,0
	c0,0,0.1,0,0.2,0c0,0,0,0.5,0,0.5c0,0,0.1,0,0.2,0c0-0.1,0-0.4,0-0.5c0,0,0.1,0,0.2,0c0,0,0,0.5,0,0.5c0,0.1,0.1,0,0.2,0
	c0,0,0.1,0,0.2,0c0.1,0,0.1,0,0.2,0c0,0,0.1,0,0.2,0c0-0.1,0-0.4,0-0.5c0,0,0.1,0,0.2,0c0,0,0,0.5,0,0.5c0,0,0.1,0,0.2,0
	c0,0,0.1,0,0.2,0c0,0,0-0.5,0-0.5h0.2c0,0,0.1,0,0.2,0c0,0,0.1-0.1,0.2,0c0,0,0,0.5,0,0.5c0,0,0.1,0,0.2,0h0.2c0.1,0,0.1,0,0.2,0
	c0.1,0,0.1,0,0.2,0c0,0,0.1,0.1,0.2,0c0-0.1,0-0.4,0-0.5c0,0,0.1,0,0.2,0c0,0,0,0.5,0,0.5c0,0,0.1,0,0.2,0c0,0,0.1,0,0.2,0
	c0,0,0-0.5,0-0.5c0,0,0.1,0,0.2,0c0.2,0,0.4,0,0.6,0h0.2c0.1,0,0.1,0,0.2,0c0,0,0.1,0,0.2,0c0,0,0.1,0,0.2,0c0,0,0,0.5,0,0.5
	c0,0,0.1,0,0.2,0c0,0,0.1,0,0.2,0c0,0,0-0.5,0-0.5c0,0,0.1,0,0.2,0h0.2c0,0,0.1,0,0.2,0c0,0,0.1-0.1,0.2,0c0,0,0,0.5,0,0.5
	c0,0,0.1,0,0.2,0c0-0.1,0-0.5,0-0.5c0,0,0.1,0,0.2,0c0.1,0,0.1,0,0.2,0c0,0,0.1-0.1,0.2,0c0,0.1,0,0.4,0,0.5c0,0.1,0.1,0,0.2,0
	c0,0,0.1,0,0.2,0c0,0,0.1,0,0.2,0c0,0,0-0.4,0-0.5c0,0,0.1,0,0.2,0c0,0,0.1,0,0.2,0h0.2c0.1,0,0.1,0,0.2,0c0.1,0,0.1,0,0.2,0
	c0,0,0.1,0,0.2,0c0,0,0.1-0.1,0.2,0c0,0,0,0.5,0,0.5c0.1,0,0.1,0,0.2,0c0.1,0,0.1,0,0.2,0c0,0,0.1,0,0.2,0c0,0,0.1,0.1,0.2,0
	c0-0.1,0-0.5,0-0.5c0,0,0.1,0,0.2,0c0.1,0,0.1,0,0.2,0c0,0,0.1,0,0.2,0c0,0.1,0,0.5,0,0.5c0,0,0.1,0,0.2,0h0.2h0.2c0,0,0.1,0,0.2,0
	c0,0,0-0.4,0-0.5c0,0,0.1,0,0.2,0c0,0,0,0.5,0,0.5c0,0,0.1,0,0.2,0c0,0,0-0.5,0-0.5c0,0,0.1,0,0.2,0c0.1,0,0.1,0,0.2,0
	c0.1,0,0.1,0,0.2,0c0,0,0.1,0,0.2,0c0,0,0,0.5,0,0.5c0,0,0.1,0,0.2,0c0.1,0,0.1,0,0.2,0c0,0,0-0.5,0-0.5c0-0.1,0.1,0,0.2,0
	c0,0,0.1,0,0.2,0h0.2c0.1,0,0.1,0,0.2,0h0.2c0,0,0.1,0,0.2,0c0.1,0,0.1,0,0.2,0c0,0,0.1,0,0.2,0c0,0,0,0.4,0,0.5c0,0,0.1,0,0.2,0
	c0.1,0,0.1,0,0.2,0c0,0,0.1,0,0.2,0c0,0,0.1,0.1,0.2,0c0,0,0-0.5,0-0.5c0,0,0.1,0,0.2,0c0,0,0.1,0,0.2,0c0,0,0.1-0.1,0.2,0
	c0,0,0,0.5,0,0.5c0.1,0,0.1,0,0.2,0h0.2c0.1,0,0.1,0,0.2,0c0.1,0,0.1,0,0.2,0c0,0,0.1,0,0.2,0c0,0,0.1,0.1,0.2,0c0,0,0-0.5,0-0.5
	c0.1,0,0.1,0,0.2,0c0,0,0.1,0,0.2,0c0,0,0,0.5,0,0.5c0,0,0.1,0,0.2,0h0.2h0.2c0.1,0,0.1,0,0.2,0c0,0,0-0.5,0-0.5c0,0,0.1,0,0.2,0
	c0,0,0.1,0,0.2,0c0,0,0,0.5,0,0.5c0,0.1,0.1,0,0.2,0c0,0,0.1,0,0.2,0c0.1,0,0.1,0,0.2,0c0,0,0.1,0,0.2,0c0-0.1,0-0.5,0-0.5
	c0,0,0.1,0,0.2,0c0.1,0,0.1,0,0.2,0c0,0,0,0.5,0,0.5c0,0,0.1,0,0.2,0s0.1,0,0.2,0c0,0,0-0.5,0-0.5c0.1,0,0.1,0,0.2,0h0.2
	c0,0,0.1,0,0.2,0c0.1,0,0.1,0,0.2,0c0,0,0.1-0.1,0.2,0c0,0,0,0.4,0,0.5c0,0,0.1,0,0.2,0c0,0,0.1,0,0.2,0c0-0.1,0-0.5,0-0.5
	c0,0,0.1,0,0.2,0c0.1,0,0.1,0,0.2,0c0,0,0.1,0,0.2,0c0,0.1,0,0.5,0,0.5c0,0,0.1,0,0.2,0c0.1,0,0.1,0,0.2,0c0,0,0.1,0,0.2,0
	c0-0.1,0-0.4,0-0.5c0-0.1,0.1,0,0.2,0c0,0,0.1,0,0.2,0c0,0,0.1,0,0.2,0c0,0,0.1-0.1,0.2,0c0,0,0,0.5,0,0.5c0,0,0.1,0,0.2,0h0.2h0.2
	c0,0,0.1,0,0.2,0c0,0,0,0.5,0,0.5c0,0.1,0.1,0,0.2,0c0,0,0.1,0,0.2,0h0.2c0-0.1,0.1,0.1,0.2,0c0-0.1,0-0.5,0-0.5c0-0.1,0.1,0,0.2,0
	c0,0,0.1,0,0.2,0c0,0,0.1,0,0.2,0c0,0,0.1,0,0.2,0c0,0,0-0.5,0-0.5c0-0.1,0.1,0,0.2,0c0,0,0,0.5,0,0.5c0,0.1,0.1,0,0.2,0
	c0,0,0.1,0,0.2,0c0,0,0.1,0,0.2,0c0,0,0.1,0,0.2,0c0-0.1,0-0.5,0-0.5c0,0,0.1,0,0.2,0c0.1,0,0.1,0,0.2,0c0.1,0,0.1,0,0.2,0
	c0,0,0.1,0,0.2,0c0,0,0.1,0,0.2,0c0,0,0.1-0.1,0.2,0c0,0.1,0,0.4,0,0.5c0,0,0.1,0,0.2,0c0,0,0.1,0,0.2,0c0.1,0,0.1,0,0.2,0
	c0.1,0,0.1,0,0.2,0c0,0,0.1,0,0.2,0c0,0,0-0.5,0-0.5c0.1,0,0.1,0,0.2,0c0,0,0.1,0,0.2,0c0,0,0.1-0.1,0.2,0c0,0.1,0,0.4,0,0.5
	c0,0,0.1,0,0.2,0c0,0,0.1,0,0.2,0c0-0.1,0-0.5,0-0.5c0-0.1,0.1,0,0.2,0h0.2c0.1,0,0.1,0,0.2,0c0.1,0,0.1,0,0.2,0c0,0,0.1,0,0.2,0
	c0,0,0,0.5,0,0.5c0,0,0.1,0,0.2,0c0,0,0-0.5,0-0.5c0,0,0.1-0.1,0.2,0c0,0.1,0,0.5,0,0.5c0,0,0.1,0,0.2,0h0.2c0.1,0,0.1,0,0.2,0
	c0,0,0-0.5,0-0.5c0-0.1,0.1,0,0.2,0c0,0,0.1,0,0.2,0h0.2c0,0,0.1,0,0.2,0c0.1,0,0.1,0,0.2,0h0.2c0,0,0.1,0,0.2,0h0.2
	c0,0,0.1,0,0.2,0c0,0,0.1,0,0.2,0c0,0,0,0.5,0,0.5c0,0,0.1,0,0.2,0c0-0.1,0-0.4,0-0.5c0-0.1,0.1,0,0.2,0c0.1,0,0.1,0,0.2,0h0.2h0.2
	h0.2c0.1,0,0.1,0,0.2,0c0.1,0,0.1,0,0.2,0h0.2h0.2c0.2,0,0.4,0,0.6,0c0.1,0,0.1,0,0.2,0h0.6c0.1,0,0.1,0,0.2,0c0.2,0,0.4,0,0.6,0
	h0.2h0.2c0.1,0,0.1,0,0.2,0c0.1,0,0.1,0,0.2,0c0,0,0.1,0,0.2,0h0.2h0.2c0,0,0.1,0,0.2,0c0.1,0,0.1,0,0.2,0h0.2c0,0,0.1,0,0.2,0
	c0,0,0.1-0.1,0.2,0c0,0.1,0,0.4,0,0.5c0,0,0.1,0,0.2,0c0,0,0.1,0,0.2,0c0-0.1,0-0.5,0-0.5c0,0,0.1,0,0.2,0h0.2c0.1,0,0.1,0,0.2,0
	c0,0,0.1,0,0.2,0c0,0,0,0.5,0,0.5c0,0,0.1,0,0.2,0c0-0.1,0-0.4,0-0.5c0,0,0.1,0,0.2,0c0,0,0.1,0,0.2,0h0.2h0.2c0.2,0,0.4,0,0.6,0
	h0.2h0.2h0.2c0.1,0,0.1,0,0.2,0h0.2h0.2c0.2,0,0.4,0,0.6,0h0.2h0.2c0,0,0.1,0,0.2,0c0.1,0,0.1,0,0.2,0c0.1,0,0.1,0,0.2,0
	c0.1,0,0.1,0,0.2,0c0,0,0.1,0,0.2,0c0,0,0,0.5,0,0.5c0,0,0.1,0,0.2,0h0.2c0,0,0.1,0,0.2,0c0,0,0-0.5,0-0.5c0,0,0.1,0,0.2,0
	c0.1,0,0.1,0,0.2,0c0.1,0,0.1,0,0.2,0c0.1,0,0.1,0,0.2,0c0.1,0,0.1,0,0.2,0c0,0,0.1,0,0.2,0c0,0,0,0.5,0,0.5c0,0,0.1,0,0.2,0
	c0.1,0,0.1,0,0.2,0h0.2h0.2h0.2c0,0,0-0.5,0-0.5c0-0.1,0.1,0,0.2,0c0,0,0.1,0,0.2,0h0.2c0,0,0.1,0,0.2,0c0.1,0,0.1,0,0.2,0h0.2h0.2
	h0.2c0.1,0,0.1,0,0.2,0c0.1,0,0.1,0,0.2,0h0.2h0.2c0.2,0,0.4,0,0.6,0h0.2h0.2c0.1,0,0.1,0,0.2,0c0.1,0,0.1,0,0.2,0h0.2h0.2h0.2
	c0,0,0.1,0,0.2,0c0,0,0.1-0.1,0.2,0c0,0.1,0,0.4,0,0.5c0,0.1,0.1,0,0.2,0c0,0,0.1,0,0.2,0h0.2c0.1,0,0.1,0,0.2,0h0.2
	c0,0,0.1,0,0.2,0c0,0,0.1,0.1,0.2,0c0,0,0-0.5,0-0.5c0,0,0.1,0,0.2,0h0.2h0.2c0,0,0.1,0,0.2,0c0,0,0.1,0,0.2,0c0,0,0.1,0,0.2,0
	c0,0,0.1-0.1,0.2,0c0,0,0,0.5,0,0.5c0,0,0.1,0,0.2,0c0-0.1,0-0.5,0-0.5c0,0,0.1,0,0.2,0h0.2h0.2c0,0,0.1,0,0.2,0c0,0.1,0,0.5,0,0.5
	c0,0,0.1,0,0.2,0c0.1,0,0.1,0,0.2,0c0,0,0.1,0,0.2,0c0-0.1,0-0.5,0-0.5c0-0.1,0.1,0,0.2,0c0.1,0,0.1,0,0.2,0c0,0,0,0.5,0,0.5
	c0,0,0.1,0,0.2,0c0,0,0-0.5,0-0.5c0-0.1,0.1,0,0.2,0c0.1,0,0.1,0,0.2,0h0.2c0.1,0,0.1,0,0.2,0h0.2h0.2h0.2c0,0,0.1,0,0.2,0
	c0,0,0.1-0.1,0.2,0c0,0,0,0.5,0,0.5c0.1,0,0.1,0,0.2,0c0,0,0.1,0,0.2,0c0,0,0-0.4,0-0.5c0,0,0.1,0,0.2,0c0,0,0,0.5,0,0.5
	c0,0,0.1,0,0.2,0c0,0,0-0.5,0-0.5c0,0,0.1,0,0.2,0c0.1,0,0.1,0,0.2,0c0,0,0.1,0,0.2,0c0,0,0,0.5,0,0.5c0,0,0.1,0,0.2,0
	c0.1,0,0.1,0,0.2,0c0.1,0,0.1,0,0.2,0h0.2h0.2c0,0,0.1,0,0.2,0c0,0,0-0.5,0-0.5c0-0.1,0.1,0,0.2,0c0,0,0.1,0,0.2,0
	c0.1,0,0.1,0,0.2,0c0,0,0,0.5,0,0.5c0,0,0.1,0,0.2,0c0,0,0-0.5,0-0.5c0,0,0.1,0,0.2,0c0.1,0,0.1,0,0.2,0c0,0,0.1,0,0.2,0
	c0,0,0.1-0.1,0.2,0c0,0.1,0,0.4,0,0.5c0,0,0.1,0,0.2,0c0.1,0,0.1,0,0.2,0c0,0,0.1,0,0.2,0c0,0,0-0.5,0-0.5c0-0.1,0.1,0,0.2,0
	c0,0,0.1,0,0.2,0h0.2c0.1,0,0.1,0,0.2,0c0,0,0.1,0,0.2,0c0,0,0,0.5,0,0.5c0,0,0.1,0,0.2,0c0,0,0.1,0,0.2,0c0,0,0-0.5,0-0.5
	c0.1,0,0.1,0,0.2,0c0,0,0.1,0,0.2,0c0,0,0.1-0.1,0.2,0c0,0.1,0,0.4,0,0.5c0,0,0.1,0,0.2,0c0,0,0-0.5,0-0.5c0,0,0.1,0,0.2,0
	c0,0,0,0.5,0,0.5c0,0,0.1,0,0.2,0c0,0,0.1,0.1,0.2,0c0-0.1,0-0.5,0-0.5c0,0,0.1,0,0.2,0c0.1,0,0.1,0,0.2,0c0.1,0,0.1,0,0.2,0h0.2
	h0.2c0.1,0,0.1,0,0.2,0c0,0,0,0.5,0,0.5c0,0,0.1,0,0.2,0c0,0,0-0.5,0-0.5c0,0,0.1,0,0.2,0h0.2c0.1,0,0.1,0,0.2,0c0.1,0,0.1,0,0.2,0
	c0.2,0,0.4,0,0.6,0h0.2c0.1,0,0.1,0,0.2,0c0,0,0.1,0,0.2,0c0,0.1,0,0.5,0,0.5c0,0,0.1,0,0.2,0c0.1,0,0.1,0,0.2,0c0,0,0-0.5,0-0.5
	c0-0.1,0.1,0,0.2,0c0,0,0.1,0,0.2,0c0,0,0.1,0,0.2,0c0,0,0,0.5,0,0.5c0,0,0.1,0,0.2,0c0-0.1,0-0.5,0-0.5c0,0,0.1,0,0.2,0
	c0.1,0,0.1,0,0.2,0c0,0,0.1,0,0.2,0c0,0.1,0,0.5,0,0.5c0,0,0.1,0,0.2,0c0.1,0,0.1,0,0.2,0c0,0,0-0.5,0-0.5c0-0.1,0.1,0,0.2,0
	c0,0,0.1,0,0.2,0c0.1,0,0.1,0,0.2,0c0.1,0,0.1,0,0.2,0c0,0,0.1,0,0.2,0c0,0,0,0.4,0,0.5c0,0.1,0.1-0.1,0.2,0c0,0.1,0,0.4,0,0.5h0.3
	c0-0.1,0-0.4,0-0.5c0,0,0.1,0,0.2,0c0,0,0.1,0,0.2,0c0,0,0.1,0,0.2,0c0,0,0.1,0,0.2,0c0,0,0.1,0.1,0.2,0c0,0,0-0.5,0-0.5
	c0,0,0.1,0,0.2,0h0.2c0,0,0.1,0,0.2,0c0,0,0.1-0.1,0.2,0c0,0.1,0,0.5,0,0.5c0,0,0.1,0,0.2,0c0.1,0,0.1,0,0.2,0c0.1,0,0.1,0,0.2,0
	h0.2c0.1,0,0.1,0,0.2,0c0.1,0,0.1,0,0.2,0c0,0,0.1,0,0.2,0c0,0,0.1,0.1,0.2,0c0,0,0-0.5,0-0.5c0.1,0,0.1,0,0.2,0c0.1,0,0.1,0,0.2,0
	c0.1,0,0.1,0,0.2,0c0.1,0,0.1,0,0.2,0c0,0,0.1,0,0.2,0c0,0,0.1-0.1,0.2,0c0,0,0,0.5,0,0.5c0,0,0.1,0.1,0.2,0c0-0.1,0-0.4,0-0.5
	c0-0.1,0.1,0,0.2,0c0,0,0.1,0,0.2,0c0,0,0.1,0,0.2,0c0,0,0.1-0.1,0.2,0c0,0,0,0.5,0,0.5c0,0,0.1,0,0.2,0c0-0.1,0-0.4,0-0.5
	c0-0.1,0.1,0,0.2,0c0,0,0.1,0,0.2,0c0,0,0.1,0,0.2,0c0,0,0.1-0.1,0.2,0c0,0,0,0.5,0,0.5c0.1,0,0.1,0,0.2,0c0,0,0.1,0,0.2,0
	c0,0,0-0.5,0-0.5c0,0,0.1,0,0.2,0c0,0,0.1,0,0.2,0h0.2c0.1,0,0.1,0,0.2,0c0.1,0,0.1,0,0.2,0h0.2h0.6c0.1,0,0.1,0,0.2,0
	c0.1,0,0.1,0,0.2,0c0,0,0.1,0,0.2,0h0.2h0.2c0,0,0.1,0,0.2,0c0,0,0.1,0,0.2,0c0,0,0,0.5,0,0.5c0,0.1,0.1,0,0.2,0c0,0,0.1,0,0.2,0
	h0.2c0.1,0,0.1,0,0.2,0c0.1,0,0.1,0,0.2,0c0,0,0.1,0,0.2,0c0,0,0-0.5,0-0.5c0-0.1,0.1,0,0.2,0c0,0,0,0.5,0,0.5c0,0.1,0.1,0,0.2,0
	c0,0,0.1,0,0.2,0c0-0.1,0-0.4,0-0.5c0,0,0.1,0,0.2,0c0,0,0.1,0,0.2,0c0,0,0,0.5,0,0.5c0,0,0.1,0,0.2,0c0,0,0-0.5,0-0.5
	c0,0,0.1,0,0.2,0h0.2c0.1,0,0.1,0,0.2,0c0.1,0,0.1,0,0.2,0c0.1,0,0.1,0,0.2,0c0,0,0.1,0,0.2,0h0.2h0.2c0,0,0.1,0,0.2,0
	c0.1,0,0.1,0,0.2,0c0,0,0.1,0,0.2,0c0,0,0,0.5,0,0.5c0,0,0.1,0,0.2,0c0,0,0-0.5,0-0.5c0.1,0,0.1,0,0.2,0h0.2c0,0,0.1,0,0.2,0
	c0,0,0.1,0,0.2,0c0.1,0,0.1,0,0.2,0c0.1,0,0.1,0,0.2,0c0.1,0,0.1,0,0.2,0c0,0,0.1,0,0.2,0c0-0.1,0-0.4,0-0.5c0,0.1,0.1-0.1,0.2,0
	c0,0.1,0,0.5,0,0.5c0,0,0.1,0,0.2,0h0.2c0,0,0.1,0,0.2,0c0,0,0,0.5,0,0.5c0,0,0.1,0,0.2,0c0,0,0.1,0,0.2,0c0-0.1,0-0.4,0-0.5
	c0,0,0.1,0,0.2,0h0.2h0.2h0.2c0.2,0,0.4,0,0.6,0h0.2c0.1,0,0.1,0,0.2,0h0.2c0.1,0,0.1,0,0.2,0c0,0,0.1,0,0.2,0c0,0,0,0.5,0,0.5
	c0,0,0.1,0,0.2,0c0,0,0-0.5,0-0.5c0.1,0,0.1,0,0.2,0c0,0,0.1,0,0.2,0c0,0,0.1,0,0.2,0c0,0,0.1,0,0.2,0c0,0,0,0.5,0,0.5
	c0,0,0.1,0,0.2,0c0-0.1,0-0.5,0-0.5c0,0,0.1,0,0.2,0h0.2c0,0,0.1,0,0.2,0c0,0,0,0.5,0,0.5c0,0,0.1,0,0.2,0c0,0,0.1,0,0.2,0
	c0-0.1,0-0.4,0-0.5c0,0,0.1,0,0.2,0c0.1,0,0.1,0,0.2,0c0.1,0,0.1,0,0.2,0h0.2h0.2c0.1,0,0.1,0,0.2,0c0,0,0,0.5,0,0.5
	c0,0.1,0.1,0,0.2,0c0,0,0.1,0,0.2,0c0-0.1,0-0.4,0-0.5c0,0,0.1,0,0.2,0c0.1,0,0.1,0,0.2,0h0.2h0.2c0.2,0,0.4,0,0.6,0h0.2h0.2
	c0,0,0.1,0,0.2,0c0,0,0.1,0,0.2,0c0.1,0,0.1,0,0.2,0h0.2c0.2,0,0.4,0,0.6,0h0.2h0.2c0,0,0.1,0,0.2,0c0.1,0,0.1,0,0.2,0h0.2
	c0.1,0,0.1,0,0.2,0h0.2c0,0,0.1,0,0.2,0c0,0,0.1,0,0.2,0c0,0,0.1,0,0.2,0c0,0,0,0.5,0,0.5c0,0,0.1,0,0.2,0h0.2c0,0,0.1,0,0.2,0h0.2
	h0.2c0,0,0.1,0,0.2,0c0,0,0-0.5,0-0.5c0,0,0.1,0,0.2,0c0,0,0.1,0,0.2,0c0,0,0.1,0,0.2,0c0,0.1,0,0.4,0,0.5c0,0,0.1,0,0.2,0
	c0,0,0.1,0,0.2,0c0-0.1,0-0.5,0-0.5c0,0,0.1,0,0.2,0c0.1,0,0.1,0,0.2,0c0.1,0,0.1,0,0.2,0c0,0,0.1-0.1,0.2,0c0,0,0,0.5,0,0.5
	c0,0,0.1,0,0.2,0c0,0,0.1,0,0.2,0c0,0,0-0.5,0-0.5c0,0,0.1,0,0.2,0c0,0,0.1,0,0.2,0c0.2,0,0.4,0,0.6,0h0.2c0,0,0.1,0,0.2,0
	c0,0,0,0.5,0,0.5c0,0,0.1,0,0.2,0c0.1,0,0.1,0,0.2,0c0,0,0-0.5,0-0.5c0-0.1,0.1,0,0.2,0c0,0,0.1,0,0.2,0h0.2c0,0,0,0.5,0,0.5
	c0,0,0.1,0,0.2,0c0,0,0-0.5,0-0.5c0,0,0.1-0.1,0.2,0c0,0,0,0.5,0,0.5c0,0,0.1,0,0.2,0c0,0,0-0.5,0-0.5c0.1,0,0.1,0,0.2,0h0.2
	c0,0,0.1,0,0.2,0c0,0,0,0.5,0,0.5c0,0,0.1,0,0.2,0c0,0,0-0.5,0-0.5c0,0,0.1,0,0.2,0c0.1,0,0.1,0,0.2,0c0.2,0,0.4,0,0.6,0h0.2
	c0.1,0,0.1,0,0.2,0c0.1,0,0.1,0,0.2,0h0.2c0,0,0.1,0,0.2,0c0,0,0.1,0,0.2,0c0,0,0.1,0,0.2,0c0,0,0,0.5,0,0.5c0,0,0.1,0,0.2,0
	c0-0.1,0-0.4,0-0.5c0-0.1,0.1,0,0.2,0c0,0,0.1,0,0.2,0h0.2c0.1,0,0.1,0,0.2,0h0.2c0,0,0.1,0,0.2,0c0.1,0,0.2,0,0.3,0
	c0.2,0,0.4,0,0.6,0h0.2h0.6h0.2h0.2c0.1,0,0.1,0,0.2,0h0.6c0.1,0,0.1,0,0.2,0c0.1,0,0.1,0,0.2,0c0.1,0,0.1,0,0.2,0h0.2
	c0,0,0.1,0,0.2,0c0,0,0.1-0.1,0.2,0c0,0.1,0,0.5,0,0.5c0,0,0.1,0,0.2,0c0,0,0.1,0,0.2,0c0,0,0.1,0,0.2,0c0-0.1,0-0.4,0-0.5
	c0-0.1,0.1,0,0.2,0c0,0,0.1,0,0.2,0h0.2h0.2h0.2c0,0,0.1,0,0.2,0c0,0,0.1,0,0.2,0c0,0,0,0.5,0,0.5c0,0,0.1,0,0.2,0c0,0,0.1,0,0.2,0
	c0,0,0-0.5,0-0.5c0,0,0.1,0,0.2,0c0,0,0.1,0,0.2,0c0,0,0.1,0,0.2,0c0,0,0,0.5,0,0.5c0,0,0.1,0,0.2,0h0.2c0.1,0,0.1,0,0.2,0
	c0,0,0-0.5,0-0.5c0,0,0.1,0,0.2,0c0,0,0.1,0,0.2,0c0,0,0.1,0,0.2,0h0.2c0.1,0,0.1,0,0.2,0c0.1,0,0.1,0,0.2,0c0.1,0,0.1,0,0.2,0h0.2
	c0,0,0.1,0,0.2,0c0,0,0.1,0,0.2,0c0,0,0.1,0,0.2,0c0,0,0,0.5,0,0.5c0,0,0.1,0,0.2,0c0,0,0.1,0,0.2,0c0-0.1,0-0.4,0-0.5
	c0-0.1,0.1,0,0.2,0c0,0,0.1,0,0.2,0h0.2h0.2h0.2c0.1,0,0.1,0,0.2,0h0.3c0.2,0,0.4,0,0.6,0c0.1,0,0.1,0,0.2,0c0.2,0,0.4,0,0.6,0h0.2
	h0.2h0.2c0.2,0,0.4,0,0.6,0c0.1,0,0.1,0,0.2,0h0.2c0,0,0-0.5,0-0.5c0,0,0.1,0,0.2,0c0,0,0,0.5,0,0.5c0,0,0.1,0,0.2,0h0.2h0.2
	c0.1,0,0.1,0,0.2,0h0.2h0.3h0.2c0.1,0,0.2,0,0.3,0h0.2c0.2,0,0.4,0,0.6,0h0.2c0.1,0,0.1,0,0.2,0c0.1,0,0.1,0,0.2,0h0.6
	c0.1,0,0.1,0,0.2,0c0.1,0,0.1,0,0.2,0c0.1,0,0.1,0,0.2,0c0,0,0.1,0,0.2,0c0,0,0-0.5,0-0.5c0,0,0.1,0,0.2,0c0,0,0,0.5,0,0.5
	c0,0,0.1,0,0.2,0c0,0,0-0.5,0-0.5c0.1,0,0.1,0,0.2,0c0,0,0.1,0,0.2,0c0,0,0,0.5,0,0.5c0,0,0.1,0,0.2,0c0.1,0,0.1,0,0.2,0h0.2
	c0.1,0,0.1,0,0.2,0c0,0,0.1,0,0.2,0h0.2c0.1,0,0.1,0,0.2,0c0,0,0.1,0.1,0.2,0c0,0,0-0.5,0-0.5c0,0,0.1,0,0.2,0c0,0,0,0.5,0,0.5
	c0.1,0,0.1,0,0.2,0c0.2,0,0.4,0,0.6,0h0.2c0.1,0,0.1,0,0.2,0c0,0,0-0.5,0-0.5c0,0,0.1,0,0.2,0c0,0.1,0,0.5,0,0.5c0,0,0.1-0.1,0.2,0
	c0,0,0,0.5,0,0.5c0,0,0.1,0,0.2,0c0-0.1,0-0.4,0-0.5h0.2h0.3h0.2c0.1,0,0.2,0,0.3,0h0.2c0.2,0,0.4,0,0.6,0h0.2h0.2
	c0.1,0,0.1,0,0.2,0h0.2c0.1,0,0.1,0,0.2,0c0,0,0.1,0.1,0.2,0c0,0,0-0.5,0-0.5c0,0,0.1,0,0.2,0c0,0,0,0.5,0,0.5c0.1,0,0.1,0,0.2,0
	c0.2,0,0.4,0,0.6,0h0.2h0.2c0.1,0,0.1,0,0.2,0c0.1,0,0.2,0,0.3,0c0.2,0,0.4,0,0.6,0h0.2c0.2,0,0.4,0,0.6,0h0.2c0.1,0,0.1,0,0.2,0
	c0,0,0.1,0,0.2,0c0,0.1,0,0.4,0,0.5c0,0,0.1,0,0.2,0c0,0,0-0.5,0-0.5c0-0.1,0.1,0,0.2,0c0,0,0.1,0,0.2,0c0.1,0,0.1,0,0.2,0
	c0,0,0.1,0,0.2,0c0.1,0,0.1,0,0.2,0c0.1,0,0.1,0,0.2,0c0,0,0.1,0,0.2,0c0,0,0.1,0,0.2,0c0,0,0-0.5,0-0.5c0,0,0.1,0,0.2,0h0.1v-2
	H421.7z"/>
</svg>
